<?xml version="1.0" encoding="utf-8" standalone="no"?>
<!DOCTYPE svg PUBLIC "-//W3C//DTD SVG 1.1//EN"
  "http://www.w3.org/Graphics/SVG/1.1/DTD/svg11.dtd">
<!-- Created with matplotlib (http://matplotlib.org/) -->
<svg height="271.372pt" version="1.1" viewBox="0 0 493.873 271.372" width="493.873pt" xmlns="http://www.w3.org/2000/svg" xmlns:xlink="http://www.w3.org/1999/xlink">
 <defs>
  <style type="text/css">
*{stroke-linecap:butt;stroke-linejoin:round;}
  </style>
 </defs>
 <g id="figure_1">
  <g id="patch_1">
   <path d="M 0 271.372 
L 493.873 271.372 
L 493.873 0 
L 0 0 
z
" style="fill:none;"/>
  </g>
  <g id="axes_1">
   <g id="patch_2">
    <path clip-path="url(#pdce5827ae4)" d="M 310.5215 154.094 
L 303.492953 152.58091 
L 305.590974 150.473176 
L 298.036957 144.897592 
L 298.058043 144.876408 
L 305.61206 150.451993 
L 307.710081 148.344258 
z
" style="stroke:#000000;stroke-linejoin:miter;stroke-width:1.5;"/>
   </g>
   <g id="line2d_1">
    <path clip-path="url(#pdce5827ae4)" d="M 245.7215 25.475 
L 251.7965 25.475 
" style="fill:none;stroke:#000000;stroke-linecap:round;stroke-width:1.5;"/>
   </g>
   <g id="line2d_2">
    <path clip-path="url(#pdce5827ae4)" d="M 245.7215 36.635 
L 245.7215 25.475 
" style="fill:none;stroke:#000000;stroke-linecap:round;stroke-width:1.5;"/>
   </g>
   <g id="line2d_3">
    <path clip-path="url(#pdce5827ae4)" d="M 245.7215 25.475 
L 239.6465 25.475 
" style="fill:none;stroke:#000000;stroke-linecap:round;stroke-width:1.5;"/>
   </g>
   <g id="line2d_4">
    <path clip-path="url(#pdce5827ae4)" d="M 245.7215 36.635 
L 278.1215 36.635 
L 310.5215 36.635 
" style="fill:none;stroke:#000000;stroke-linecap:round;stroke-width:1.5;"/>
   </g>
   <g id="line2d_5">
    <path clip-path="url(#pdce5827ae4)" d="M 310.5215 36.635 
L 310.5215 43.61 
L 310.5215 50.585 
" style="fill:none;stroke:#000000;stroke-linecap:round;stroke-width:1.5;"/>
   </g>
   <g id="line2d_6">
    <path clip-path="url(#pdce5827ae4)" d="M 310.5215 50.585 
L 310.5215 64.535 
L 318.6215 66.86 
L 302.4215 71.51 
L 318.6215 76.16 
L 302.4215 80.81 
L 318.6215 85.46 
L 302.4215 90.11 
L 310.5215 92.435 
L 310.5215 106.385 
" style="fill:none;stroke:#000000;stroke-linecap:round;stroke-width:1.5;"/>
   </g>
   <g id="line2d_7">
    <path clip-path="url(#pdce5827ae4)" d="M 310.5215 106.385 
" style="fill:none;stroke:#000000;stroke-linecap:round;stroke-width:1.5;"/>
   </g>
   <g id="line2d_8">
    <path clip-path="url(#pdce5827ae4)" d="M 310.5215 106.385 
L 310.5215 113.36 
L 310.5215 120.335 
" style="fill:none;stroke:#000000;stroke-linecap:round;stroke-width:1.5;"/>
   </g>
   <g id="line2d_9">
    <path clip-path="url(#pdce5827ae4)" d="M 298.0475 144.887 
L 310.5215 154.094 
L 310.5215 159.209 
" style="fill:none;stroke:#000000;stroke-linecap:round;stroke-width:1.5;"/>
   </g>
   <g id="line2d_10">
    <path clip-path="url(#pdce5827ae4)" d="M 286.1675 139.772 
L 298.0475 139.772 
" style="fill:none;stroke:#000000;stroke-linecap:round;stroke-width:1.5;"/>
   </g>
   <g id="line2d_11">
    <path clip-path="url(#pdce5827ae4)" d="M 298.0475 129.542 
L 298.0475 150.002 
" style="fill:none;stroke:#000000;stroke-linecap:round;stroke-width:1.5;"/>
   </g>
   <g id="line2d_12">
    <path clip-path="url(#pdce5827ae4)" d="M 298.0475 134.657 
L 310.5215 125.45 
L 310.5215 120.335 
" style="fill:none;stroke:#000000;stroke-linecap:round;stroke-width:1.5;"/>
   </g>
   <g id="line2d_13">
    <path clip-path="url(#pdce5827ae4)" d="M 310.5215 159.209 
L 310.5215 166.184 
L 310.5215 173.159 
" style="fill:none;stroke:#000000;stroke-linecap:round;stroke-width:1.5;"/>
   </g>
   <g id="line2d_14">
    <path clip-path="url(#pdce5827ae4)" d="M 310.5215 173.159 
" style="fill:none;stroke:#000000;stroke-linecap:round;stroke-width:1.5;"/>
   </g>
   <g id="line2d_15">
    <path clip-path="url(#pdce5827ae4)" d="M 310.5215 173.159 
L 310.5215 187.109 
L 318.6215 189.434 
L 302.4215 194.084 
L 318.6215 198.734 
L 302.4215 203.384 
L 318.6215 208.034 
L 302.4215 212.684 
L 310.5215 215.009 
L 310.5215 228.959 
" style="fill:none;stroke:#000000;stroke-linecap:round;stroke-width:1.5;"/>
   </g>
   <g id="line2d_16">
    <path clip-path="url(#pdce5827ae4)" d="M 310.5215 228.959 
L 310.5215 240.119 
L 302.4215 240.119 
L 318.6215 240.119 
M 304.8515 243.467 
L 316.1915 243.467 
M 308.9015 246.815 
L 312.1415 246.815 
" style="fill:none;stroke:#000000;stroke-linecap:round;stroke-width:1.5;"/>
   </g>
   <g id="line2d_17">
    <path clip-path="url(#pdce5827ae4)" d="M 310.5215 173.159 
L 342.9215 173.159 
L 375.3215 173.159 
" style="fill:none;stroke:#000000;stroke-linecap:round;stroke-width:1.5;"/>
   </g>
   <g id="line2d_18">
    <path clip-path="url(#pdce5827ae4)" d="M 375.3215 173.159 
L 375.3215 198.548 
M 383.4215 198.548 
L 367.2215 198.548 
M 383.4215 203.57 
L 367.2215 203.57 
M 375.3215 203.57 
L 375.3215 228.959 
" style="fill:none;stroke:#000000;stroke-linecap:round;stroke-width:1.5;"/>
   </g>
   <g id="line2d_19">
    <path clip-path="url(#pdce5827ae4)" d="M 375.3215 228.959 
L 375.3215 240.119 
L 367.2215 240.119 
L 383.4215 240.119 
M 369.6515 243.467 
L 380.9915 243.467 
M 373.7015 246.815 
L 376.9415 246.815 
" style="fill:none;stroke:#000000;stroke-linecap:round;stroke-width:1.5;"/>
   </g>
   <g id="line2d_20">
    <path clip-path="url(#pdce5827ae4)" d="M 310.5215 106.385 
L 372.4055 106.385 
M 372.4055 99.41 
L 372.4055 113.36 
M 378.2375 99.41 
L 378.2375 113.36 
M 378.2375 106.385 
L 440.1215 106.385 
" style="fill:none;stroke:#000000;stroke-linecap:round;stroke-width:1.5;"/>
   </g>
   <g id="line2d_21">
    <path clip-path="url(#pdce5827ae4)" d="M 440.1215 106.385 
" style="fill:none;stroke:#000000;stroke-linecap:round;stroke-width:1.5;"/>
   </g>
   <g id="line2d_22">
    <path clip-path="url(#pdce5827ae4)" d="M 440.1215 106.385 
L 440.1215 153.722 
L 448.2215 156.047 
L 432.0215 160.697 
L 448.2215 165.347 
L 432.0215 169.997 
L 448.2215 174.647 
L 432.0215 179.297 
L 440.1215 181.622 
L 440.1215 228.959 
" style="fill:none;stroke:#000000;stroke-linecap:round;stroke-width:1.5;"/>
   </g>
   <g id="line2d_23">
    <path clip-path="url(#pdce5827ae4)" d="M 440.1215 228.959 
L 440.1215 240.119 
L 432.0215 240.119 
L 448.2215 240.119 
M 434.4515 243.467 
L 445.7915 243.467 
M 438.5015 246.815 
L 441.7415 246.815 
" style="fill:none;stroke:#000000;stroke-linecap:round;stroke-width:1.5;"/>
   </g>
   <g id="line2d_24">
    <path clip-path="url(#pdce5827ae4)" d="M 440.1215 106.385 
L 448.2215 106.385 
L 456.3215 106.385 
" style="fill:none;stroke:#000000;stroke-linecap:round;stroke-width:1.5;"/>
   </g>
   <g id="line2d_25">
    <path clip-path="url(#pdce5827ae4)" d="M 456.3215 106.385 
" style="fill:none;stroke:#000000;stroke-linecap:round;stroke-width:1.5;"/>
   </g>
   <g id="line2d_26">
    <path clip-path="url(#pdce5827ae4)" d="M 245.7215 36.635 
L 213.3215 36.635 
L 180.9215 36.635 
" style="fill:none;stroke:#000000;stroke-linecap:round;stroke-width:1.5;"/>
   </g>
   <g id="line2d_27">
    <path clip-path="url(#pdce5827ae4)" d="M 180.9215 36.635 
L 180.9215 74.2535 
L 189.0215 76.5785 
L 172.8215 81.2285 
L 189.0215 85.8785 
L 172.8215 90.5285 
L 189.0215 95.1785 
L 172.8215 99.8285 
L 180.9215 102.1535 
L 180.9215 139.772 
" style="fill:none;stroke:#000000;stroke-linecap:round;stroke-width:1.5;"/>
   </g>
   <g id="line2d_28">
    <path clip-path="url(#pdce5827ae4)" d="M 180.9215 139.772 
" style="fill:none;stroke:#000000;stroke-linecap:round;stroke-width:1.5;"/>
   </g>
   <g id="line2d_29">
    <path clip-path="url(#pdce5827ae4)" d="M 180.9215 139.772 
L 233.5445 139.772 
L 286.1675 139.772 
" style="fill:none;stroke:#000000;stroke-linecap:round;stroke-width:1.5;"/>
   </g>
   <g id="line2d_30">
    <path clip-path="url(#pdce5827ae4)" d="M 180.9215 139.772 
L 180.9215 170.4155 
L 189.0215 172.7405 
L 172.8215 177.3905 
L 189.0215 182.0405 
L 172.8215 186.6905 
L 189.0215 191.3405 
L 172.8215 195.9905 
L 180.9215 198.3155 
L 180.9215 228.959 
" style="fill:none;stroke:#000000;stroke-linecap:round;stroke-width:1.5;"/>
   </g>
   <g id="line2d_31">
    <path clip-path="url(#pdce5827ae4)" d="M 180.9215 228.959 
L 180.9215 240.119 
L 172.8215 240.119 
L 189.0215 240.119 
M 175.2515 243.467 
L 186.5915 243.467 
M 179.3015 246.815 
L 182.5415 246.815 
" style="fill:none;stroke:#000000;stroke-linecap:round;stroke-width:1.5;"/>
   </g>
   <g id="line2d_32">
    <path clip-path="url(#pdce5827ae4)" d="M 180.9215 139.772 
L 151.4375 139.772 
M 151.4375 146.747 
L 151.4375 132.797 
M 145.6055 146.747 
L 145.6055 132.797 
M 145.6055 139.772 
L 116.1215 139.772 
" style="fill:none;stroke:#000000;stroke-linecap:round;stroke-width:1.5;"/>
   </g>
   <g id="line2d_33">
    <path clip-path="url(#pdce5827ae4)" d="M 116.1215 139.772 
L 99.9215 139.772 
L 97.2215 146.747 
L 91.8215 132.797 
L 86.4215 146.747 
L 81.0215 132.797 
L 75.6215 146.747 
L 70.2215 132.797 
L 67.5215 139.772 
L 51.3215 139.772 
" style="fill:none;stroke:#000000;stroke-linecap:round;stroke-width:1.5;"/>
   </g>
   <g id="line2d_34">
    <path clip-path="url(#pdce5827ae4)" d="M 51.3215 228.959 
L 51.3215 198.3155 
L 51.3215 198.3155 
M 51.3215 170.4155 
L 51.3215 170.4155 
L 51.3215 139.772 
" style="fill:none;stroke:#000000;stroke-linecap:round;stroke-width:1.5;"/>
   </g>
   <g id="line2d_35">
    <path clip-path="url(#pdce5827ae4)" d="M 48.0815 191.3405 
L 54.5615 191.3405 
" style="fill:none;stroke:#000000;stroke-linecap:round;stroke-width:1.5;"/>
   </g>
   <g id="line2d_36">
    <path clip-path="url(#pdce5827ae4)" d="M 51.3215 180.1805 
L 51.3215 174.6005 
" style="fill:none;stroke:#000000;stroke-linecap:round;stroke-width:1.5;"/>
   </g>
   <g id="line2d_37">
    <path clip-path="url(#pdce5827ae4)" d="M 48.0815 177.3905 
L 54.5615 177.3905 
" style="fill:none;stroke:#000000;stroke-linecap:round;stroke-width:1.5;"/>
   </g>
   <g id="line2d_38">
    <path clip-path="url(#pdce5827ae4)" d="M 51.3215 228.959 
L 51.3215 240.119 
L 43.2215 240.119 
L 59.4215 240.119 
M 45.6515 243.467 
L 56.9915 243.467 
M 49.7015 246.815 
L 52.9415 246.815 
" style="fill:none;stroke:#000000;stroke-linecap:round;stroke-width:1.5;"/>
   </g>
   <g id="patch_3">
    <path clip-path="url(#pdce5827ae4)" d="M 310.5215 108.4775 
C 311.165944 108.4775 311.784079 108.257021 312.239769 107.864621 
C 312.69546 107.472221 312.9515 106.939937 312.9515 106.385 
C 312.9515 105.830063 312.69546 105.297779 312.239769 104.905379 
C 311.784079 104.512979 311.165944 104.2925 310.5215 104.2925 
C 309.877056 104.2925 309.258921 104.512979 308.803231 104.905379 
C 308.34754 105.297779 308.0915 105.830063 308.0915 106.385 
C 308.0915 106.939937 308.34754 107.472221 308.803231 107.864621 
C 309.258921 108.257021 309.877056 108.4775 310.5215 108.4775 
z
" style="stroke:#000000;stroke-linejoin:miter;stroke-width:1.5;"/>
   </g>
   <g id="patch_4">
    <path clip-path="url(#pdce5827ae4)" d="M 310.5215 175.2515 
C 311.165944 175.2515 311.784079 175.031021 312.239769 174.638621 
C 312.69546 174.246221 312.9515 173.713937 312.9515 173.159 
C 312.9515 172.604063 312.69546 172.071779 312.239769 171.679379 
C 311.784079 171.286979 311.165944 171.0665 310.5215 171.0665 
C 309.877056 171.0665 309.258921 171.286979 308.803231 171.679379 
C 308.34754 172.071779 308.0915 172.604063 308.0915 173.159 
C 308.0915 173.713937 308.34754 174.246221 308.803231 174.638621 
C 309.258921 175.031021 309.877056 175.2515 310.5215 175.2515 
z
" style="stroke:#000000;stroke-linejoin:miter;stroke-width:1.5;"/>
   </g>
   <g id="patch_5">
    <path clip-path="url(#pdce5827ae4)" d="M 440.1215 108.4775 
C 440.765944 108.4775 441.384079 108.257021 441.839769 107.864621 
C 442.29546 107.472221 442.5515 106.939937 442.5515 106.385 
C 442.5515 105.830063 442.29546 105.297779 441.839769 104.905379 
C 441.384079 104.512979 440.765944 104.2925 440.1215 104.2925 
C 439.477056 104.2925 438.858921 104.512979 438.403231 104.905379 
C 437.94754 105.297779 437.6915 105.830063 437.6915 106.385 
C 437.6915 106.939937 437.94754 107.472221 438.403231 107.864621 
C 438.858921 108.257021 439.477056 108.4775 440.1215 108.4775 
z
" style="stroke:#000000;stroke-linejoin:miter;stroke-width:1.5;"/>
   </g>
   <g id="patch_6">
    <path clip-path="url(#pdce5827ae4)" d="M 456.3215 108.4775 
C 456.965944 108.4775 457.584079 108.257021 458.039769 107.864621 
C 458.49546 107.472221 458.7515 106.939937 458.7515 106.385 
C 458.7515 105.830063 458.49546 105.297779 458.039769 104.905379 
C 457.584079 104.512979 456.965944 104.2925 456.3215 104.2925 
C 455.677056 104.2925 455.058921 104.512979 454.603231 104.905379 
C 454.14754 105.297779 453.8915 105.830063 453.8915 106.385 
C 453.8915 106.939937 454.14754 107.472221 454.603231 107.864621 
C 455.058921 108.257021 455.677056 108.4775 456.3215 108.4775 
z
" style="fill:#ffffff;stroke:#000000;stroke-linejoin:miter;stroke-width:1.5;"/>
   </g>
   <g id="patch_7">
    <path clip-path="url(#pdce5827ae4)" d="M 180.9215 141.8645 
C 181.565944 141.8645 182.184079 141.644021 182.639769 141.251621 
C 183.09546 140.859221 183.3515 140.326937 183.3515 139.772 
C 183.3515 139.217063 183.09546 138.684779 182.639769 138.292379 
C 182.184079 137.899979 181.565944 137.6795 180.9215 137.6795 
C 180.277056 137.6795 179.658921 137.899979 179.203231 138.292379 
C 178.74754 138.684779 178.4915 139.217063 178.4915 139.772 
C 178.4915 140.326937 178.74754 140.859221 179.203231 141.251621 
C 179.658921 141.644021 180.277056 141.8645 180.9215 141.8645 
z
" style="stroke:#000000;stroke-linejoin:miter;stroke-width:1.5;"/>
   </g>
   <g id="patch_8">
    <path clip-path="url(#pdce5827ae4)" d="M 51.3215 198.3155 
C 55.61779 198.3155 59.738694 196.84564 62.77663 194.22964 
C 65.814566 191.613639 67.5215 188.065083 67.5215 184.3655 
C 67.5215 180.665917 65.814566 177.117361 62.77663 174.50136 
C 59.738694 171.88536 55.61779 170.4155 51.3215 170.4155 
C 47.02521 170.4155 42.904306 171.88536 39.86637 174.50136 
C 36.828434 177.117361 35.1215 180.665917 35.1215 184.3655 
C 35.1215 188.065083 36.828434 191.613639 39.86637 194.22964 
C 42.904306 196.84564 47.02521 198.3155 51.3215 198.3155 
z
" style="fill:none;stroke:#000000;stroke-linejoin:miter;stroke-width:1.5;"/>
   </g>
   <g id="text_1">
    <!-- 10V -->
    <defs>
     <path d="M 12.40625 8.296875 
L 28.515625 8.296875 
L 28.515625 63.921875 
L 10.984375 60.40625 
L 10.984375 69.390625 
L 28.421875 72.90625 
L 38.28125 72.90625 
L 38.28125 8.296875 
L 54.390625 8.296875 
L 54.390625 0 
L 12.40625 0 
z
" id="DejaVuSans-31"/>
     <path d="M 31.78125 66.40625 
Q 24.171875 66.40625 20.328125 58.90625 
Q 16.5 51.421875 16.5 36.375 
Q 16.5 21.390625 20.328125 13.890625 
Q 24.171875 6.390625 31.78125 6.390625 
Q 39.453125 6.390625 43.28125 13.890625 
Q 47.125 21.390625 47.125 36.375 
Q 47.125 51.421875 43.28125 58.90625 
Q 39.453125 66.40625 31.78125 66.40625 
z
M 31.78125 74.21875 
Q 44.046875 74.21875 50.515625 64.515625 
Q 56.984375 54.828125 56.984375 36.375 
Q 56.984375 17.96875 50.515625 8.265625 
Q 44.046875 -1.421875 31.78125 -1.421875 
Q 19.53125 -1.421875 13.0625 8.265625 
Q 6.59375 17.96875 6.59375 36.375 
Q 6.59375 54.828125 13.0625 64.515625 
Q 19.53125 74.21875 31.78125 74.21875 
z
" id="DejaVuSans-30"/>
     <path d="M 28.609375 0 
L 0.78125 72.90625 
L 11.078125 72.90625 
L 34.1875 11.53125 
L 57.328125 72.90625 
L 67.578125 72.90625 
L 39.796875 0 
z
" id="DejaVuSans-56"/>
    </defs>
    <g transform="translate(230.069 19.3575)scale(0.16 -0.16)">
     <use xlink:href="#DejaVuSans-31"/>
     <use x="63.623047" xlink:href="#DejaVuSans-30"/>
     <use x="127.246094" xlink:href="#DejaVuSans-56"/>
    </g>
   </g>
   <g id="text_2">
    <!-- $3.9k\Omega$ -->
    <defs>
     <path d="M 40.578125 39.3125 
Q 47.65625 37.796875 51.625 33 
Q 55.609375 28.21875 55.609375 21.1875 
Q 55.609375 10.40625 48.1875 4.484375 
Q 40.765625 -1.421875 27.09375 -1.421875 
Q 22.515625 -1.421875 17.65625 -0.515625 
Q 12.796875 0.390625 7.625 2.203125 
L 7.625 11.71875 
Q 11.71875 9.328125 16.59375 8.109375 
Q 21.484375 6.890625 26.8125 6.890625 
Q 36.078125 6.890625 40.9375 10.546875 
Q 45.796875 14.203125 45.796875 21.1875 
Q 45.796875 27.640625 41.28125 31.265625 
Q 36.765625 34.90625 28.71875 34.90625 
L 20.21875 34.90625 
L 20.21875 43.015625 
L 29.109375 43.015625 
Q 36.375 43.015625 40.234375 45.921875 
Q 44.09375 48.828125 44.09375 54.296875 
Q 44.09375 59.90625 40.109375 62.90625 
Q 36.140625 65.921875 28.71875 65.921875 
Q 24.65625 65.921875 20.015625 65.03125 
Q 15.375 64.15625 9.8125 62.3125 
L 9.8125 71.09375 
Q 15.4375 72.65625 20.34375 73.4375 
Q 25.25 74.21875 29.59375 74.21875 
Q 40.828125 74.21875 47.359375 69.109375 
Q 53.90625 64.015625 53.90625 55.328125 
Q 53.90625 49.265625 50.4375 45.09375 
Q 46.96875 40.921875 40.578125 39.3125 
z
" id="DejaVuSans-33"/>
     <path d="M 10.6875 12.40625 
L 21 12.40625 
L 21 0 
L 10.6875 0 
z
" id="DejaVuSans-2e"/>
     <path d="M 10.984375 1.515625 
L 10.984375 10.5 
Q 14.703125 8.734375 18.5 7.8125 
Q 22.3125 6.890625 25.984375 6.890625 
Q 35.75 6.890625 40.890625 13.453125 
Q 46.046875 20.015625 46.78125 33.40625 
Q 43.953125 29.203125 39.59375 26.953125 
Q 35.25 24.703125 29.984375 24.703125 
Q 19.046875 24.703125 12.671875 31.3125 
Q 6.296875 37.9375 6.296875 49.421875 
Q 6.296875 60.640625 12.9375 67.421875 
Q 19.578125 74.21875 30.609375 74.21875 
Q 43.265625 74.21875 49.921875 64.515625 
Q 56.59375 54.828125 56.59375 36.375 
Q 56.59375 19.140625 48.40625 8.859375 
Q 40.234375 -1.421875 26.421875 -1.421875 
Q 22.703125 -1.421875 18.890625 -0.6875 
Q 15.09375 0.046875 10.984375 1.515625 
z
M 30.609375 32.421875 
Q 37.25 32.421875 41.125 36.953125 
Q 45.015625 41.5 45.015625 49.421875 
Q 45.015625 57.28125 41.125 61.84375 
Q 37.25 66.40625 30.609375 66.40625 
Q 23.96875 66.40625 20.09375 61.84375 
Q 16.21875 57.28125 16.21875 49.421875 
Q 16.21875 41.5 20.09375 36.953125 
Q 23.96875 32.421875 30.609375 32.421875 
z
" id="DejaVuSans-39"/>
     <path d="M 9.078125 75.984375 
L 18.109375 75.984375 
L 18.109375 31.109375 
L 44.921875 54.6875 
L 56.390625 54.6875 
L 27.390625 29.109375 
L 57.625 0 
L 45.90625 0 
L 18.109375 26.703125 
L 18.109375 0 
L 9.078125 0 
z
" id="DejaVuSans-6b"/>
     <path d="M 72.609375 8.6875 
L 72.609375 0 
L 43.3125 0 
L 43.3125 8.6875 
Q 51.953125 13.421875 56.78125 21.53125 
Q 61.625 29.640625 61.625 39.5 
Q 61.625 51.21875 55.171875 58.296875 
Q 48.734375 65.375 38.1875 65.375 
Q 27.640625 65.375 21.171875 58.265625 
Q 14.703125 51.171875 14.703125 39.5 
Q 14.703125 29.640625 19.53125 21.53125 
Q 24.421875 13.421875 33.109375 8.6875 
L 33.109375 0 
L 3.8125 0 
L 3.8125 8.6875 
L 19.390625 8.6875 
Q 11.671875 15.484375 8.109375 22.75 
Q 4.59375 30.03125 4.59375 39.015625 
Q 4.59375 54.546875 13.96875 64.15625 
Q 23.296875 73.78125 38.1875 73.78125 
Q 52.984375 73.78125 62.40625 64.15625 
Q 71.78125 54.59375 71.78125 39.5 
Q 71.78125 30.03125 68.3125 22.796875 
Q 64.84375 15.578125 56.984375 8.6875 
z
" id="DejaVuSans-3a9"/>
    </defs>
    <g transform="translate(252.1415 82.9)scale(0.16 -0.16)">
     <use transform="translate(0 0.015625)" xlink:href="#DejaVuSans-33"/>
     <use transform="translate(63.623047 0.015625)" xlink:href="#DejaVuSans-2e"/>
     <use transform="translate(95.410156 0.015625)" xlink:href="#DejaVuSans-39"/>
     <use transform="translate(159.033203 0.015625)" xlink:href="#DejaVuSans-6b"/>
     <use transform="translate(216.943359 0.015625)" xlink:href="#DejaVuSans-3a9"/>
    </g>
   </g>
   <g id="text_3">
    <!-- $\beta \approx 166.4$ -->
    <defs>
     <path d="M 18.40625 3.375 
L 18.40625 -20.796875 
L 9.375 -20.796875 
L 9.375 54.34375 
Q 9.375 76.609375 30.171875 76.609375 
Q 51.375 76.609375 51.375 57.8125 
Q 51.375 44.4375 42.96875 39.546875 
Q 56.640625 35.15625 56.640625 22.125 
Q 56.640625 -1.03125 33.109375 -1.03125 
Q 22.75 -1.03125 18.40625 3.375 
z
M 18.40625 15.09375 
Q 23.828125 6.640625 33.453125 6.640625 
Q 47.515625 6.640625 47.515625 21.96875 
Q 47.515625 35.75 24.859375 34.671875 
L 24.859375 42.96875 
Q 42.578125 42.96875 42.578125 58.59375 
Q 42.578125 69.28125 31.15625 69.28125 
Q 18.40625 69.28125 18.40625 54.046875 
z
" id="DejaVuSans-3b2"/>
     <path d="M 73.1875 30.421875 
L 73.1875 21.6875 
Q 68.0625 17.875 63.6875 16.1875 
Q 59.328125 14.5 54.59375 14.5 
Q 49.21875 14.5 42.09375 17.390625 
Q 41.609375 17.578125 41.265625 17.71875 
Q 40.96875 17.828125 40.234375 18.109375 
Q 32.671875 21.09375 28.078125 21.09375 
Q 23.78125 21.09375 19.578125 19.234375 
Q 15.375 17.390625 10.59375 13.28125 
L 10.59375 22.015625 
Q 15.71875 25.828125 20.09375 27.515625 
Q 24.46875 29.203125 29.203125 29.203125 
Q 34.578125 29.203125 41.75 26.3125 
Q 42.28125 26.078125 42.53125 25.984375 
Q 42.828125 25.875 43.5625 25.59375 
Q 51.125 22.609375 55.71875 22.609375 
Q 59.90625 22.609375 64.03125 24.4375 
Q 68.171875 26.265625 73.1875 30.421875 
z
M 73.1875 49.421875 
L 73.1875 40.71875 
Q 68.0625 36.859375 63.6875 35.171875 
Q 59.328125 33.5 54.59375 33.5 
Q 49.21875 33.5 42.09375 36.375 
Q 41.609375 36.578125 41.265625 36.71875 
Q 40.96875 36.8125 40.234375 37.109375 
Q 32.671875 40.09375 28.078125 40.09375 
Q 23.78125 40.09375 19.578125 38.234375 
Q 15.375 36.375 10.59375 32.328125 
L 10.59375 41.015625 
Q 15.71875 44.828125 20.09375 46.5 
Q 24.46875 48.1875 29.203125 48.1875 
Q 34.578125 48.1875 41.75 45.3125 
Q 42.234375 45.125 42.484375 45.015625 
Q 42.828125 44.875 43.5625 44.578125 
Q 51.125 41.609375 55.71875 41.609375 
Q 59.90625 41.609375 64.03125 43.4375 
Q 68.171875 45.265625 73.1875 49.421875 
z
" id="DejaVuSans-2248"/>
     <path d="M 33.015625 40.375 
Q 26.375 40.375 22.484375 35.828125 
Q 18.609375 31.296875 18.609375 23.390625 
Q 18.609375 15.53125 22.484375 10.953125 
Q 26.375 6.390625 33.015625 6.390625 
Q 39.65625 6.390625 43.53125 10.953125 
Q 47.40625 15.53125 47.40625 23.390625 
Q 47.40625 31.296875 43.53125 35.828125 
Q 39.65625 40.375 33.015625 40.375 
z
M 52.59375 71.296875 
L 52.59375 62.3125 
Q 48.875 64.0625 45.09375 64.984375 
Q 41.3125 65.921875 37.59375 65.921875 
Q 27.828125 65.921875 22.671875 59.328125 
Q 17.53125 52.734375 16.796875 39.40625 
Q 19.671875 43.65625 24.015625 45.921875 
Q 28.375 48.1875 33.59375 48.1875 
Q 44.578125 48.1875 50.953125 41.515625 
Q 57.328125 34.859375 57.328125 23.390625 
Q 57.328125 12.15625 50.6875 5.359375 
Q 44.046875 -1.421875 33.015625 -1.421875 
Q 20.359375 -1.421875 13.671875 8.265625 
Q 6.984375 17.96875 6.984375 36.375 
Q 6.984375 53.65625 15.1875 63.9375 
Q 23.390625 74.21875 37.203125 74.21875 
Q 40.921875 74.21875 44.703125 73.484375 
Q 48.484375 72.75 52.59375 71.296875 
z
" id="DejaVuSans-36"/>
     <path d="M 37.796875 64.3125 
L 12.890625 25.390625 
L 37.796875 25.390625 
z
M 35.203125 72.90625 
L 47.609375 72.90625 
L 47.609375 25.390625 
L 58.015625 25.390625 
L 58.015625 17.1875 
L 47.609375 17.1875 
L 47.609375 0 
L 37.796875 0 
L 37.796875 17.1875 
L 4.890625 17.1875 
L 4.890625 26.703125 
z
" id="DejaVuSans-34"/>
    </defs>
    <g transform="translate(313.7615 150.731)scale(0.16 -0.16)">
     <use transform="translate(0 0.390625)" xlink:href="#DejaVuSans-3b2"/>
     <use transform="translate(83.300781 0.390625)" xlink:href="#DejaVuSans-2248"/>
     <use transform="translate(186.572266 0.390625)" xlink:href="#DejaVuSans-31"/>
     <use transform="translate(250.195312 0.390625)" xlink:href="#DejaVuSans-36"/>
     <use transform="translate(313.818359 0.390625)" xlink:href="#DejaVuSans-36"/>
     <use transform="translate(377.441406 0.390625)" xlink:href="#DejaVuSans-2e"/>
     <use transform="translate(409.228516 0.390625)" xlink:href="#DejaVuSans-34"/>
    </g>
   </g>
   <g id="text_4">
    <!-- Q3 -->
    <defs>
     <path d="M 39.40625 66.21875 
Q 28.65625 66.21875 22.328125 58.203125 
Q 16.015625 50.203125 16.015625 36.375 
Q 16.015625 22.609375 22.328125 14.59375 
Q 28.65625 6.59375 39.40625 6.59375 
Q 50.140625 6.59375 56.421875 14.59375 
Q 62.703125 22.609375 62.703125 36.375 
Q 62.703125 50.203125 56.421875 58.203125 
Q 50.140625 66.21875 39.40625 66.21875 
z
M 53.21875 1.3125 
L 66.21875 -12.890625 
L 54.296875 -12.890625 
L 43.5 -1.21875 
Q 41.890625 -1.3125 41.03125 -1.359375 
Q 40.1875 -1.421875 39.40625 -1.421875 
Q 24.03125 -1.421875 14.8125 8.859375 
Q 5.609375 19.140625 5.609375 36.375 
Q 5.609375 53.65625 14.8125 63.9375 
Q 24.03125 74.21875 39.40625 74.21875 
Q 54.734375 74.21875 63.90625 63.9375 
Q 73.09375 53.65625 73.09375 36.375 
Q 73.09375 23.6875 67.984375 14.640625 
Q 62.890625 5.609375 53.21875 1.3125 
z
" id="DejaVuSans-51"/>
    </defs>
    <g transform="translate(313.7615 137.708)scale(0.16 -0.16)">
     <use xlink:href="#DejaVuSans-51"/>
     <use x="78.710938" xlink:href="#DejaVuSans-33"/>
    </g>
   </g>
   <g id="text_5">
    <!-- $2.9k\Omega$ -->
    <defs>
     <path d="M 19.1875 8.296875 
L 53.609375 8.296875 
L 53.609375 0 
L 7.328125 0 
L 7.328125 8.296875 
Q 12.9375 14.109375 22.625 23.890625 
Q 32.328125 33.6875 34.8125 36.53125 
Q 39.546875 41.84375 41.421875 45.53125 
Q 43.3125 49.21875 43.3125 52.78125 
Q 43.3125 58.59375 39.234375 62.25 
Q 35.15625 65.921875 28.609375 65.921875 
Q 23.96875 65.921875 18.8125 64.3125 
Q 13.671875 62.703125 7.8125 59.421875 
L 7.8125 69.390625 
Q 13.765625 71.78125 18.9375 73 
Q 24.125 74.21875 28.421875 74.21875 
Q 39.75 74.21875 46.484375 68.546875 
Q 53.21875 62.890625 53.21875 53.421875 
Q 53.21875 48.921875 51.53125 44.890625 
Q 49.859375 40.875 45.40625 35.40625 
Q 44.1875 33.984375 37.640625 27.21875 
Q 31.109375 20.453125 19.1875 8.296875 
z
" id="DejaVuSans-32"/>
    </defs>
    <g transform="translate(252.1415 205.474)scale(0.16 -0.16)">
     <use transform="translate(0 0.015625)" xlink:href="#DejaVuSans-32"/>
     <use transform="translate(63.623047 0.015625)" xlink:href="#DejaVuSans-2e"/>
     <use transform="translate(95.410156 0.015625)" xlink:href="#DejaVuSans-39"/>
     <use transform="translate(159.033203 0.015625)" xlink:href="#DejaVuSans-6b"/>
     <use transform="translate(216.943359 0.015625)" xlink:href="#DejaVuSans-3a9"/>
    </g>
   </g>
   <g id="text_6">
    <!-- $33\mu F$ -->
    <defs>
     <path d="M 8.5 -20.796875 
L 8.5 54.6875 
L 17.484375 54.6875 
L 17.484375 20.703125 
Q 17.484375 13.625 20.84375 10 
Q 24.21875 6.390625 30.8125 6.390625 
Q 38.03125 6.390625 41.671875 10.484375 
Q 45.3125 14.59375 45.3125 22.796875 
L 45.3125 54.6875 
L 54.296875 54.6875 
L 54.296875 12.59375 
Q 54.296875 9.671875 55.140625 8.28125 
Q 56 6.890625 57.8125 6.890625 
Q 58.25 6.890625 59.03125 7.15625 
Q 59.8125 7.421875 61.1875 8.015625 
L 61.1875 0.78125 
Q 59.1875 -0.34375 57.390625 -0.875 
Q 55.609375 -1.421875 53.90625 -1.421875 
Q 50.53125 -1.421875 48.53125 0.484375 
Q 46.53125 2.390625 45.796875 6.296875 
Q 43.359375 2.4375 39.8125 0.5 
Q 36.28125 -1.421875 31.5 -1.421875 
Q 26.515625 -1.421875 23.015625 0.484375 
Q 19.53125 2.390625 17.484375 6.203125 
L 17.484375 -20.796875 
z
" id="DejaVuSans-3bc"/>
     <path d="M 9.8125 72.90625 
L 51.703125 72.90625 
L 51.703125 64.59375 
L 19.671875 64.59375 
L 19.671875 43.109375 
L 48.578125 43.109375 
L 48.578125 34.8125 
L 19.671875 34.8125 
L 19.671875 0 
L 9.8125 0 
z
" id="DejaVuSans-46"/>
    </defs>
    <g transform="translate(324.1415 205.4415)scale(0.16 -0.16)">
     <use transform="translate(0 0.78125)" xlink:href="#DejaVuSans-33"/>
     <use transform="translate(63.623047 0.78125)" xlink:href="#DejaVuSans-33"/>
     <use transform="translate(127.246094 0.78125)" xlink:href="#DejaVuSans-3bc"/>
     <use transform="translate(190.869141 0.78125)" xlink:href="#DejaVuSans-46"/>
    </g>
   </g>
   <g id="text_7">
    <!-- 100nF -->
    <defs>
     <path d="M 54.890625 33.015625 
L 54.890625 0 
L 45.90625 0 
L 45.90625 32.71875 
Q 45.90625 40.484375 42.875 44.328125 
Q 39.84375 48.1875 33.796875 48.1875 
Q 26.515625 48.1875 22.3125 43.546875 
Q 18.109375 38.921875 18.109375 30.90625 
L 18.109375 0 
L 9.078125 0 
L 9.078125 54.6875 
L 18.109375 54.6875 
L 18.109375 46.1875 
Q 21.34375 51.125 25.703125 53.5625 
Q 30.078125 56 35.796875 56 
Q 45.21875 56 50.046875 50.171875 
Q 54.890625 44.34375 54.890625 33.015625 
z
" id="DejaVuSans-6e"/>
    </defs>
    <g transform="translate(350.38025 93.2925)scale(0.16 -0.16)">
     <use xlink:href="#DejaVuSans-31"/>
     <use x="63.623047" xlink:href="#DejaVuSans-30"/>
     <use x="127.246094" xlink:href="#DejaVuSans-30"/>
     <use x="190.869141" xlink:href="#DejaVuSans-6e"/>
     <use x="254.248047" xlink:href="#DejaVuSans-46"/>
    </g>
   </g>
   <g id="text_8">
    <!-- $100k\Omega$ -->
    <g transform="translate(376.6215 172.087)scale(0.16 -0.16)">
     <use transform="translate(0 0.015625)" xlink:href="#DejaVuSans-31"/>
     <use transform="translate(63.623047 0.015625)" xlink:href="#DejaVuSans-30"/>
     <use transform="translate(127.246094 0.015625)" xlink:href="#DejaVuSans-30"/>
     <use transform="translate(190.869141 0.015625)" xlink:href="#DejaVuSans-6b"/>
     <use transform="translate(248.779297 0.015625)" xlink:href="#DejaVuSans-3a9"/>
    </g>
   </g>
   <g id="text_9">
    <!-- $V_O$ -->
    <defs>
     <path d="M 39.40625 66.21875 
Q 28.65625 66.21875 22.328125 58.203125 
Q 16.015625 50.203125 16.015625 36.375 
Q 16.015625 22.609375 22.328125 14.59375 
Q 28.65625 6.59375 39.40625 6.59375 
Q 50.140625 6.59375 56.421875 14.59375 
Q 62.703125 22.609375 62.703125 36.375 
Q 62.703125 50.203125 56.421875 58.203125 
Q 50.140625 66.21875 39.40625 66.21875 
z
M 39.40625 74.21875 
Q 54.734375 74.21875 63.90625 63.9375 
Q 73.09375 53.65625 73.09375 36.375 
Q 73.09375 19.140625 63.90625 8.859375 
Q 54.734375 -1.421875 39.40625 -1.421875 
Q 24.03125 -1.421875 14.8125 8.828125 
Q 5.609375 19.09375 5.609375 36.375 
Q 5.609375 53.65625 14.8125 63.9375 
Q 24.03125 74.21875 39.40625 74.21875 
z
" id="DejaVuSans-4f"/>
    </defs>
    <g transform="translate(446.0815 98.175)scale(0.16 -0.16)">
     <use transform="translate(0 0.09375)" xlink:href="#DejaVuSans-56"/>
     <use transform="translate(69.365234 -16.3125)scale(0.7)" xlink:href="#DejaVuSans-4f"/>
    </g>
   </g>
   <g id="text_10">
    <!-- $56k\Omega$ -->
    <defs>
     <path d="M 10.796875 72.90625 
L 49.515625 72.90625 
L 49.515625 64.59375 
L 19.828125 64.59375 
L 19.828125 46.734375 
Q 21.96875 47.46875 24.109375 47.828125 
Q 26.265625 48.1875 28.421875 48.1875 
Q 40.625 48.1875 47.75 41.5 
Q 54.890625 34.8125 54.890625 23.390625 
Q 54.890625 11.625 47.5625 5.09375 
Q 40.234375 -1.421875 26.90625 -1.421875 
Q 22.3125 -1.421875 17.546875 -0.640625 
Q 12.796875 0.140625 7.71875 1.703125 
L 7.71875 11.625 
Q 12.109375 9.234375 16.796875 8.0625 
Q 21.484375 6.890625 26.703125 6.890625 
Q 35.15625 6.890625 40.078125 11.328125 
Q 45.015625 15.765625 45.015625 23.390625 
Q 45.015625 31 40.078125 35.4375 
Q 35.15625 39.890625 26.703125 39.890625 
Q 22.75 39.890625 18.8125 39.015625 
Q 14.890625 38.140625 10.796875 36.28125 
z
" id="DejaVuSans-35"/>
    </defs>
    <g transform="translate(127.6615 92.6185)scale(0.16 -0.16)">
     <use transform="translate(0 0.015625)" xlink:href="#DejaVuSans-35"/>
     <use transform="translate(63.623047 0.015625)" xlink:href="#DejaVuSans-36"/>
     <use transform="translate(127.246094 0.015625)" xlink:href="#DejaVuSans-6b"/>
     <use transform="translate(185.15625 0.015625)" xlink:href="#DejaVuSans-3a9"/>
    </g>
   </g>
   <g id="text_11">
    <!-- $33k\Omega$ -->
    <g transform="translate(127.6615 188.7805)scale(0.16 -0.16)">
     <use transform="translate(0 0.015625)" xlink:href="#DejaVuSans-33"/>
     <use transform="translate(63.623047 0.015625)" xlink:href="#DejaVuSans-33"/>
     <use transform="translate(127.246094 0.015625)" xlink:href="#DejaVuSans-6b"/>
     <use transform="translate(185.15625 0.015625)" xlink:href="#DejaVuSans-3a9"/>
    </g>
   </g>
   <g id="text_12">
    <!-- 100nF -->
    <g transform="translate(123.58025 126.6795)scale(0.16 -0.16)">
     <use xlink:href="#DejaVuSans-31"/>
     <use x="63.623047" xlink:href="#DejaVuSans-30"/>
     <use x="127.246094" xlink:href="#DejaVuSans-30"/>
     <use x="190.869141" xlink:href="#DejaVuSans-6e"/>
     <use x="254.248047" xlink:href="#DejaVuSans-46"/>
    </g>
   </g>
   <g id="text_13">
    <!-- $1.14k\Omega$ -->
    <g transform="translate(55.1615 126.6795)scale(0.16 -0.16)">
     <use transform="translate(0 0.015625)" xlink:href="#DejaVuSans-31"/>
     <use transform="translate(63.623047 0.015625)" xlink:href="#DejaVuSans-2e"/>
     <use transform="translate(95.410156 0.015625)" xlink:href="#DejaVuSans-31"/>
     <use transform="translate(159.033203 0.015625)" xlink:href="#DejaVuSans-34"/>
     <use transform="translate(222.65625 0.015625)" xlink:href="#DejaVuSans-6b"/>
     <use transform="translate(280.566406 0.015625)" xlink:href="#DejaVuSans-3a9"/>
    </g>
   </g>
   <g id="text_14">
    <!-- $V_s$ -->
    <defs>
     <path d="M 44.28125 53.078125 
L 44.28125 44.578125 
Q 40.484375 46.53125 36.375 47.5 
Q 32.28125 48.484375 27.875 48.484375 
Q 21.1875 48.484375 17.84375 46.4375 
Q 14.5 44.390625 14.5 40.28125 
Q 14.5 37.15625 16.890625 35.375 
Q 19.28125 33.59375 26.515625 31.984375 
L 29.59375 31.296875 
Q 39.15625 29.25 43.1875 25.515625 
Q 47.21875 21.78125 47.21875 15.09375 
Q 47.21875 7.46875 41.1875 3.015625 
Q 35.15625 -1.421875 24.609375 -1.421875 
Q 20.21875 -1.421875 15.453125 -0.5625 
Q 10.6875 0.296875 5.421875 2 
L 5.421875 11.28125 
Q 10.40625 8.6875 15.234375 7.390625 
Q 20.0625 6.109375 24.8125 6.109375 
Q 31.15625 6.109375 34.5625 8.28125 
Q 37.984375 10.453125 37.984375 14.40625 
Q 37.984375 18.0625 35.515625 20.015625 
Q 33.0625 21.96875 24.703125 23.78125 
L 21.578125 24.515625 
Q 13.234375 26.265625 9.515625 29.90625 
Q 5.8125 33.546875 5.8125 39.890625 
Q 5.8125 47.609375 11.28125 51.796875 
Q 16.75 56 26.8125 56 
Q 31.78125 56 36.171875 55.265625 
Q 40.578125 54.546875 44.28125 53.078125 
z
" id="DejaVuSans-73"/>
    </defs>
    <g transform="translate(14.4415 188.7805)scale(0.16 -0.16)">
     <use transform="translate(0 0.09375)" xlink:href="#DejaVuSans-56"/>
     <use transform="translate(69.365234 -16.3125)scale(0.7)" xlink:href="#DejaVuSans-73"/>
    </g>
   </g>
  </g>
 </g>
 <defs>
  <clipPath id="pdce5827ae4">
   <rect height="249.054" width="472.473" x="10.7" y="11.618"/>
  </clipPath>
 </defs>
</svg>
