<?xml version="1.0" encoding="utf-8" standalone="no"?>
<!DOCTYPE svg PUBLIC "-//W3C//DTD SVG 1.1//EN"
  "http://www.w3.org/Graphics/SVG/1.1/DTD/svg11.dtd">
<!-- Created with matplotlib (http://matplotlib.org/) -->
<svg height="159.89755pt" version="1.1" viewBox="0 0 828.889 159.89755" width="828.889pt" xmlns="http://www.w3.org/2000/svg" xmlns:xlink="http://www.w3.org/1999/xlink">
 <defs>
  <style type="text/css">
*{stroke-linecap:butt;stroke-linejoin:round;}
  </style>
 </defs>
 <g id="figure_1">
  <g id="patch_1">
   <path d="M 0 159.89755 
L 828.889 159.89755 
L 828.889 -0 
L 0 -0 
z
" style="fill:none;"/>
  </g>
  <g id="axes_1">
   <g id="patch_2">
    <path clip-path="url(#pc1af6b34dd)" d="M 557.4095 88.25 
L 555.7895 82.67 
L 557.3933 82.67 
L 557.3933 74.3 
L 557.4257 74.3 
L 557.4257 82.67 
L 559.0295 82.67 
z
" style="stroke:#000000;stroke-linejoin:miter;stroke-width:1.5;"/>
   </g>
   <g id="patch_3">
    <path clip-path="url(#pc1af6b34dd)" d="M 670.8095 28.265 
L 680.5295 25.475 
L 680.5295 28.25105 
L 735.6095 28.25105 
L 735.6095 28.27895 
L 680.5295 28.27895 
L 680.5295 31.055 
z
" style="stroke:#000000;stroke-linejoin:miter;stroke-width:1.5;"/>
   </g>
   <g id="patch_4">
    <path clip-path="url(#pc1af6b34dd)" d="M 235.0295 28.265 
L 225.3095 31.055 
L 225.3095 28.27895 
L 170.2295 28.27895 
L 170.2295 28.25105 
L 225.3095 28.25105 
L 225.3095 25.475 
z
" style="stroke:#000000;stroke-linejoin:miter;stroke-width:1.5;"/>
   </g>
   <g id="line2d_1">
    <path clip-path="url(#pc1af6b34dd)" d="M 66.5495 123.125 
L 66.5495 134.285 
L 58.4495 134.285 
L 74.6495 134.285 
M 60.8795 137.633 
L 72.2195 137.633 
M 64.9295 140.981 
L 68.1695 140.981 
" style="fill:none;stroke:#000000;stroke-linecap:round;stroke-width:1.5;"/>
   </g>
   <g id="line2d_2">
    <path clip-path="url(#pc1af6b34dd)" d="M 66.5495 123.125 
L 66.5495 95.225 
L 66.5495 95.225 
M 66.5495 67.325 
L 66.5495 67.325 
L 66.5495 39.425 
" style="fill:none;stroke:#000000;stroke-linecap:round;stroke-width:1.5;"/>
   </g>
   <g id="line2d_3">
    <path clip-path="url(#pc1af6b34dd)" d="M 69.7895 88.25 
L 63.3095 88.25 
" style="fill:none;stroke:#000000;stroke-linecap:round;stroke-width:1.5;"/>
   </g>
   <g id="line2d_4">
    <path clip-path="url(#pc1af6b34dd)" d="M 66.5495 77.09 
L 66.5495 71.51 
" style="fill:none;stroke:#000000;stroke-linecap:round;stroke-width:1.5;"/>
   </g>
   <g id="line2d_5">
    <path clip-path="url(#pc1af6b34dd)" d="M 69.7895 74.3 
L 63.3095 74.3 
" style="fill:none;stroke:#000000;stroke-linecap:round;stroke-width:1.5;"/>
   </g>
   <g id="line2d_6">
    <path clip-path="url(#pc1af6b34dd)" d="M 66.5495 39.425 
L 98.9495 39.425 
L 101.6495 32.45 
L 107.0495 46.4 
L 112.4495 32.45 
L 117.8495 46.4 
L 123.2495 32.45 
L 128.6495 46.4 
L 131.3495 39.425 
L 163.7495 39.425 
" style="fill:none;stroke:#000000;stroke-linecap:round;stroke-width:1.5;"/>
   </g>
   <g id="line2d_7">
    <path clip-path="url(#pc1af6b34dd)" d="M 163.7495 39.425 
L 202.6295 39.425 
L 241.5095 39.425 
" style="fill:none;stroke:#000000;stroke-linecap:round;stroke-width:1.5;"/>
   </g>
   <g id="line2d_8">
    <path clip-path="url(#pc1af6b34dd)" d="M 241.5095 39.425 
" style="fill:none;stroke:#000000;stroke-linecap:round;stroke-width:1.5;"/>
   </g>
   <g id="line2d_9">
    <path clip-path="url(#pc1af6b34dd)" d="M 241.5095 39.425 
L 241.5095 67.325 
L 249.6095 69.65 
L 233.4095 74.3 
L 249.6095 78.95 
L 233.4095 83.6 
L 249.6095 88.25 
L 233.4095 92.9 
L 241.5095 95.225 
L 241.5095 123.125 
" style="fill:none;stroke:#000000;stroke-linecap:round;stroke-width:1.5;"/>
   </g>
   <g id="line2d_10">
    <path clip-path="url(#pc1af6b34dd)" d="M 241.5095 123.125 
L 241.5095 134.285 
L 233.4095 134.285 
L 249.6095 134.285 
M 235.8395 137.633 
L 247.1795 137.633 
M 239.8895 140.981 
L 243.1295 140.981 
" style="fill:none;stroke:#000000;stroke-linecap:round;stroke-width:1.5;"/>
   </g>
   <g id="line2d_11">
    <path clip-path="url(#pc1af6b34dd)" d="M 241.5095 39.425 
L 290.1095 39.425 
L 338.7095 39.425 
" style="fill:none;stroke:#000000;stroke-linecap:round;stroke-width:1.5;"/>
   </g>
   <g id="line2d_12">
    <path clip-path="url(#pc1af6b34dd)" d="M 338.7095 39.425 
" style="fill:none;stroke:#000000;stroke-linecap:round;stroke-width:1.5;"/>
   </g>
   <g id="line2d_13">
    <path clip-path="url(#pc1af6b34dd)" d="M 338.7095 39.425 
L 338.7095 67.325 
L 346.8095 69.65 
L 330.6095 74.3 
L 346.8095 78.95 
L 330.6095 83.6 
L 346.8095 88.25 
L 330.6095 92.9 
L 338.7095 95.225 
L 338.7095 123.125 
" style="fill:none;stroke:#000000;stroke-linecap:round;stroke-width:1.5;"/>
   </g>
   <g id="line2d_14">
    <path clip-path="url(#pc1af6b34dd)" d="M 338.7095 123.125 
L 338.7095 134.285 
L 330.6095 134.285 
L 346.8095 134.285 
M 333.0395 137.633 
L 344.3795 137.633 
M 337.0895 140.981 
L 340.3295 140.981 
" style="fill:none;stroke:#000000;stroke-linecap:round;stroke-width:1.5;"/>
   </g>
   <g id="line2d_15">
    <path clip-path="url(#pc1af6b34dd)" d="M 338.7095 39.425 
L 387.3095 39.425 
L 435.9095 39.425 
" style="fill:none;stroke:#000000;stroke-linecap:round;stroke-width:1.5;"/>
   </g>
   <g id="line2d_16">
    <path clip-path="url(#pc1af6b34dd)" d="M 435.9095 39.425 
" style="fill:none;stroke:#000000;stroke-linecap:round;stroke-width:1.5;"/>
   </g>
   <g id="line2d_17">
    <path clip-path="url(#pc1af6b34dd)" d="M 435.9095 39.425 
L 435.9095 67.325 
L 444.0095 69.65 
L 427.8095 74.3 
L 444.0095 78.95 
L 427.8095 83.6 
L 444.0095 88.25 
L 427.8095 92.9 
L 435.9095 95.225 
L 435.9095 123.125 
" style="fill:none;stroke:#000000;stroke-linecap:round;stroke-width:1.5;"/>
   </g>
   <g id="line2d_18">
    <path clip-path="url(#pc1af6b34dd)" d="M 435.9095 123.125 
L 435.9095 134.285 
L 427.8095 134.285 
L 444.0095 134.285 
M 430.2395 137.633 
L 441.5795 137.633 
M 434.2895 140.981 
L 437.5295 140.981 
" style="fill:none;stroke:#000000;stroke-linecap:round;stroke-width:1.5;"/>
   </g>
   <g id="line2d_19">
    <path clip-path="url(#pc1af6b34dd)" d="M 557.4095 123.125 
L 557.4095 134.285 
L 549.3095 134.285 
L 565.5095 134.285 
M 551.7395 137.633 
L 563.0795 137.633 
M 555.7895 140.981 
L 559.0295 140.981 
" style="fill:none;stroke:#000000;stroke-linecap:round;stroke-width:1.5;"/>
   </g>
   <g id="line2d_20">
    <path clip-path="url(#pc1af6b34dd)" d="M 557.4095 123.125 
L 557.4095 95.225 
L 573.6095 81.275 
L 557.4095 67.325 
L 557.4095 39.425 
" style="fill:none;stroke:#000000;stroke-linecap:round;stroke-width:1.5;"/>
   </g>
   <g id="line2d_21">
    <path clip-path="url(#pc1af6b34dd)" d="M 557.4095 95.225 
L 541.2095 81.275 
L 557.4095 67.325 
" style="fill:none;stroke:#000000;stroke-linecap:round;stroke-width:1.5;"/>
   </g>
   <g id="line2d_22">
    <path clip-path="url(#pc1af6b34dd)" d="M 557.4095 39.425 
" style="fill:none;stroke:#000000;stroke-linecap:round;stroke-width:1.5;"/>
   </g>
   <g id="line2d_23">
    <path clip-path="url(#pc1af6b34dd)" d="M 557.4095 39.425 
L 606.0095 39.425 
L 654.6095 39.425 
" style="fill:none;stroke:#000000;stroke-linecap:round;stroke-width:1.5;"/>
   </g>
   <g id="line2d_24">
    <path clip-path="url(#pc1af6b34dd)" d="M 654.6095 39.425 
" style="fill:none;stroke:#000000;stroke-linecap:round;stroke-width:1.5;"/>
   </g>
   <g id="line2d_25">
    <path clip-path="url(#pc1af6b34dd)" d="M 654.6095 39.425 
L 654.6095 67.325 
L 662.7095 69.65 
L 646.5095 74.3 
L 662.7095 78.95 
L 646.5095 83.6 
L 662.7095 88.25 
L 646.5095 92.9 
L 654.6095 95.225 
L 654.6095 123.125 
" style="fill:none;stroke:#000000;stroke-linecap:round;stroke-width:1.5;"/>
   </g>
   <g id="line2d_26">
    <path clip-path="url(#pc1af6b34dd)" d="M 654.6095 123.125 
L 654.6095 134.285 
L 646.5095 134.285 
L 662.7095 134.285 
M 648.9395 137.633 
L 660.2795 137.633 
M 652.9895 140.981 
L 656.2295 140.981 
" style="fill:none;stroke:#000000;stroke-linecap:round;stroke-width:1.5;"/>
   </g>
   <g id="line2d_27">
    <path clip-path="url(#pc1af6b34dd)" d="M 654.6095 39.425 
L 703.2095 39.425 
L 751.8095 39.425 
" style="fill:none;stroke:#000000;stroke-linecap:round;stroke-width:1.5;"/>
   </g>
   <g id="line2d_28">
    <path clip-path="url(#pc1af6b34dd)" d="M 751.8095 39.425 
" style="fill:none;stroke:#000000;stroke-linecap:round;stroke-width:1.5;"/>
   </g>
   <g id="line2d_29">
    <path clip-path="url(#pc1af6b34dd)" d="M 751.8095 39.425 
L 751.8095 67.325 
L 759.9095 69.65 
L 743.7095 74.3 
L 759.9095 78.95 
L 743.7095 83.6 
L 759.9095 88.25 
L 743.7095 92.9 
L 751.8095 95.225 
L 751.8095 123.125 
" style="fill:none;stroke:#000000;stroke-linecap:round;stroke-width:1.5;"/>
   </g>
   <g id="line2d_30">
    <path clip-path="url(#pc1af6b34dd)" d="M 751.8095 123.125 
L 751.8095 134.285 
L 743.7095 134.285 
L 759.9095 134.285 
M 746.1395 137.633 
L 757.4795 137.633 
M 750.1895 140.981 
L 753.4295 140.981 
" style="fill:none;stroke:#000000;stroke-linecap:round;stroke-width:1.5;"/>
   </g>
   <g id="line2d_31">
    <path clip-path="url(#pc1af6b34dd)" d="M 751.8095 39.425 
L 763.9595 39.425 
L 776.1095 39.425 
" style="fill:none;stroke:#000000;stroke-linecap:round;stroke-width:1.5;"/>
   </g>
   <g id="line2d_32">
    <path clip-path="url(#pc1af6b34dd)" d="M 776.1095 39.425 
" style="fill:none;stroke:#000000;stroke-linecap:round;stroke-width:1.5;"/>
   </g>
   <g id="patch_5">
    <path clip-path="url(#pc1af6b34dd)" d="M 66.5495 95.225 
C 70.84579 95.225 74.966694 93.75514 78.00463 91.13914 
C 81.042566 88.523139 82.7495 84.974583 82.7495 81.275 
C 82.7495 77.575417 81.042566 74.026861 78.00463 71.41086 
C 74.966694 68.79486 70.84579 67.325 66.5495 67.325 
C 62.25321 67.325 58.132306 68.79486 55.09437 71.41086 
C 52.056434 74.026861 50.3495 77.575417 50.3495 81.275 
C 50.3495 84.974583 52.056434 88.523139 55.09437 91.13914 
C 58.132306 93.75514 62.25321 95.225 66.5495 95.225 
z
" style="fill:none;stroke:#000000;stroke-linejoin:miter;stroke-width:1.5;"/>
   </g>
   <g id="patch_6">
    <path clip-path="url(#pc1af6b34dd)" d="M 241.5095 41.5175 
C 242.153944 41.5175 242.772079 41.297021 243.227769 40.904621 
C 243.68346 40.512221 243.9395 39.979937 243.9395 39.425 
C 243.9395 38.870063 243.68346 38.337779 243.227769 37.945379 
C 242.772079 37.552979 242.153944 37.3325 241.5095 37.3325 
C 240.865056 37.3325 240.246921 37.552979 239.791231 37.945379 
C 239.33554 38.337779 239.0795 38.870063 239.0795 39.425 
C 239.0795 39.979937 239.33554 40.512221 239.791231 40.904621 
C 240.246921 41.297021 240.865056 41.5175 241.5095 41.5175 
z
" style="stroke:#000000;stroke-linejoin:miter;stroke-width:1.5;"/>
   </g>
   <g id="patch_7">
    <path clip-path="url(#pc1af6b34dd)" d="M 338.7095 41.5175 
C 339.353944 41.5175 339.972079 41.297021 340.427769 40.904621 
C 340.88346 40.512221 341.1395 39.979937 341.1395 39.425 
C 341.1395 38.870063 340.88346 38.337779 340.427769 37.945379 
C 339.972079 37.552979 339.353944 37.3325 338.7095 37.3325 
C 338.065056 37.3325 337.446921 37.552979 336.991231 37.945379 
C 336.53554 38.337779 336.2795 38.870063 336.2795 39.425 
C 336.2795 39.979937 336.53554 40.512221 336.991231 40.904621 
C 337.446921 41.297021 338.065056 41.5175 338.7095 41.5175 
z
" style="stroke:#000000;stroke-linejoin:miter;stroke-width:1.5;"/>
   </g>
   <g id="patch_8">
    <path clip-path="url(#pc1af6b34dd)" d="M 435.9095 41.5175 
C 436.553944 41.5175 437.172079 41.297021 437.627769 40.904621 
C 438.08346 40.512221 438.3395 39.979937 438.3395 39.425 
C 438.3395 38.870063 438.08346 38.337779 437.627769 37.945379 
C 437.172079 37.552979 436.553944 37.3325 435.9095 37.3325 
C 435.265056 37.3325 434.646921 37.552979 434.191231 37.945379 
C 433.73554 38.337779 433.4795 38.870063 433.4795 39.425 
C 433.4795 39.979937 433.73554 40.512221 434.191231 40.904621 
C 434.646921 41.297021 435.265056 41.5175 435.9095 41.5175 
z
" style="stroke:#000000;stroke-linejoin:miter;stroke-width:1.5;"/>
   </g>
   <g id="patch_9">
    <path clip-path="url(#pc1af6b34dd)" d="M 557.4095 41.5175 
C 558.053944 41.5175 558.672079 41.297021 559.127769 40.904621 
C 559.58346 40.512221 559.8395 39.979937 559.8395 39.425 
C 559.8395 38.870063 559.58346 38.337779 559.127769 37.945379 
C 558.672079 37.552979 558.053944 37.3325 557.4095 37.3325 
C 556.765056 37.3325 556.146921 37.552979 555.691231 37.945379 
C 555.23554 38.337779 554.9795 38.870063 554.9795 39.425 
C 554.9795 39.979937 555.23554 40.512221 555.691231 40.904621 
C 556.146921 41.297021 556.765056 41.5175 557.4095 41.5175 
z
" style="stroke:#000000;stroke-linejoin:miter;stroke-width:1.5;"/>
   </g>
   <g id="patch_10">
    <path clip-path="url(#pc1af6b34dd)" d="M 654.6095 41.5175 
C 655.253944 41.5175 655.872079 41.297021 656.327769 40.904621 
C 656.78346 40.512221 657.0395 39.979937 657.0395 39.425 
C 657.0395 38.870063 656.78346 38.337779 656.327769 37.945379 
C 655.872079 37.552979 655.253944 37.3325 654.6095 37.3325 
C 653.965056 37.3325 653.346921 37.552979 652.891231 37.945379 
C 652.43554 38.337779 652.1795 38.870063 652.1795 39.425 
C 652.1795 39.979937 652.43554 40.512221 652.891231 40.904621 
C 653.346921 41.297021 653.965056 41.5175 654.6095 41.5175 
z
" style="stroke:#000000;stroke-linejoin:miter;stroke-width:1.5;"/>
   </g>
   <g id="patch_11">
    <path clip-path="url(#pc1af6b34dd)" d="M 751.8095 41.5175 
C 752.453944 41.5175 753.072079 41.297021 753.527769 40.904621 
C 753.98346 40.512221 754.2395 39.979937 754.2395 39.425 
C 754.2395 38.870063 753.98346 38.337779 753.527769 37.945379 
C 753.072079 37.552979 752.453944 37.3325 751.8095 37.3325 
C 751.165056 37.3325 750.546921 37.552979 750.091231 37.945379 
C 749.63554 38.337779 749.3795 38.870063 749.3795 39.425 
C 749.3795 39.979937 749.63554 40.512221 750.091231 40.904621 
C 750.546921 41.297021 751.165056 41.5175 751.8095 41.5175 
z
" style="stroke:#000000;stroke-linejoin:miter;stroke-width:1.5;"/>
   </g>
   <g id="patch_12">
    <path clip-path="url(#pc1af6b34dd)" d="M 776.1095 41.5175 
C 776.753944 41.5175 777.372079 41.297021 777.827769 40.904621 
C 778.28346 40.512221 778.5395 39.979937 778.5395 39.425 
C 778.5395 38.870063 778.28346 38.337779 777.827769 37.945379 
C 777.372079 37.552979 776.753944 37.3325 776.1095 37.3325 
C 775.465056 37.3325 774.846921 37.552979 774.391231 37.945379 
C 773.93554 38.337779 773.6795 38.870063 773.6795 39.425 
C 773.6795 39.979937 773.93554 40.512221 774.391231 40.904621 
C 774.846921 41.297021 775.465056 41.5175 776.1095 41.5175 
z
" style="fill:#ffffff;stroke:#000000;stroke-linejoin:miter;stroke-width:1.5;"/>
   </g>
   <g id="text_1">
    <!-- $V_s$ -->
    <defs>
     <path d="M 28.609375 0 
L 0.78125 72.90625 
L 11.078125 72.90625 
L 34.1875 11.53125 
L 57.328125 72.90625 
L 67.578125 72.90625 
L 39.796875 0 
z
" id="DejaVuSans-56"/>
     <path d="M 44.28125 53.078125 
L 44.28125 44.578125 
Q 40.484375 46.53125 36.375 47.5 
Q 32.28125 48.484375 27.875 48.484375 
Q 21.1875 48.484375 17.84375 46.4375 
Q 14.5 44.390625 14.5 40.28125 
Q 14.5 37.15625 16.890625 35.375 
Q 19.28125 33.59375 26.515625 31.984375 
L 29.59375 31.296875 
Q 39.15625 29.25 43.1875 25.515625 
Q 47.21875 21.78125 47.21875 15.09375 
Q 47.21875 7.46875 41.1875 3.015625 
Q 35.15625 -1.421875 24.609375 -1.421875 
Q 20.21875 -1.421875 15.453125 -0.5625 
Q 10.6875 0.296875 5.421875 2 
L 5.421875 11.28125 
Q 10.40625 8.6875 15.234375 7.390625 
Q 20.0625 6.109375 24.8125 6.109375 
Q 31.15625 6.109375 34.5625 8.28125 
Q 37.984375 10.453125 37.984375 14.40625 
Q 37.984375 18.0625 35.515625 20.015625 
Q 33.0625 21.96875 24.703125 23.78125 
L 21.578125 24.515625 
Q 13.234375 26.265625 9.515625 29.90625 
Q 5.8125 33.546875 5.8125 39.890625 
Q 5.8125 47.609375 11.28125 51.796875 
Q 16.75 56 26.8125 56 
Q 31.78125 56 36.171875 55.265625 
Q 40.578125 54.546875 44.28125 53.078125 
z
" id="DejaVuSans-73"/>
    </defs>
    <g transform="translate(29.6695 85.69)scale(0.16 -0.16)">
     <use transform="translate(0 0.09375)" xlink:href="#DejaVuSans-56"/>
     <use transform="translate(69.365234 -16.3125)scale(0.7)" xlink:href="#DejaVuSans-73"/>
    </g>
   </g>
   <g id="text_2">
    <!-- $R_s$ -->
    <defs>
     <path d="M 44.390625 34.1875 
Q 47.5625 33.109375 50.5625 29.59375 
Q 53.5625 26.078125 56.59375 19.921875 
L 66.609375 0 
L 56 0 
L 46.6875 18.703125 
Q 43.0625 26.03125 39.671875 28.421875 
Q 36.28125 30.8125 30.421875 30.8125 
L 19.671875 30.8125 
L 19.671875 0 
L 9.8125 0 
L 9.8125 72.90625 
L 32.078125 72.90625 
Q 44.578125 72.90625 50.734375 67.671875 
Q 56.890625 62.453125 56.890625 51.90625 
Q 56.890625 45.015625 53.6875 40.46875 
Q 50.484375 35.9375 44.390625 34.1875 
z
M 19.671875 64.796875 
L 19.671875 38.921875 
L 32.078125 38.921875 
Q 39.203125 38.921875 42.84375 42.21875 
Q 46.484375 45.515625 46.484375 51.90625 
Q 46.484375 58.296875 42.84375 61.546875 
Q 39.203125 64.796875 32.078125 64.796875 
z
" id="DejaVuSans-52"/>
    </defs>
    <g transform="translate(106.3495 26.3325)scale(0.16 -0.16)">
     <use transform="translate(0 0.09375)" xlink:href="#DejaVuSans-52"/>
     <use transform="translate(70.439453 -16.3125)scale(0.7)" xlink:href="#DejaVuSans-73"/>
    </g>
   </g>
   <g id="text_3">
    <!-- $1.14k\Omega$ -->
    <defs>
     <path d="M 12.40625 8.296875 
L 28.515625 8.296875 
L 28.515625 63.921875 
L 10.984375 60.40625 
L 10.984375 69.390625 
L 28.421875 72.90625 
L 38.28125 72.90625 
L 38.28125 8.296875 
L 54.390625 8.296875 
L 54.390625 0 
L 12.40625 0 
z
" id="DejaVuSans-31"/>
     <path d="M 10.6875 12.40625 
L 21 12.40625 
L 21 0 
L 10.6875 0 
z
" id="DejaVuSans-2e"/>
     <path d="M 37.796875 64.3125 
L 12.890625 25.390625 
L 37.796875 25.390625 
z
M 35.203125 72.90625 
L 47.609375 72.90625 
L 47.609375 25.390625 
L 58.015625 25.390625 
L 58.015625 17.1875 
L 47.609375 17.1875 
L 47.609375 0 
L 37.796875 0 
L 37.796875 17.1875 
L 4.890625 17.1875 
L 4.890625 26.703125 
z
" id="DejaVuSans-34"/>
     <path d="M 9.078125 75.984375 
L 18.109375 75.984375 
L 18.109375 31.109375 
L 44.921875 54.6875 
L 56.390625 54.6875 
L 27.390625 29.109375 
L 57.625 0 
L 45.90625 0 
L 18.109375 26.703125 
L 18.109375 0 
L 9.078125 0 
z
" id="DejaVuSans-6b"/>
     <path d="M 72.609375 8.6875 
L 72.609375 0 
L 43.3125 0 
L 43.3125 8.6875 
Q 51.953125 13.421875 56.78125 21.53125 
Q 61.625 29.640625 61.625 39.5 
Q 61.625 51.21875 55.171875 58.296875 
Q 48.734375 65.375 38.1875 65.375 
Q 27.640625 65.375 21.171875 58.265625 
Q 14.703125 51.171875 14.703125 39.5 
Q 14.703125 29.640625 19.53125 21.53125 
Q 24.421875 13.421875 33.109375 8.6875 
L 33.109375 0 
L 3.8125 0 
L 3.8125 8.6875 
L 19.390625 8.6875 
Q 11.671875 15.484375 8.109375 22.75 
Q 4.59375 30.03125 4.59375 39.015625 
Q 4.59375 54.546875 13.96875 64.15625 
Q 23.296875 73.78125 38.1875 73.78125 
Q 52.984375 73.78125 62.40625 64.15625 
Q 71.78125 54.59375 71.78125 39.5 
Q 71.78125 30.03125 68.3125 22.796875 
Q 64.84375 15.578125 56.984375 8.6875 
z
" id="DejaVuSans-3a9"/>
    </defs>
    <g transform="translate(86.5895 61.3475)scale(0.16 -0.16)">
     <use transform="translate(0 0.015625)" xlink:href="#DejaVuSans-31"/>
     <use transform="translate(63.623047 0.015625)" xlink:href="#DejaVuSans-2e"/>
     <use transform="translate(95.410156 0.015625)" xlink:href="#DejaVuSans-31"/>
     <use transform="translate(159.033203 0.015625)" xlink:href="#DejaVuSans-34"/>
     <use transform="translate(222.65625 0.015625)" xlink:href="#DejaVuSans-6b"/>
     <use transform="translate(280.566406 0.015625)" xlink:href="#DejaVuSans-3a9"/>
    </g>
   </g>
   <g id="text_4">
    <!-- $33k\Omega$ -->
    <defs>
     <path d="M 40.578125 39.3125 
Q 47.65625 37.796875 51.625 33 
Q 55.609375 28.21875 55.609375 21.1875 
Q 55.609375 10.40625 48.1875 4.484375 
Q 40.765625 -1.421875 27.09375 -1.421875 
Q 22.515625 -1.421875 17.65625 -0.515625 
Q 12.796875 0.390625 7.625 2.203125 
L 7.625 11.71875 
Q 11.71875 9.328125 16.59375 8.109375 
Q 21.484375 6.890625 26.8125 6.890625 
Q 36.078125 6.890625 40.9375 10.546875 
Q 45.796875 14.203125 45.796875 21.1875 
Q 45.796875 27.640625 41.28125 31.265625 
Q 36.765625 34.90625 28.71875 34.90625 
L 20.21875 34.90625 
L 20.21875 43.015625 
L 29.109375 43.015625 
Q 36.375 43.015625 40.234375 45.921875 
Q 44.09375 48.828125 44.09375 54.296875 
Q 44.09375 59.90625 40.109375 62.90625 
Q 36.140625 65.921875 28.71875 65.921875 
Q 24.65625 65.921875 20.015625 65.03125 
Q 15.375 64.15625 9.8125 62.3125 
L 9.8125 71.09375 
Q 15.4375 72.65625 20.34375 73.4375 
Q 25.25 74.21875 29.59375 74.21875 
Q 40.828125 74.21875 47.359375 69.109375 
Q 53.90625 64.015625 53.90625 55.328125 
Q 53.90625 49.265625 50.4375 45.09375 
Q 46.96875 40.921875 40.578125 39.3125 
z
" id="DejaVuSans-33"/>
    </defs>
    <g transform="translate(188.2495 85.69)scale(0.16 -0.16)">
     <use transform="translate(0 0.015625)" xlink:href="#DejaVuSans-33"/>
     <use transform="translate(63.623047 0.015625)" xlink:href="#DejaVuSans-33"/>
     <use transform="translate(127.246094 0.015625)" xlink:href="#DejaVuSans-6b"/>
     <use transform="translate(185.15625 0.015625)" xlink:href="#DejaVuSans-3a9"/>
    </g>
   </g>
   <g id="text_5">
    <!-- $56k\Omega$ -->
    <defs>
     <path d="M 10.796875 72.90625 
L 49.515625 72.90625 
L 49.515625 64.59375 
L 19.828125 64.59375 
L 19.828125 46.734375 
Q 21.96875 47.46875 24.109375 47.828125 
Q 26.265625 48.1875 28.421875 48.1875 
Q 40.625 48.1875 47.75 41.5 
Q 54.890625 34.8125 54.890625 23.390625 
Q 54.890625 11.625 47.5625 5.09375 
Q 40.234375 -1.421875 26.90625 -1.421875 
Q 22.3125 -1.421875 17.546875 -0.640625 
Q 12.796875 0.140625 7.71875 1.703125 
L 7.71875 11.625 
Q 12.109375 9.234375 16.796875 8.0625 
Q 21.484375 6.890625 26.703125 6.890625 
Q 35.15625 6.890625 40.078125 11.328125 
Q 45.015625 15.765625 45.015625 23.390625 
Q 45.015625 31 40.078125 35.4375 
Q 35.15625 39.890625 26.703125 39.890625 
Q 22.75 39.890625 18.8125 39.015625 
Q 14.890625 38.140625 10.796875 36.28125 
z
" id="DejaVuSans-35"/>
     <path d="M 33.015625 40.375 
Q 26.375 40.375 22.484375 35.828125 
Q 18.609375 31.296875 18.609375 23.390625 
Q 18.609375 15.53125 22.484375 10.953125 
Q 26.375 6.390625 33.015625 6.390625 
Q 39.65625 6.390625 43.53125 10.953125 
Q 47.40625 15.53125 47.40625 23.390625 
Q 47.40625 31.296875 43.53125 35.828125 
Q 39.65625 40.375 33.015625 40.375 
z
M 52.59375 71.296875 
L 52.59375 62.3125 
Q 48.875 64.0625 45.09375 64.984375 
Q 41.3125 65.921875 37.59375 65.921875 
Q 27.828125 65.921875 22.671875 59.328125 
Q 17.53125 52.734375 16.796875 39.40625 
Q 19.671875 43.65625 24.015625 45.921875 
Q 28.375 48.1875 33.59375 48.1875 
Q 44.578125 48.1875 50.953125 41.515625 
Q 57.328125 34.859375 57.328125 23.390625 
Q 57.328125 12.15625 50.6875 5.359375 
Q 44.046875 -1.421875 33.015625 -1.421875 
Q 20.359375 -1.421875 13.671875 8.265625 
Q 6.984375 17.96875 6.984375 36.375 
Q 6.984375 53.65625 15.1875 63.9375 
Q 23.390625 74.21875 37.203125 74.21875 
Q 40.921875 74.21875 44.703125 73.484375 
Q 48.484375 72.75 52.59375 71.296875 
z
" id="DejaVuSans-36"/>
    </defs>
    <g transform="translate(285.4495 85.69)scale(0.16 -0.16)">
     <use transform="translate(0 0.015625)" xlink:href="#DejaVuSans-35"/>
     <use transform="translate(63.623047 0.015625)" xlink:href="#DejaVuSans-36"/>
     <use transform="translate(127.246094 0.015625)" xlink:href="#DejaVuSans-6b"/>
     <use transform="translate(185.15625 0.015625)" xlink:href="#DejaVuSans-3a9"/>
    </g>
   </g>
   <g id="text_6">
    <!-- $r_\pi$ -->
    <defs>
     <path d="M 41.109375 46.296875 
Q 39.59375 47.171875 37.8125 47.578125 
Q 36.03125 48 33.890625 48 
Q 26.265625 48 22.1875 43.046875 
Q 18.109375 38.09375 18.109375 28.8125 
L 18.109375 0 
L 9.078125 0 
L 9.078125 54.6875 
L 18.109375 54.6875 
L 18.109375 46.1875 
Q 20.953125 51.171875 25.484375 53.578125 
Q 30.03125 56 36.53125 56 
Q 37.453125 56 38.578125 55.875 
Q 39.703125 55.765625 41.0625 55.515625 
z
" id="DejaVuSans-72"/>
     <path d="M 3.609375 54.6875 
L 56 54.6875 
L 56 45.703125 
L 49.125 45.703125 
L 49.125 12.109375 
Q 49.125 8.59375 50.3125 7.046875 
Q 51.515625 5.515625 54.203125 5.515625 
Q 54.9375 5.515625 56 5.640625 
Q 57.078125 5.765625 57.421875 5.8125 
L 57.421875 -0.6875 
Q 55.71875 -1.3125 53.90625 -1.609375 
Q 52.09375 -1.90625 50.296875 -1.90625 
Q 44.4375 -1.90625 42.1875 1.296875 
Q 39.9375 4.5 39.9375 13.09375 
L 39.9375 45.703125 
L 19.78125 45.703125 
L 19.78125 0 
L 10.59375 0 
L 10.59375 45.703125 
L 3.609375 45.703125 
z
" id="DejaVuSans-3c0"/>
    </defs>
    <g transform="translate(410.6495 71.74)scale(0.16 -0.16)">
     <use xlink:href="#DejaVuSans-72"/>
     <use transform="translate(42.070312 -16.40625)scale(0.7)" xlink:href="#DejaVuSans-3c0"/>
    </g>
   </g>
   <g id="text_7">
    <!-- $3.39k\Omega$ -->
    <defs>
     <path d="M 10.984375 1.515625 
L 10.984375 10.5 
Q 14.703125 8.734375 18.5 7.8125 
Q 22.3125 6.890625 25.984375 6.890625 
Q 35.75 6.890625 40.890625 13.453125 
Q 46.046875 20.015625 46.78125 33.40625 
Q 43.953125 29.203125 39.59375 26.953125 
Q 35.25 24.703125 29.984375 24.703125 
Q 19.046875 24.703125 12.671875 31.3125 
Q 6.296875 37.9375 6.296875 49.421875 
Q 6.296875 60.640625 12.9375 67.421875 
Q 19.578125 74.21875 30.609375 74.21875 
Q 43.265625 74.21875 49.921875 64.515625 
Q 56.59375 54.828125 56.59375 36.375 
Q 56.59375 19.140625 48.40625 8.859375 
Q 40.234375 -1.421875 26.421875 -1.421875 
Q 22.703125 -1.421875 18.890625 -0.6875 
Q 15.09375 0.046875 10.984375 1.515625 
z
M 30.609375 32.421875 
Q 37.25 32.421875 41.125 36.953125 
Q 45.015625 41.5 45.015625 49.421875 
Q 45.015625 57.28125 41.125 61.84375 
Q 37.25 66.40625 30.609375 66.40625 
Q 23.96875 66.40625 20.09375 61.84375 
Q 16.21875 57.28125 16.21875 49.421875 
Q 16.21875 41.5 20.09375 36.953125 
Q 23.96875 32.421875 30.609375 32.421875 
z
" id="DejaVuSans-39"/>
    </defs>
    <g transform="translate(367.4495 99.64)scale(0.16 -0.16)">
     <use transform="translate(0 0.015625)" xlink:href="#DejaVuSans-33"/>
     <use transform="translate(63.623047 0.015625)" xlink:href="#DejaVuSans-2e"/>
     <use transform="translate(95.410156 0.015625)" xlink:href="#DejaVuSans-33"/>
     <use transform="translate(159.033203 0.015625)" xlink:href="#DejaVuSans-39"/>
     <use transform="translate(222.65625 0.015625)" xlink:href="#DejaVuSans-6b"/>
     <use transform="translate(280.566406 0.015625)" xlink:href="#DejaVuSans-3a9"/>
    </g>
   </g>
   <g id="text_8">
    <!-- + -->
    <defs>
     <path d="M 46 62.703125 
L 46 35.5 
L 73.1875 35.5 
L 73.1875 27.203125 
L 46 27.203125 
L 46 0 
L 37.796875 0 
L 37.796875 27.203125 
L 10.59375 27.203125 
L 10.59375 35.5 
L 37.796875 35.5 
L 37.796875 62.703125 
z
" id="DejaVuSans-2b"/>
    </defs>
    <g transform="translate(447.2495 64.765)scale(0.16 -0.16)">
     <use xlink:href="#DejaVuSans-2b"/>
    </g>
   </g>
   <g id="text_9">
    <!-- $v_\pi$ -->
    <defs>
     <path d="M 2.984375 54.6875 
L 12.5 54.6875 
L 29.59375 8.796875 
L 46.6875 54.6875 
L 56.203125 54.6875 
L 35.6875 0 
L 23.484375 0 
z
" id="DejaVuSans-76"/>
    </defs>
    <g transform="translate(447.2495 85.69)scale(0.16 -0.16)">
     <use transform="translate(0 0.3125)" xlink:href="#DejaVuSans-76"/>
     <use transform="translate(60.136719 -16.09375)scale(0.7)" xlink:href="#DejaVuSans-3c0"/>
    </g>
   </g>
   <g id="text_10">
    <!-- ‒ -->
    <defs>
     <path d="M 4.890625 30.90625 
L 58.734375 30.90625 
L 58.734375 23.875 
L 4.890625 23.875 
z
" id="DejaVuSans-2012"/>
    </defs>
    <g transform="translate(447.2495 106.615)scale(0.16 -0.16)">
     <use xlink:href="#DejaVuSans-2012"/>
    </g>
   </g>
   <g id="text_11">
    <!-- $g_mv_\pi$ -->
    <defs>
     <path d="M 45.40625 27.984375 
Q 45.40625 37.75 41.375 43.109375 
Q 37.359375 48.484375 30.078125 48.484375 
Q 22.859375 48.484375 18.828125 43.109375 
Q 14.796875 37.75 14.796875 27.984375 
Q 14.796875 18.265625 18.828125 12.890625 
Q 22.859375 7.515625 30.078125 7.515625 
Q 37.359375 7.515625 41.375 12.890625 
Q 45.40625 18.265625 45.40625 27.984375 
z
M 54.390625 6.78125 
Q 54.390625 -7.171875 48.1875 -13.984375 
Q 42 -20.796875 29.203125 -20.796875 
Q 24.46875 -20.796875 20.265625 -20.09375 
Q 16.0625 -19.390625 12.109375 -17.921875 
L 12.109375 -9.1875 
Q 16.0625 -11.328125 19.921875 -12.34375 
Q 23.78125 -13.375 27.78125 -13.375 
Q 36.625 -13.375 41.015625 -8.765625 
Q 45.40625 -4.15625 45.40625 5.171875 
L 45.40625 9.625 
Q 42.625 4.78125 38.28125 2.390625 
Q 33.9375 0 27.875 0 
Q 17.828125 0 11.671875 7.65625 
Q 5.515625 15.328125 5.515625 27.984375 
Q 5.515625 40.671875 11.671875 48.328125 
Q 17.828125 56 27.875 56 
Q 33.9375 56 38.28125 53.609375 
Q 42.625 51.21875 45.40625 46.390625 
L 45.40625 54.6875 
L 54.390625 54.6875 
z
" id="DejaVuSans-67"/>
     <path d="M 52 44.1875 
Q 55.375 50.25 60.0625 53.125 
Q 64.75 56 71.09375 56 
Q 79.640625 56 84.28125 50.015625 
Q 88.921875 44.046875 88.921875 33.015625 
L 88.921875 0 
L 79.890625 0 
L 79.890625 32.71875 
Q 79.890625 40.578125 77.09375 44.375 
Q 74.3125 48.1875 68.609375 48.1875 
Q 61.625 48.1875 57.5625 43.546875 
Q 53.515625 38.921875 53.515625 30.90625 
L 53.515625 0 
L 44.484375 0 
L 44.484375 32.71875 
Q 44.484375 40.625 41.703125 44.40625 
Q 38.921875 48.1875 33.109375 48.1875 
Q 26.21875 48.1875 22.15625 43.53125 
Q 18.109375 38.875 18.109375 30.90625 
L 18.109375 0 
L 9.078125 0 
L 9.078125 54.6875 
L 18.109375 54.6875 
L 18.109375 46.1875 
Q 21.1875 51.21875 25.484375 53.609375 
Q 29.78125 56 35.6875 56 
Q 41.65625 56 45.828125 52.96875 
Q 50 49.953125 52 44.1875 
z
" id="DejaVuSans-6d"/>
    </defs>
    <g transform="translate(499.4095 85.6575)scale(0.16 -0.16)">
     <use xlink:href="#DejaVuSans-67"/>
     <use transform="translate(64.433594 -16.40625)scale(0.7)" xlink:href="#DejaVuSans-6d"/>
     <use transform="translate(135.356445 0)" xlink:href="#DejaVuSans-76"/>
     <use transform="translate(195.493164 -16.40625)scale(0.7)" xlink:href="#DejaVuSans-3c0"/>
    </g>
   </g>
   <g id="text_12">
    <!-- $R_C$ -->
    <defs>
     <path d="M 64.40625 67.28125 
L 64.40625 56.890625 
Q 59.421875 61.53125 53.78125 63.8125 
Q 48.140625 66.109375 41.796875 66.109375 
Q 29.296875 66.109375 22.65625 58.46875 
Q 16.015625 50.828125 16.015625 36.375 
Q 16.015625 21.96875 22.65625 14.328125 
Q 29.296875 6.6875 41.796875 6.6875 
Q 48.140625 6.6875 53.78125 8.984375 
Q 59.421875 11.28125 64.40625 15.921875 
L 64.40625 5.609375 
Q 59.234375 2.09375 53.4375 0.328125 
Q 47.65625 -1.421875 41.21875 -1.421875 
Q 24.65625 -1.421875 15.125 8.703125 
Q 5.609375 18.84375 5.609375 36.375 
Q 5.609375 53.953125 15.125 64.078125 
Q 24.65625 74.21875 41.21875 74.21875 
Q 47.75 74.21875 53.53125 72.484375 
Q 59.328125 70.75 64.40625 67.28125 
z
" id="DejaVuSans-43"/>
    </defs>
    <g transform="translate(623.5895 71.74)scale(0.16 -0.16)">
     <use transform="translate(0 0.09375)" xlink:href="#DejaVuSans-52"/>
     <use transform="translate(70.439453 -16.3125)scale(0.7)" xlink:href="#DejaVuSans-43"/>
    </g>
   </g>
   <g id="text_13">
    <!-- $3.9k\Omega$ -->
    <g transform="translate(596.2295 99.64)scale(0.16 -0.16)">
     <use transform="translate(0 0.015625)" xlink:href="#DejaVuSans-33"/>
     <use transform="translate(63.623047 0.015625)" xlink:href="#DejaVuSans-2e"/>
     <use transform="translate(95.410156 0.015625)" xlink:href="#DejaVuSans-39"/>
     <use transform="translate(159.033203 0.015625)" xlink:href="#DejaVuSans-6b"/>
     <use transform="translate(216.943359 0.015625)" xlink:href="#DejaVuSans-3a9"/>
    </g>
   </g>
   <g id="text_14">
    <!-- $R_L$ -->
    <defs>
     <path d="M 9.8125 72.90625 
L 19.671875 72.90625 
L 19.671875 8.296875 
L 55.171875 8.296875 
L 55.171875 0 
L 9.8125 0 
z
" id="DejaVuSans-4c"/>
    </defs>
    <g transform="translate(722.3895 71.74)scale(0.16 -0.16)">
     <use transform="translate(0 0.09375)" xlink:href="#DejaVuSans-52"/>
     <use transform="translate(70.439453 -16.3125)scale(0.7)" xlink:href="#DejaVuSans-4c"/>
    </g>
   </g>
   <g id="text_15">
    <!-- $100k\Omega$ -->
    <defs>
     <path d="M 31.78125 66.40625 
Q 24.171875 66.40625 20.328125 58.90625 
Q 16.5 51.421875 16.5 36.375 
Q 16.5 21.390625 20.328125 13.890625 
Q 24.171875 6.390625 31.78125 6.390625 
Q 39.453125 6.390625 43.28125 13.890625 
Q 47.125 21.390625 47.125 36.375 
Q 47.125 51.421875 43.28125 58.90625 
Q 39.453125 66.40625 31.78125 66.40625 
z
M 31.78125 74.21875 
Q 44.046875 74.21875 50.515625 64.515625 
Q 56.984375 54.828125 56.984375 36.375 
Q 56.984375 17.96875 50.515625 8.265625 
Q 44.046875 -1.421875 31.78125 -1.421875 
Q 19.53125 -1.421875 13.0625 8.265625 
Q 6.59375 17.96875 6.59375 36.375 
Q 6.59375 54.828125 13.0625 64.515625 
Q 19.53125 74.21875 31.78125 74.21875 
z
" id="DejaVuSans-30"/>
    </defs>
    <g transform="translate(688.3095 99.64)scale(0.16 -0.16)">
     <use transform="translate(0 0.015625)" xlink:href="#DejaVuSans-31"/>
     <use transform="translate(63.623047 0.015625)" xlink:href="#DejaVuSans-30"/>
     <use transform="translate(127.246094 0.015625)" xlink:href="#DejaVuSans-30"/>
     <use transform="translate(190.869141 0.015625)" xlink:href="#DejaVuSans-6b"/>
     <use transform="translate(248.779297 0.015625)" xlink:href="#DejaVuSans-3a9"/>
    </g>
   </g>
   <g id="text_16">
    <!-- $V_O$ -->
    <defs>
     <path d="M 39.40625 66.21875 
Q 28.65625 66.21875 22.328125 58.203125 
Q 16.015625 50.203125 16.015625 36.375 
Q 16.015625 22.609375 22.328125 14.59375 
Q 28.65625 6.59375 39.40625 6.59375 
Q 50.140625 6.59375 56.421875 14.59375 
Q 62.703125 22.609375 62.703125 36.375 
Q 62.703125 50.203125 56.421875 58.203125 
Q 50.140625 66.21875 39.40625 66.21875 
z
M 39.40625 74.21875 
Q 54.734375 74.21875 63.90625 63.9375 
Q 73.09375 53.65625 73.09375 36.375 
Q 73.09375 19.140625 63.90625 8.859375 
Q 54.734375 -1.421875 39.40625 -1.421875 
Q 24.03125 -1.421875 14.8125 8.828125 
Q 5.609375 19.09375 5.609375 36.375 
Q 5.609375 53.65625 14.8125 63.9375 
Q 24.03125 74.21875 39.40625 74.21875 
z
" id="DejaVuSans-4f"/>
    </defs>
    <g transform="translate(765.8695 31.215)scale(0.16 -0.16)">
     <use transform="translate(0 0.09375)" xlink:href="#DejaVuSans-56"/>
     <use transform="translate(69.365234 -16.3125)scale(0.7)" xlink:href="#DejaVuSans-4f"/>
    </g>
   </g>
   <g id="text_17">
    <!-- $R_{out}$ -->
    <defs>
     <path d="M 30.609375 48.390625 
Q 23.390625 48.390625 19.1875 42.75 
Q 14.984375 37.109375 14.984375 27.296875 
Q 14.984375 17.484375 19.15625 11.84375 
Q 23.34375 6.203125 30.609375 6.203125 
Q 37.796875 6.203125 41.984375 11.859375 
Q 46.1875 17.53125 46.1875 27.296875 
Q 46.1875 37.015625 41.984375 42.703125 
Q 37.796875 48.390625 30.609375 48.390625 
z
M 30.609375 56 
Q 42.328125 56 49.015625 48.375 
Q 55.71875 40.765625 55.71875 27.296875 
Q 55.71875 13.875 49.015625 6.21875 
Q 42.328125 -1.421875 30.609375 -1.421875 
Q 18.84375 -1.421875 12.171875 6.21875 
Q 5.515625 13.875 5.515625 27.296875 
Q 5.515625 40.765625 12.171875 48.375 
Q 18.84375 56 30.609375 56 
z
" id="DejaVuSans-6f"/>
     <path d="M 8.5 21.578125 
L 8.5 54.6875 
L 17.484375 54.6875 
L 17.484375 21.921875 
Q 17.484375 14.15625 20.5 10.265625 
Q 23.53125 6.390625 29.59375 6.390625 
Q 36.859375 6.390625 41.078125 11.03125 
Q 45.3125 15.671875 45.3125 23.6875 
L 45.3125 54.6875 
L 54.296875 54.6875 
L 54.296875 0 
L 45.3125 0 
L 45.3125 8.40625 
Q 42.046875 3.421875 37.71875 1 
Q 33.40625 -1.421875 27.6875 -1.421875 
Q 18.265625 -1.421875 13.375 4.4375 
Q 8.5 10.296875 8.5 21.578125 
z
M 31.109375 56 
z
" id="DejaVuSans-75"/>
     <path d="M 18.3125 70.21875 
L 18.3125 54.6875 
L 36.8125 54.6875 
L 36.8125 47.703125 
L 18.3125 47.703125 
L 18.3125 18.015625 
Q 18.3125 11.328125 20.140625 9.421875 
Q 21.96875 7.515625 27.59375 7.515625 
L 36.8125 7.515625 
L 36.8125 0 
L 27.59375 0 
Q 17.1875 0 13.234375 3.875 
Q 9.28125 7.765625 9.28125 18.015625 
L 9.28125 47.703125 
L 2.6875 47.703125 
L 2.6875 54.6875 
L 9.28125 54.6875 
L 9.28125 70.21875 
z
" id="DejaVuSans-74"/>
    </defs>
    <g transform="translate(688.1695 19.3575)scale(0.16 -0.16)">
     <use transform="translate(0 0.09375)" xlink:href="#DejaVuSans-52"/>
     <use transform="translate(70.439453 -16.3125)scale(0.7)" xlink:href="#DejaVuSans-6f"/>
     <use transform="translate(113.266602 -16.3125)scale(0.7)" xlink:href="#DejaVuSans-75"/>
     <use transform="translate(157.631836 -16.3125)scale(0.7)" xlink:href="#DejaVuSans-74"/>
    </g>
   </g>
   <g id="text_18">
    <!-- $R_{in}$ -->
    <defs>
     <path d="M 9.421875 54.6875 
L 18.40625 54.6875 
L 18.40625 0 
L 9.421875 0 
z
M 9.421875 75.984375 
L 18.40625 75.984375 
L 18.40625 64.59375 
L 9.421875 64.59375 
z
" id="DejaVuSans-69"/>
     <path d="M 54.890625 33.015625 
L 54.890625 0 
L 45.90625 0 
L 45.90625 32.71875 
Q 45.90625 40.484375 42.875 44.328125 
Q 39.84375 48.1875 33.796875 48.1875 
Q 26.515625 48.1875 22.3125 43.546875 
Q 18.109375 38.921875 18.109375 30.90625 
L 18.109375 0 
L 9.078125 0 
L 9.078125 54.6875 
L 18.109375 54.6875 
L 18.109375 46.1875 
Q 21.34375 51.125 25.703125 53.5625 
Q 30.078125 56 35.796875 56 
Q 45.21875 56 50.046875 50.171875 
Q 54.890625 44.34375 54.890625 33.015625 
z
" id="DejaVuSans-6e"/>
    </defs>
    <g transform="translate(191.6695 19.3575)scale(0.16 -0.16)">
     <use transform="translate(0 0.09375)" xlink:href="#DejaVuSans-52"/>
     <use transform="translate(70.439453 -16.3125)scale(0.7)" xlink:href="#DejaVuSans-69"/>
     <use transform="translate(89.887695 -16.3125)scale(0.7)" xlink:href="#DejaVuSans-6e"/>
    </g>
   </g>
  </g>
 </g>
 <defs>
  <clipPath id="pc1af6b34dd">
   <rect height="124.9641" width="807.489" x="10.7" y="24.23345"/>
  </clipPath>
 </defs>
</svg>
