<?xml version="1.0" encoding="utf-8" standalone="no"?>
<!DOCTYPE svg PUBLIC "-//W3C//DTD SVG 1.1//EN"
  "http://www.w3.org/Graphics/SVG/1.1/DTD/svg11.dtd">
<!-- Created with matplotlib (http://matplotlib.org/) -->
<svg height="227.4295pt" version="1.1" viewBox="0 0 498.2015 227.4295" width="498.2015pt" xmlns="http://www.w3.org/2000/svg" xmlns:xlink="http://www.w3.org/1999/xlink">
 <defs>
  <style type="text/css">
*{stroke-linecap:butt;stroke-linejoin:round;}
  </style>
 </defs>
 <g id="figure_1">
  <g id="patch_1">
   <path d="M 0 227.4295 
L 498.2015 227.4295 
L 498.2015 0 
L 0 0 
z
" style="fill:none;"/>
  </g>
  <g id="axes_1">
   <g id="patch_2">
    <path clip-path="url(#p7d99d32514)" d="M 260.3015 126.194 
L 253.272953 124.68091 
L 255.370974 122.573176 
L 247.816957 116.997592 
L 247.838043 116.976408 
L 255.39206 122.551993 
L 257.490081 120.444258 
z
" style="stroke:#000000;stroke-linejoin:miter;stroke-width:1.5;"/>
   </g>
   <g id="line2d_1">
    <path clip-path="url(#p7d99d32514)" d="M 247.8275 116.987 
L 260.3015 126.194 
L 260.3015 131.309 
" style="fill:none;stroke:#000000;stroke-linecap:round;stroke-width:1.5;"/>
   </g>
   <g id="line2d_2">
    <path clip-path="url(#p7d99d32514)" d="M 235.9475 111.872 
L 247.8275 111.872 
" style="fill:none;stroke:#000000;stroke-linecap:round;stroke-width:1.5;"/>
   </g>
   <g id="line2d_3">
    <path clip-path="url(#p7d99d32514)" d="M 247.8275 101.642 
L 247.8275 122.102 
" style="fill:none;stroke:#000000;stroke-linecap:round;stroke-width:1.5;"/>
   </g>
   <g id="line2d_4">
    <path clip-path="url(#p7d99d32514)" d="M 247.8275 106.757 
L 260.3015 97.55 
L 260.3015 92.435 
" style="fill:none;stroke:#000000;stroke-linecap:round;stroke-width:1.5;"/>
   </g>
   <g id="line2d_5">
    <path clip-path="url(#p7d99d32514)" d="M 260.3015 92.435 
L 260.3015 78.485 
L 252.2015 76.16 
L 268.4015 71.51 
L 252.2015 66.86 
L 268.4015 62.21 
L 252.2015 57.56 
L 268.4015 52.91 
L 260.3015 50.585 
L 260.3015 36.635 
" style="fill:none;stroke:#000000;stroke-linecap:round;stroke-width:1.5;"/>
   </g>
   <g id="line2d_6">
    <path clip-path="url(#p7d99d32514)" d="M 260.3015 36.635 
L 244.1015 36.635 
L 227.9015 36.635 
" style="fill:none;stroke:#000000;stroke-linecap:round;stroke-width:1.5;"/>
   </g>
   <g id="line2d_7">
    <path clip-path="url(#p7d99d32514)" d="M 227.9015 36.635 
" style="fill:none;stroke:#000000;stroke-linecap:round;stroke-width:1.5;"/>
   </g>
   <g id="line2d_8">
    <path clip-path="url(#p7d99d32514)" d="M 227.9015 25.475 
L 233.9765 25.475 
" style="fill:none;stroke:#000000;stroke-linecap:round;stroke-width:1.5;"/>
   </g>
   <g id="line2d_9">
    <path clip-path="url(#p7d99d32514)" d="M 227.9015 36.635 
L 227.9015 25.475 
" style="fill:none;stroke:#000000;stroke-linecap:round;stroke-width:1.5;"/>
   </g>
   <g id="line2d_10">
    <path clip-path="url(#p7d99d32514)" d="M 227.9015 25.475 
L 221.8265 25.475 
" style="fill:none;stroke:#000000;stroke-linecap:round;stroke-width:1.5;"/>
   </g>
   <g id="line2d_11">
    <path clip-path="url(#p7d99d32514)" d="M 227.9015 36.635 
L 211.7015 36.635 
L 195.5015 36.635 
" style="fill:none;stroke:#000000;stroke-linecap:round;stroke-width:1.5;"/>
   </g>
   <g id="line2d_12">
    <path clip-path="url(#p7d99d32514)" d="M 195.5015 36.635 
L 195.5015 60.3035 
L 203.6015 62.6285 
L 187.4015 67.2785 
L 203.6015 71.9285 
L 187.4015 76.5785 
L 203.6015 81.2285 
L 187.4015 85.8785 
L 195.5015 88.2035 
L 195.5015 111.872 
" style="fill:none;stroke:#000000;stroke-linecap:round;stroke-width:1.5;"/>
   </g>
   <g id="line2d_13">
    <path clip-path="url(#p7d99d32514)" d="M 195.5015 111.872 
" style="fill:none;stroke:#000000;stroke-linecap:round;stroke-width:1.5;"/>
   </g>
   <g id="line2d_14">
    <path clip-path="url(#p7d99d32514)" d="M 195.5015 111.872 
L 215.7245 111.872 
L 235.9475 111.872 
" style="fill:none;stroke:#000000;stroke-linecap:round;stroke-width:1.5;"/>
   </g>
   <g id="line2d_15">
    <path clip-path="url(#p7d99d32514)" d="M 260.3015 131.309 
L 260.3015 145.259 
L 268.4015 147.584 
L 252.2015 152.234 
L 268.4015 156.884 
L 252.2015 161.534 
L 268.4015 166.184 
L 252.2015 170.834 
L 260.3015 173.159 
L 260.3015 187.109 
" style="fill:none;stroke:#000000;stroke-linecap:round;stroke-width:1.5;"/>
   </g>
   <g id="line2d_16">
    <path clip-path="url(#p7d99d32514)" d="M 260.3015 187.109 
L 244.1015 187.109 
L 227.9015 187.109 
" style="fill:none;stroke:#000000;stroke-linecap:round;stroke-width:1.5;"/>
   </g>
   <g id="line2d_17">
    <path clip-path="url(#p7d99d32514)" d="M 227.9015 187.109 
" style="fill:none;stroke:#000000;stroke-linecap:round;stroke-width:1.5;"/>
   </g>
   <g id="line2d_18">
    <path clip-path="url(#p7d99d32514)" d="M 227.9015 187.109 
L 227.9015 198.269 
L 219.8015 198.269 
L 236.0015 198.269 
M 222.2315 201.617 
L 233.5715 201.617 
M 226.2815 204.965 
L 229.5215 204.965 
" style="fill:none;stroke:#000000;stroke-linecap:round;stroke-width:1.5;"/>
   </g>
   <g id="line2d_19">
    <path clip-path="url(#p7d99d32514)" d="M 227.9015 187.109 
L 211.7015 187.109 
L 195.5015 187.109 
" style="fill:none;stroke:#000000;stroke-linecap:round;stroke-width:1.5;"/>
   </g>
   <g id="line2d_20">
    <path clip-path="url(#p7d99d32514)" d="M 195.5015 187.109 
L 195.5015 163.4405 
L 187.4015 161.1155 
L 203.6015 156.4655 
L 187.4015 151.8155 
L 203.6015 147.1655 
L 187.4015 142.5155 
L 203.6015 137.8655 
L 195.5015 135.5405 
L 195.5015 111.872 
" style="fill:none;stroke:#000000;stroke-linecap:round;stroke-width:1.5;"/>
   </g>
   <g id="line2d_21">
    <path clip-path="url(#p7d99d32514)" d="M 260.3015 92.435 
" style="fill:none;stroke:#000000;stroke-linecap:round;stroke-width:1.5;"/>
   </g>
   <g id="line2d_22">
    <path clip-path="url(#p7d99d32514)" d="M 260.3015 92.435 
L 322.1855 92.435 
M 322.1855 85.46 
L 322.1855 99.41 
M 328.0175 85.46 
L 328.0175 99.41 
M 328.0175 92.435 
L 389.9015 92.435 
" style="fill:none;stroke:#000000;stroke-linecap:round;stroke-width:1.5;"/>
   </g>
   <g id="line2d_23">
    <path clip-path="url(#p7d99d32514)" d="M 389.9015 92.435 
" style="fill:none;stroke:#000000;stroke-linecap:round;stroke-width:1.5;"/>
   </g>
   <g id="line2d_24">
    <path clip-path="url(#p7d99d32514)" d="M 389.9015 92.435 
L 389.9015 106.385 
L 398.0015 108.71 
L 381.8015 113.36 
L 398.0015 118.01 
L 381.8015 122.66 
L 398.0015 127.31 
L 381.8015 131.96 
L 389.9015 134.285 
L 389.9015 148.235 
" style="fill:none;stroke:#000000;stroke-linecap:round;stroke-width:1.5;"/>
   </g>
   <g id="line2d_25">
    <path clip-path="url(#p7d99d32514)" d="M 389.9015 148.235 
L 389.9015 159.395 
L 381.8015 159.395 
L 398.0015 159.395 
M 384.2315 162.743 
L 395.5715 162.743 
M 388.2815 166.091 
L 391.5215 166.091 
" style="fill:none;stroke:#000000;stroke-linecap:round;stroke-width:1.5;"/>
   </g>
   <g id="line2d_26">
    <path clip-path="url(#p7d99d32514)" d="M 389.9015 92.435 
L 406.1015 92.435 
L 422.3015 92.435 
" style="fill:none;stroke:#000000;stroke-linecap:round;stroke-width:1.5;"/>
   </g>
   <g id="line2d_27">
    <path clip-path="url(#p7d99d32514)" d="M 422.3015 92.435 
" style="fill:none;stroke:#000000;stroke-linecap:round;stroke-width:1.5;"/>
   </g>
   <g id="line2d_28">
    <path clip-path="url(#p7d99d32514)" d="M 260.3015 131.309 
" style="fill:none;stroke:#000000;stroke-linecap:round;stroke-width:1.5;"/>
   </g>
   <g id="line2d_29">
    <path clip-path="url(#p7d99d32514)" d="M 260.3015 131.309 
L 276.5015 131.309 
L 292.7015 131.309 
" style="fill:none;stroke:#000000;stroke-linecap:round;stroke-width:1.5;"/>
   </g>
   <g id="line2d_30">
    <path clip-path="url(#p7d99d32514)" d="M 292.7015 131.309 
L 292.7015 156.698 
M 300.8015 156.698 
L 284.6015 156.698 
M 300.8015 161.72 
L 284.6015 161.72 
M 292.7015 161.72 
L 292.7015 187.109 
" style="fill:none;stroke:#000000;stroke-linecap:round;stroke-width:1.5;"/>
   </g>
   <g id="line2d_31">
    <path clip-path="url(#p7d99d32514)" d="M 292.7015 187.109 
L 276.5015 187.109 
L 260.3015 187.109 
" style="fill:none;stroke:#000000;stroke-linecap:round;stroke-width:1.5;"/>
   </g>
   <g id="line2d_32">
    <path clip-path="url(#p7d99d32514)" d="M 260.3015 187.109 
" style="fill:none;stroke:#000000;stroke-linecap:round;stroke-width:1.5;"/>
   </g>
   <g id="line2d_33">
    <path clip-path="url(#p7d99d32514)" d="M 195.5015 111.872 
L 166.0175 111.872 
M 166.0175 118.847 
L 166.0175 104.897 
M 160.1855 118.847 
L 160.1855 104.897 
M 160.1855 111.872 
L 130.7015 111.872 
" style="fill:none;stroke:#000000;stroke-linecap:round;stroke-width:1.5;"/>
   </g>
   <g id="line2d_34">
    <path clip-path="url(#p7d99d32514)" d="M 130.7015 111.872 
L 106.4015 111.872 
L 103.7015 118.847 
L 98.3015 104.897 
L 92.9015 118.847 
L 87.5015 104.897 
L 82.1015 118.847 
L 76.7015 104.897 
L 74.0015 111.872 
L 49.7015 111.872 
" style="fill:none;stroke:#000000;stroke-linecap:round;stroke-width:1.5;"/>
   </g>
   <g id="line2d_35">
    <path clip-path="url(#p7d99d32514)" d="M 49.7015 111.872 
L 49.7015 135.5405 
L 49.7015 135.5405 
M 49.7015 163.4405 
L 49.7015 163.4405 
L 49.7015 187.109 
" style="fill:none;stroke:#000000;stroke-linecap:round;stroke-width:1.5;"/>
   </g>
   <g id="line2d_36">
    <path clip-path="url(#p7d99d32514)" d="M 41.6015 149.4905 
L 42.2765 150.93471 
L 42.9515 152.2805 
L 43.6265 153.436156 
L 44.3015 154.322922 
L 44.9765 154.880366 
L 45.6515 155.0705 
L 46.3265 154.880366 
L 47.0015 154.322922 
L 47.6765 153.436156 
L 48.3515 152.2805 
L 49.0265 150.93471 
L 49.7015 149.4905 
L 50.3765 148.04629 
L 51.0515 146.7005 
L 51.7265 145.544844 
L 52.4015 144.658078 
L 53.0765 144.100634 
L 53.7515 143.9105 
L 54.4265 144.100634 
L 55.1015 144.658078 
L 55.7765 145.544844 
L 56.4515 146.7005 
L 57.1265 148.04629 
L 57.8015 149.4905 
" style="fill:none;stroke:#000000;stroke-linecap:round;stroke-width:1.5;"/>
   </g>
   <g id="line2d_37">
    <path clip-path="url(#p7d99d32514)" d="M 49.7015 187.109 
L 122.6015 187.109 
L 195.5015 187.109 
" style="fill:none;stroke:#000000;stroke-linecap:round;stroke-width:1.5;"/>
   </g>
   <g id="line2d_38">
    <path clip-path="url(#p7d99d32514)" d="M 195.5015 187.109 
" style="fill:none;stroke:#000000;stroke-linecap:round;stroke-width:1.5;"/>
   </g>
   <g id="patch_3">
    <path clip-path="url(#p7d99d32514)" d="M 227.9015 38.7275 
C 228.545944 38.7275 229.164079 38.507021 229.619769 38.114621 
C 230.07546 37.722221 230.3315 37.189937 230.3315 36.635 
C 230.3315 36.080063 230.07546 35.547779 229.619769 35.155379 
C 229.164079 34.762979 228.545944 34.5425 227.9015 34.5425 
C 227.257056 34.5425 226.638921 34.762979 226.183231 35.155379 
C 225.72754 35.547779 225.4715 36.080063 225.4715 36.635 
C 225.4715 37.189937 225.72754 37.722221 226.183231 38.114621 
C 226.638921 38.507021 227.257056 38.7275 227.9015 38.7275 
z
" style="stroke:#000000;stroke-linejoin:miter;stroke-width:1.5;"/>
   </g>
   <g id="patch_4">
    <path clip-path="url(#p7d99d32514)" d="M 195.5015 113.9645 
C 196.145944 113.9645 196.764079 113.744021 197.219769 113.351621 
C 197.67546 112.959221 197.9315 112.426937 197.9315 111.872 
C 197.9315 111.317063 197.67546 110.784779 197.219769 110.392379 
C 196.764079 109.999979 196.145944 109.7795 195.5015 109.7795 
C 194.857056 109.7795 194.238921 109.999979 193.783231 110.392379 
C 193.32754 110.784779 193.0715 111.317063 193.0715 111.872 
C 193.0715 112.426937 193.32754 112.959221 193.783231 113.351621 
C 194.238921 113.744021 194.857056 113.9645 195.5015 113.9645 
z
" style="stroke:#000000;stroke-linejoin:miter;stroke-width:1.5;"/>
   </g>
   <g id="patch_5">
    <path clip-path="url(#p7d99d32514)" d="M 227.9015 189.2015 
C 228.545944 189.2015 229.164079 188.981021 229.619769 188.588621 
C 230.07546 188.196221 230.3315 187.663937 230.3315 187.109 
C 230.3315 186.554063 230.07546 186.021779 229.619769 185.629379 
C 229.164079 185.236979 228.545944 185.0165 227.9015 185.0165 
C 227.257056 185.0165 226.638921 185.236979 226.183231 185.629379 
C 225.72754 186.021779 225.4715 186.554063 225.4715 187.109 
C 225.4715 187.663937 225.72754 188.196221 226.183231 188.588621 
C 226.638921 188.981021 227.257056 189.2015 227.9015 189.2015 
z
" style="stroke:#000000;stroke-linejoin:miter;stroke-width:1.5;"/>
   </g>
   <g id="patch_6">
    <path clip-path="url(#p7d99d32514)" d="M 260.3015 94.5275 
C 260.945944 94.5275 261.564079 94.307021 262.019769 93.914621 
C 262.47546 93.522221 262.7315 92.989937 262.7315 92.435 
C 262.7315 91.880063 262.47546 91.347779 262.019769 90.955379 
C 261.564079 90.562979 260.945944 90.3425 260.3015 90.3425 
C 259.657056 90.3425 259.038921 90.562979 258.583231 90.955379 
C 258.12754 91.347779 257.8715 91.880063 257.8715 92.435 
C 257.8715 92.989937 258.12754 93.522221 258.583231 93.914621 
C 259.038921 94.307021 259.657056 94.5275 260.3015 94.5275 
z
" style="stroke:#000000;stroke-linejoin:miter;stroke-width:1.5;"/>
   </g>
   <g id="patch_7">
    <path clip-path="url(#p7d99d32514)" d="M 389.9015 94.5275 
C 390.545944 94.5275 391.164079 94.307021 391.619769 93.914621 
C 392.07546 93.522221 392.3315 92.989937 392.3315 92.435 
C 392.3315 91.880063 392.07546 91.347779 391.619769 90.955379 
C 391.164079 90.562979 390.545944 90.3425 389.9015 90.3425 
C 389.257056 90.3425 388.638921 90.562979 388.183231 90.955379 
C 387.72754 91.347779 387.4715 91.880063 387.4715 92.435 
C 387.4715 92.989937 387.72754 93.522221 388.183231 93.914621 
C 388.638921 94.307021 389.257056 94.5275 389.9015 94.5275 
z
" style="stroke:#000000;stroke-linejoin:miter;stroke-width:1.5;"/>
   </g>
   <g id="patch_8">
    <path clip-path="url(#p7d99d32514)" d="M 422.3015 94.5275 
C 422.945944 94.5275 423.564079 94.307021 424.019769 93.914621 
C 424.47546 93.522221 424.7315 92.989937 424.7315 92.435 
C 424.7315 91.880063 424.47546 91.347779 424.019769 90.955379 
C 423.564079 90.562979 422.945944 90.3425 422.3015 90.3425 
C 421.657056 90.3425 421.038921 90.562979 420.583231 90.955379 
C 420.12754 91.347779 419.8715 91.880063 419.8715 92.435 
C 419.8715 92.989937 420.12754 93.522221 420.583231 93.914621 
C 421.038921 94.307021 421.657056 94.5275 422.3015 94.5275 
z
" style="fill:#ffffff;stroke:#000000;stroke-linejoin:miter;stroke-width:1.5;"/>
   </g>
   <g id="patch_9">
    <path clip-path="url(#p7d99d32514)" d="M 260.3015 133.4015 
C 260.945944 133.4015 261.564079 133.181021 262.019769 132.788621 
C 262.47546 132.396221 262.7315 131.863937 262.7315 131.309 
C 262.7315 130.754063 262.47546 130.221779 262.019769 129.829379 
C 261.564079 129.436979 260.945944 129.2165 260.3015 129.2165 
C 259.657056 129.2165 259.038921 129.436979 258.583231 129.829379 
C 258.12754 130.221779 257.8715 130.754063 257.8715 131.309 
C 257.8715 131.863937 258.12754 132.396221 258.583231 132.788621 
C 259.038921 133.181021 259.657056 133.4015 260.3015 133.4015 
z
" style="stroke:#000000;stroke-linejoin:miter;stroke-width:1.5;"/>
   </g>
   <g id="patch_10">
    <path clip-path="url(#p7d99d32514)" d="M 260.3015 189.2015 
C 260.945944 189.2015 261.564079 188.981021 262.019769 188.588621 
C 262.47546 188.196221 262.7315 187.663937 262.7315 187.109 
C 262.7315 186.554063 262.47546 186.021779 262.019769 185.629379 
C 261.564079 185.236979 260.945944 185.0165 260.3015 185.0165 
C 259.657056 185.0165 259.038921 185.236979 258.583231 185.629379 
C 258.12754 186.021779 257.8715 186.554063 257.8715 187.109 
C 257.8715 187.663937 258.12754 188.196221 258.583231 188.588621 
C 259.038921 188.981021 259.657056 189.2015 260.3015 189.2015 
z
" style="stroke:#000000;stroke-linejoin:miter;stroke-width:1.5;"/>
   </g>
   <g id="patch_11">
    <path clip-path="url(#p7d99d32514)" d="M 49.7015 163.4405 
C 53.99779 163.4405 58.118694 161.97064 61.15663 159.35464 
C 64.194566 156.738639 65.9015 153.190083 65.9015 149.4905 
C 65.9015 145.790917 64.194566 142.242361 61.15663 139.62636 
C 58.118694 137.01036 53.99779 135.5405 49.7015 135.5405 
C 45.40521 135.5405 41.284306 137.01036 38.24637 139.62636 
C 35.208434 142.242361 33.5015 145.790917 33.5015 149.4905 
C 33.5015 153.190083 35.208434 156.738639 38.24637 159.35464 
C 41.284306 161.97064 45.40521 163.4405 49.7015 163.4405 
z
" style="fill:none;stroke:#000000;stroke-linejoin:miter;stroke-width:1.5;"/>
   </g>
   <g id="patch_12">
    <path clip-path="url(#p7d99d32514)" d="M 195.5015 189.2015 
C 196.145944 189.2015 196.764079 188.981021 197.219769 188.588621 
C 197.67546 188.196221 197.9315 187.663937 197.9315 187.109 
C 197.9315 186.554063 197.67546 186.021779 197.219769 185.629379 
C 196.764079 185.236979 196.145944 185.0165 195.5015 185.0165 
C 194.857056 185.0165 194.238921 185.236979 193.783231 185.629379 
C 193.32754 186.021779 193.0715 186.554063 193.0715 187.109 
C 193.0715 187.663937 193.32754 188.196221 193.783231 188.588621 
C 194.238921 188.981021 194.857056 189.2015 195.5015 189.2015 
z
" style="stroke:#000000;stroke-linejoin:miter;stroke-width:1.5;"/>
   </g>
   <g id="text_1">
    <!-- $R_C$ -->
    <defs>
     <path d="M 44.390625 34.1875 
Q 47.5625 33.109375 50.5625 29.59375 
Q 53.5625 26.078125 56.59375 19.921875 
L 66.609375 0 
L 56 0 
L 46.6875 18.703125 
Q 43.0625 26.03125 39.671875 28.421875 
Q 36.28125 30.8125 30.421875 30.8125 
L 19.671875 30.8125 
L 19.671875 0 
L 9.8125 0 
L 9.8125 72.90625 
L 32.078125 72.90625 
Q 44.578125 72.90625 50.734375 67.671875 
Q 56.890625 62.453125 56.890625 51.90625 
Q 56.890625 45.015625 53.6875 40.46875 
Q 50.484375 35.9375 44.390625 34.1875 
z
M 19.671875 64.796875 
L 19.671875 38.921875 
L 32.078125 38.921875 
Q 39.203125 38.921875 42.84375 42.21875 
Q 46.484375 45.515625 46.484375 51.90625 
Q 46.484375 58.296875 42.84375 61.546875 
Q 39.203125 64.796875 32.078125 64.796875 
z
" id="DejaVuSans-52"/>
     <path d="M 64.40625 67.28125 
L 64.40625 56.890625 
Q 59.421875 61.53125 53.78125 63.8125 
Q 48.140625 66.109375 41.796875 66.109375 
Q 29.296875 66.109375 22.65625 58.46875 
Q 16.015625 50.828125 16.015625 36.375 
Q 16.015625 21.96875 22.65625 14.328125 
Q 29.296875 6.6875 41.796875 6.6875 
Q 48.140625 6.6875 53.78125 8.984375 
Q 59.421875 11.28125 64.40625 15.921875 
L 64.40625 5.609375 
Q 59.234375 2.09375 53.4375 0.328125 
Q 47.65625 -1.421875 41.21875 -1.421875 
Q 24.65625 -1.421875 15.125 8.703125 
Q 5.609375 18.84375 5.609375 36.375 
Q 5.609375 53.953125 15.125 64.078125 
Q 24.65625 74.21875 41.21875 74.21875 
Q 47.75 74.21875 53.53125 72.484375 
Q 59.328125 70.75 64.40625 67.28125 
z
" id="DejaVuSans-43"/>
    </defs>
    <g transform="translate(229.2815 68.95)scale(0.16 -0.16)">
     <use transform="translate(0 0.09375)" xlink:href="#DejaVuSans-52"/>
     <use transform="translate(70.439453 -16.3125)scale(0.7)" xlink:href="#DejaVuSans-43"/>
    </g>
   </g>
   <g id="text_2">
    <!-- 10V -->
    <defs>
     <path d="M 12.40625 8.296875 
L 28.515625 8.296875 
L 28.515625 63.921875 
L 10.984375 60.40625 
L 10.984375 69.390625 
L 28.421875 72.90625 
L 38.28125 72.90625 
L 38.28125 8.296875 
L 54.390625 8.296875 
L 54.390625 0 
L 12.40625 0 
z
" id="DejaVuSans-31"/>
     <path d="M 31.78125 66.40625 
Q 24.171875 66.40625 20.328125 58.90625 
Q 16.5 51.421875 16.5 36.375 
Q 16.5 21.390625 20.328125 13.890625 
Q 24.171875 6.390625 31.78125 6.390625 
Q 39.453125 6.390625 43.28125 13.890625 
Q 47.125 21.390625 47.125 36.375 
Q 47.125 51.421875 43.28125 58.90625 
Q 39.453125 66.40625 31.78125 66.40625 
z
M 31.78125 74.21875 
Q 44.046875 74.21875 50.515625 64.515625 
Q 56.984375 54.828125 56.984375 36.375 
Q 56.984375 17.96875 50.515625 8.265625 
Q 44.046875 -1.421875 31.78125 -1.421875 
Q 19.53125 -1.421875 13.0625 8.265625 
Q 6.59375 17.96875 6.59375 36.375 
Q 6.59375 54.828125 13.0625 64.515625 
Q 19.53125 74.21875 31.78125 74.21875 
z
" id="DejaVuSans-30"/>
     <path d="M 28.609375 0 
L 0.78125 72.90625 
L 11.078125 72.90625 
L 34.1875 11.53125 
L 57.328125 72.90625 
L 67.578125 72.90625 
L 39.796875 0 
z
" id="DejaVuSans-56"/>
    </defs>
    <g transform="translate(212.249 19.3575)scale(0.16 -0.16)">
     <use xlink:href="#DejaVuSans-31"/>
     <use x="63.623047" xlink:href="#DejaVuSans-30"/>
     <use x="127.246094" xlink:href="#DejaVuSans-56"/>
    </g>
   </g>
   <g id="text_3">
    <!-- $R_1 = R$ -->
    <defs>
     <path d="M 10.59375 45.40625 
L 73.1875 45.40625 
L 73.1875 37.203125 
L 10.59375 37.203125 
z
M 10.59375 25.484375 
L 73.1875 25.484375 
L 73.1875 17.1875 
L 10.59375 17.1875 
z
" id="DejaVuSans-3d"/>
    </defs>
    <g transform="translate(134.5615 78.6685)scale(0.16 -0.16)">
     <use transform="translate(0 0.09375)" xlink:href="#DejaVuSans-52"/>
     <use transform="translate(70.439453 -16.3125)scale(0.7)" xlink:href="#DejaVuSans-31"/>
     <use transform="translate(137.192383 0.09375)" xlink:href="#DejaVuSans-3d"/>
     <use transform="translate(240.463867 0.09375)" xlink:href="#DejaVuSans-52"/>
    </g>
   </g>
   <g id="text_4">
    <!-- $R_E$ -->
    <defs>
     <path d="M 9.8125 72.90625 
L 55.90625 72.90625 
L 55.90625 64.59375 
L 19.671875 64.59375 
L 19.671875 43.015625 
L 54.390625 43.015625 
L 54.390625 34.71875 
L 19.671875 34.71875 
L 19.671875 8.296875 
L 56.78125 8.296875 
L 56.78125 0 
L 9.8125 0 
z
" id="DejaVuSans-45"/>
    </defs>
    <g transform="translate(230.0815 163.624)scale(0.16 -0.16)">
     <use transform="translate(0 0.09375)" xlink:href="#DejaVuSans-52"/>
     <use transform="translate(70.439453 -16.3125)scale(0.7)" xlink:href="#DejaVuSans-45"/>
    </g>
   </g>
   <g id="text_5">
    <!-- $R_2 = R$ -->
    <defs>
     <path d="M 19.1875 8.296875 
L 53.609375 8.296875 
L 53.609375 0 
L 7.328125 0 
L 7.328125 8.296875 
Q 12.9375 14.109375 22.625 23.890625 
Q 32.328125 33.6875 34.8125 36.53125 
Q 39.546875 41.84375 41.421875 45.53125 
Q 43.3125 49.21875 43.3125 52.78125 
Q 43.3125 58.59375 39.234375 62.25 
Q 35.15625 65.921875 28.609375 65.921875 
Q 23.96875 65.921875 18.8125 64.3125 
Q 13.671875 62.703125 7.8125 59.421875 
L 7.8125 69.390625 
Q 13.765625 71.78125 18.9375 73 
Q 24.125 74.21875 28.421875 74.21875 
Q 39.75 74.21875 46.484375 68.546875 
Q 53.21875 62.890625 53.21875 53.421875 
Q 53.21875 48.921875 51.53125 44.890625 
Q 49.859375 40.875 45.40625 35.40625 
Q 44.1875 33.984375 37.640625 27.21875 
Q 31.109375 20.453125 19.1875 8.296875 
z
" id="DejaVuSans-32"/>
    </defs>
    <g transform="translate(134.5615 153.9055)scale(0.16 -0.16)">
     <use transform="translate(0 0.09375)" xlink:href="#DejaVuSans-52"/>
     <use transform="translate(70.439453 -16.3125)scale(0.7)" xlink:href="#DejaVuSans-32"/>
     <use transform="translate(137.192383 0.09375)" xlink:href="#DejaVuSans-3d"/>
     <use transform="translate(240.463867 0.09375)" xlink:href="#DejaVuSans-52"/>
    </g>
   </g>
   <g id="text_6">
    <!-- $\infty$ -->
    <defs>
     <path d="M 45.5625 17.046875 
Q 44.046875 18.796875 41.65625 22.90625 
Q 38.375 17.046875 35.5 14.453125 
Q 31.890625 11.328125 26.265625 11.328125 
Q 19.671875 11.328125 15.328125 16.265625 
Q 10.75 21.4375 10.75 29.984375 
Q 10.75 38.1875 15.328125 43.75 
Q 19.4375 48.6875 26.375 48.6875 
Q 29.9375 48.6875 32.5625 47.21875 
Q 35.640625 45.609375 37.75 42.828125 
Q 39.703125 40.328125 41.65625 36.96875 
Q 44.921875 42.828125 47.796875 45.40625 
Q 51.421875 48.53125 57.03125 48.53125 
Q 63.625 48.53125 67.96875 43.609375 
Q 72.5625 38.421875 72.5625 29.890625 
Q 72.5625 21.6875 67.96875 16.109375 
Q 63.875 11.1875 56.9375 11.1875 
Q 53.375 11.1875 50.734375 12.640625 
Q 48.09375 13.96875 45.5625 17.046875 
z
M 25.734375 17.71875 
Q 33.796875 17.71875 38.625 29.4375 
Q 32.421875 42.234375 25.734375 42.234375 
Q 20.84375 42.234375 18.359375 38.71875 
Q 15.671875 34.96875 15.671875 29.984375 
Q 15.671875 24.515625 18.359375 21.140625 
Q 21.09375 17.71875 25.734375 17.71875 
z
M 57.5625 42.140625 
Q 50.296875 42.140625 44.671875 30.421875 
Q 50.828125 17.625 57.5625 17.625 
Q 62.453125 17.625 64.9375 21.140625 
Q 67.625 24.90625 67.625 29.890625 
Q 67.625 35.359375 64.9375 38.71875 
Q 62.203125 42.140625 57.5625 42.140625 
z
" id="DejaVuSans-221e"/>
    </defs>
    <g transform="translate(318.3815 79.3425)scale(0.16 -0.16)">
     <use transform="translate(0 0.3125)" xlink:href="#DejaVuSans-221e"/>
    </g>
   </g>
   <g id="text_7">
    <!-- $R_L = 100 k\Omega$ -->
    <defs>
     <path d="M 9.8125 72.90625 
L 19.671875 72.90625 
L 19.671875 8.296875 
L 55.171875 8.296875 
L 55.171875 0 
L 9.8125 0 
z
" id="DejaVuSans-4c"/>
     <path d="M 9.078125 75.984375 
L 18.109375 75.984375 
L 18.109375 31.109375 
L 44.921875 54.6875 
L 56.390625 54.6875 
L 27.390625 29.109375 
L 57.625 0 
L 45.90625 0 
L 18.109375 26.703125 
L 18.109375 0 
L 9.078125 0 
z
" id="DejaVuSans-6b"/>
     <path d="M 72.609375 8.6875 
L 72.609375 0 
L 43.3125 0 
L 43.3125 8.6875 
Q 51.953125 13.421875 56.78125 21.53125 
Q 61.625 29.640625 61.625 39.5 
Q 61.625 51.21875 55.171875 58.296875 
Q 48.734375 65.375 38.1875 65.375 
Q 27.640625 65.375 21.171875 58.265625 
Q 14.703125 51.171875 14.703125 39.5 
Q 14.703125 29.640625 19.53125 21.53125 
Q 24.421875 13.421875 33.109375 8.6875 
L 33.109375 0 
L 3.8125 0 
L 3.8125 8.6875 
L 19.390625 8.6875 
Q 11.671875 15.484375 8.109375 22.75 
Q 4.59375 30.03125 4.59375 39.015625 
Q 4.59375 54.546875 13.96875 64.15625 
Q 23.296875 73.78125 38.1875 73.78125 
Q 52.984375 73.78125 62.40625 64.15625 
Q 71.78125 54.59375 71.78125 39.5 
Q 71.78125 30.03125 68.3125 22.796875 
Q 64.84375 15.578125 56.984375 8.6875 
z
" id="DejaVuSans-3a9"/>
    </defs>
    <g transform="translate(401.2415 124.75)scale(0.16 -0.16)">
     <use transform="translate(0 0.015625)" xlink:href="#DejaVuSans-52"/>
     <use transform="translate(70.439453 -16.390625)scale(0.7)" xlink:href="#DejaVuSans-4c"/>
     <use transform="translate(131.655273 0.015625)" xlink:href="#DejaVuSans-3d"/>
     <use transform="translate(234.926758 0.015625)" xlink:href="#DejaVuSans-31"/>
     <use transform="translate(298.549805 0.015625)" xlink:href="#DejaVuSans-30"/>
     <use transform="translate(362.172852 0.015625)" xlink:href="#DejaVuSans-30"/>
     <use transform="translate(425.795898 0.015625)" xlink:href="#DejaVuSans-6b"/>
     <use transform="translate(483.706055 0.015625)" xlink:href="#DejaVuSans-3a9"/>
    </g>
   </g>
   <g id="text_8">
    <!-- $v_o$ -->
    <defs>
     <path d="M 2.984375 54.6875 
L 12.5 54.6875 
L 29.59375 8.796875 
L 46.6875 54.6875 
L 56.203125 54.6875 
L 35.6875 0 
L 23.484375 0 
z
" id="DejaVuSans-76"/>
     <path d="M 30.609375 48.390625 
Q 23.390625 48.390625 19.1875 42.75 
Q 14.984375 37.109375 14.984375 27.296875 
Q 14.984375 17.484375 19.15625 11.84375 
Q 23.34375 6.203125 30.609375 6.203125 
Q 37.796875 6.203125 41.984375 11.859375 
Q 46.1875 17.53125 46.1875 27.296875 
Q 46.1875 37.015625 41.984375 42.703125 
Q 37.796875 48.390625 30.609375 48.390625 
z
M 30.609375 56 
Q 42.328125 56 49.015625 48.375 
Q 55.71875 40.765625 55.71875 27.296875 
Q 55.71875 13.875 49.015625 6.21875 
Q 42.328125 -1.421875 30.609375 -1.421875 
Q 18.84375 -1.421875 12.171875 6.21875 
Q 5.515625 13.875 5.515625 27.296875 
Q 5.515625 40.765625 12.171875 48.375 
Q 18.84375 56 30.609375 56 
z
" id="DejaVuSans-6f"/>
    </defs>
    <g transform="translate(413.8215 84.225)scale(0.16 -0.16)">
     <use transform="translate(0 0.3125)" xlink:href="#DejaVuSans-76"/>
     <use transform="translate(60.136719 -16.09375)scale(0.7)" xlink:href="#DejaVuSans-6f"/>
    </g>
   </g>
   <g id="text_9">
    <!-- $\infty$ -->
    <g transform="translate(304.0415 163.624)scale(0.16 -0.16)">
     <use transform="translate(0 0.3125)" xlink:href="#DejaVuSans-221e"/>
    </g>
   </g>
   <g id="text_10">
    <!-- $\infty$ -->
    <g transform="translate(156.3815 98.7795)scale(0.16 -0.16)">
     <use transform="translate(0 0.3125)" xlink:href="#DejaVuSans-221e"/>
    </g>
   </g>
   <g id="text_11">
    <!-- $R_s = 10 k\Omega$ -->
    <defs>
     <path d="M 44.28125 53.078125 
L 44.28125 44.578125 
Q 40.484375 46.53125 36.375 47.5 
Q 32.28125 48.484375 27.875 48.484375 
Q 21.1875 48.484375 17.84375 46.4375 
Q 14.5 44.390625 14.5 40.28125 
Q 14.5 37.15625 16.890625 35.375 
Q 19.28125 33.59375 26.515625 31.984375 
L 29.59375 31.296875 
Q 39.15625 29.25 43.1875 25.515625 
Q 47.21875 21.78125 47.21875 15.09375 
Q 47.21875 7.46875 41.1875 3.015625 
Q 35.15625 -1.421875 24.609375 -1.421875 
Q 20.21875 -1.421875 15.453125 -0.5625 
Q 10.6875 0.296875 5.421875 2 
L 5.421875 11.28125 
Q 10.40625 8.6875 15.234375 7.390625 
Q 20.0625 6.109375 24.8125 6.109375 
Q 31.15625 6.109375 34.5625 8.28125 
Q 37.984375 10.453125 37.984375 14.40625 
Q 37.984375 18.0625 35.515625 20.015625 
Q 33.0625 21.96875 24.703125 23.78125 
L 21.578125 24.515625 
Q 13.234375 26.265625 9.515625 29.90625 
Q 5.8125 33.546875 5.8125 39.890625 
Q 5.8125 47.609375 11.28125 51.796875 
Q 16.75 56 26.8125 56 
Q 31.78125 56 36.171875 55.265625 
Q 40.578125 54.546875 44.28125 53.078125 
z
" id="DejaVuSans-73"/>
    </defs>
    <g transform="translate(50.6815 98.7795)scale(0.16 -0.16)">
     <use transform="translate(0 0.015625)" xlink:href="#DejaVuSans-52"/>
     <use transform="translate(70.439453 -16.390625)scale(0.7)" xlink:href="#DejaVuSans-73"/>
     <use transform="translate(129.125977 0.015625)" xlink:href="#DejaVuSans-3d"/>
     <use transform="translate(232.397461 0.015625)" xlink:href="#DejaVuSans-31"/>
     <use transform="translate(296.020508 0.015625)" xlink:href="#DejaVuSans-30"/>
     <use transform="translate(359.643555 0.015625)" xlink:href="#DejaVuSans-6b"/>
     <use transform="translate(417.553711 0.015625)" xlink:href="#DejaVuSans-3a9"/>
    </g>
   </g>
   <g id="text_12">
    <!-- $v_s$ -->
    <g transform="translate(14.2615 153.9055)scale(0.16 -0.16)">
     <use transform="translate(0 0.3125)" xlink:href="#DejaVuSans-76"/>
     <use transform="translate(60.136719 -16.09375)scale(0.7)" xlink:href="#DejaVuSans-73"/>
    </g>
   </g>
  </g>
 </g>
 <defs>
  <clipPath id="p7d99d32514">
   <rect height="203.019" width="436.833" x="10.7" y="13.7105"/>
  </clipPath>
 </defs>
</svg>
