<?xml version="1.0" encoding="utf-8" standalone="no"?>
<!DOCTYPE svg PUBLIC "-//W3C//DTD SVG 1.1//EN"
  "http://www.w3.org/Graphics/SVG/1.1/DTD/svg11.dtd">
<!-- Created with matplotlib (http://matplotlib.org/) -->
<svg height="347.179pt" version="1.1" viewBox="0 0 470.05 347.179" width="470.05pt" xmlns="http://www.w3.org/2000/svg" xmlns:xlink="http://www.w3.org/1999/xlink">
 <defs>
  <style type="text/css">
*{stroke-linecap:butt;stroke-linejoin:round;}
  </style>
 </defs>
 <g id="figure_1">
  <g id="patch_1">
   <path d="M 0 347.179 
L 470.05 347.179 
L 470.05 0 
L 0 0 
z
" style="fill:none;"/>
  </g>
  <g id="axes_1">
   <g id="patch_2">
    <path clip-path="url(#p9f7313e709)" d="M 328.94 184.5635 
L 321.911453 183.05041 
L 324.009474 180.942676 
L 316.455457 175.367092 
L 316.476543 175.345908 
L 324.03056 180.921493 
L 326.128581 178.813758 
z
" style="stroke:#000000;stroke-linejoin:miter;stroke-width:1.5;"/>
   </g>
   <g id="patch_3">
    <path clip-path="url(#p9f7313e709)" d="M 315.98 122.9045 
L 312.74 114.5345 
L 315.9638 114.5345 
L 315.9638 67.1045 
L 315.9962 67.1045 
L 315.9962 114.5345 
L 319.22 114.5345 
z
" style="stroke:#000000;stroke-linejoin:miter;stroke-width:1.5;"/>
   </g>
   <g id="patch_4">
    <path clip-path="url(#p9f7313e709)" d="M 251.963 159.0815 
L 242.243 161.8715 
L 242.243 159.09545 
L 187.163 159.09545 
L 187.163 159.06755 
L 242.243 159.06755 
L 242.243 156.2915 
z
" style="stroke:#000000;stroke-linejoin:miter;stroke-width:1.5;"/>
   </g>
   <g id="patch_5">
    <path clip-path="url(#p9f7313e709)" d="M 315.98 273.3785 
L 312.74 265.0085 
L 315.9638 265.0085 
L 315.9638 217.5785 
L 315.9962 217.5785 
L 315.9962 265.0085 
L 319.22 265.0085 
z
" style="stroke:#000000;stroke-linejoin:miter;stroke-width:1.5;"/>
   </g>
   <g id="line2d_1">
    <path clip-path="url(#p9f7313e709)" d="M 316.466 175.3565 
L 328.94 184.5635 
L 328.94 189.6785 
" style="fill:none;stroke:#000000;stroke-linecap:round;stroke-width:1.5;"/>
   </g>
   <g id="line2d_2">
    <path clip-path="url(#p9f7313e709)" d="M 304.586 170.2415 
L 316.466 170.2415 
" style="fill:none;stroke:#000000;stroke-linecap:round;stroke-width:1.5;"/>
   </g>
   <g id="line2d_3">
    <path clip-path="url(#p9f7313e709)" d="M 316.466 160.0115 
L 316.466 180.4715 
" style="fill:none;stroke:#000000;stroke-linecap:round;stroke-width:1.5;"/>
   </g>
   <g id="line2d_4">
    <path clip-path="url(#p9f7313e709)" d="M 316.466 165.1265 
L 328.94 155.9195 
L 328.94 150.8045 
" style="fill:none;stroke:#000000;stroke-linecap:round;stroke-width:1.5;"/>
   </g>
   <g id="line2d_5">
    <path clip-path="url(#p9f7313e709)" d="M 328.94 150.8045 
L 328.94 108.9545 
L 320.84 106.6295 
L 337.04 101.9795 
L 320.84 97.3295 
L 337.04 92.6795 
L 320.84 88.0295 
L 337.04 83.3795 
L 328.94 81.0545 
L 328.94 39.2045 
" style="fill:none;stroke:#000000;stroke-linecap:round;stroke-width:1.5;"/>
   </g>
   <g id="line2d_6">
    <path clip-path="url(#p9f7313e709)" d="M 328.94 39.2045 
L 280.34 39.2045 
L 231.74 39.2045 
" style="fill:none;stroke:#000000;stroke-linecap:round;stroke-width:1.5;"/>
   </g>
   <g id="line2d_7">
    <path clip-path="url(#p9f7313e709)" d="M 231.74 39.2045 
" style="fill:none;stroke:#000000;stroke-linecap:round;stroke-width:1.5;"/>
   </g>
   <g id="line2d_8">
    <path clip-path="url(#p9f7313e709)" d="M 231.74 28.0445 
L 237.815 28.0445 
" style="fill:none;stroke:#000000;stroke-linecap:round;stroke-width:1.5;"/>
   </g>
   <g id="line2d_9">
    <path clip-path="url(#p9f7313e709)" d="M 231.74 39.2045 
L 231.74 28.0445 
" style="fill:none;stroke:#000000;stroke-linecap:round;stroke-width:1.5;"/>
   </g>
   <g id="line2d_10">
    <path clip-path="url(#p9f7313e709)" d="M 231.74 28.0445 
L 225.665 28.0445 
" style="fill:none;stroke:#000000;stroke-linecap:round;stroke-width:1.5;"/>
   </g>
   <g id="line2d_11">
    <path clip-path="url(#p9f7313e709)" d="M 231.74 39.2045 
L 183.14 39.2045 
L 134.54 39.2045 
" style="fill:none;stroke:#000000;stroke-linecap:round;stroke-width:1.5;"/>
   </g>
   <g id="line2d_12">
    <path clip-path="url(#p9f7313e709)" d="M 134.54 39.2045 
L 134.54 90.773 
L 142.64 93.098 
L 126.44 97.748 
L 142.64 102.398 
L 126.44 107.048 
L 142.64 111.698 
L 126.44 116.348 
L 134.54 118.673 
L 134.54 170.2415 
" style="fill:none;stroke:#000000;stroke-linecap:round;stroke-width:1.5;"/>
   </g>
   <g id="line2d_13">
    <path clip-path="url(#p9f7313e709)" d="M 134.54 170.2415 
" style="fill:none;stroke:#000000;stroke-linecap:round;stroke-width:1.5;"/>
   </g>
   <g id="line2d_14">
    <path clip-path="url(#p9f7313e709)" d="M 134.54 170.2415 
L 219.563 170.2415 
L 304.586 170.2415 
" style="fill:none;stroke:#000000;stroke-linecap:round;stroke-width:1.5;"/>
   </g>
   <g id="line2d_15">
    <path clip-path="url(#p9f7313e709)" d="M 328.94 189.6785 
L 328.94 231.5285 
L 337.04 233.8535 
L 320.84 238.5035 
L 337.04 243.1535 
L 320.84 247.8035 
L 337.04 252.4535 
L 320.84 257.1035 
L 328.94 259.4285 
L 328.94 301.2785 
" style="fill:none;stroke:#000000;stroke-linecap:round;stroke-width:1.5;"/>
   </g>
   <g id="line2d_16">
    <path clip-path="url(#p9f7313e709)" d="M 328.94 301.2785 
L 280.34 301.2785 
L 231.74 301.2785 
" style="fill:none;stroke:#000000;stroke-linecap:round;stroke-width:1.5;"/>
   </g>
   <g id="line2d_17">
    <path clip-path="url(#p9f7313e709)" d="M 231.74 301.2785 
" style="fill:none;stroke:#000000;stroke-linecap:round;stroke-width:1.5;"/>
   </g>
   <g id="line2d_18">
    <path clip-path="url(#p9f7313e709)" d="M 231.74 301.2785 
L 231.74 312.4385 
L 223.64 312.4385 
L 239.84 312.4385 
M 226.07 315.7865 
L 237.41 315.7865 
M 230.12 319.1345 
L 233.36 319.1345 
" style="fill:none;stroke:#000000;stroke-linecap:round;stroke-width:1.5;"/>
   </g>
   <g id="line2d_19">
    <path clip-path="url(#p9f7313e709)" d="M 231.74 301.2785 
L 183.14 301.2785 
L 134.54 301.2785 
" style="fill:none;stroke:#000000;stroke-linecap:round;stroke-width:1.5;"/>
   </g>
   <g id="line2d_20">
    <path clip-path="url(#p9f7313e709)" d="M 134.54 301.2785 
L 134.54 249.71 
L 126.44 247.385 
L 142.64 242.735 
L 126.44 238.085 
L 142.64 233.435 
L 126.44 228.785 
L 142.64 224.135 
L 134.54 221.81 
L 134.54 170.2415 
" style="fill:none;stroke:#000000;stroke-linecap:round;stroke-width:1.5;"/>
   </g>
   <g id="line2d_21">
    <path clip-path="url(#p9f7313e709)" d="M 328.94 150.8045 
" style="fill:none;stroke:#000000;stroke-linecap:round;stroke-width:1.5;"/>
   </g>
   <g id="line2d_22">
    <path clip-path="url(#p9f7313e709)" d="M 328.94 150.8045 
L 345.14 150.8045 
L 361.34 150.8045 
" style="fill:none;stroke:#000000;stroke-linecap:round;stroke-width:1.5;"/>
   </g>
   <g id="line2d_23">
    <path clip-path="url(#p9f7313e709)" d="M 361.34 150.8045 
" style="fill:none;stroke:#000000;stroke-linecap:round;stroke-width:1.5;"/>
   </g>
   <g id="line2d_24">
    <path clip-path="url(#p9f7313e709)" d="M 328.94 189.6785 
" style="fill:none;stroke:#000000;stroke-linecap:round;stroke-width:1.5;"/>
   </g>
   <g id="line2d_25">
    <path clip-path="url(#p9f7313e709)" d="M 328.94 189.6785 
L 345.14 189.6785 
L 361.34 189.6785 
" style="fill:none;stroke:#000000;stroke-linecap:round;stroke-width:1.5;"/>
   </g>
   <g id="line2d_26">
    <path clip-path="url(#p9f7313e709)" d="M 361.34 189.6785 
" style="fill:none;stroke:#000000;stroke-linecap:round;stroke-width:1.5;"/>
   </g>
   <g id="patch_6">
    <path clip-path="url(#p9f7313e709)" d="M 231.74 41.297 
C 232.384444 41.297 233.002579 41.076521 233.458269 40.684121 
C 233.91396 40.291721 234.17 39.759437 234.17 39.2045 
C 234.17 38.649563 233.91396 38.117279 233.458269 37.724879 
C 233.002579 37.332479 232.384444 37.112 231.74 37.112 
C 231.095556 37.112 230.477421 37.332479 230.021731 37.724879 
C 229.56604 38.117279 229.31 38.649563 229.31 39.2045 
C 229.31 39.759437 229.56604 40.291721 230.021731 40.684121 
C 230.477421 41.076521 231.095556 41.297 231.74 41.297 
z
" style="stroke:#000000;stroke-linejoin:miter;stroke-width:1.5;"/>
   </g>
   <g id="patch_7">
    <path clip-path="url(#p9f7313e709)" d="M 134.54 172.334 
C 135.184444 172.334 135.802579 172.113521 136.258269 171.721121 
C 136.71396 171.328721 136.97 170.796437 136.97 170.2415 
C 136.97 169.686563 136.71396 169.154279 136.258269 168.761879 
C 135.802579 168.369479 135.184444 168.149 134.54 168.149 
C 133.895556 168.149 133.277421 168.369479 132.821731 168.761879 
C 132.36604 169.154279 132.11 169.686563 132.11 170.2415 
C 132.11 170.796437 132.36604 171.328721 132.821731 171.721121 
C 133.277421 172.113521 133.895556 172.334 134.54 172.334 
z
" style="stroke:#000000;stroke-linejoin:miter;stroke-width:1.5;"/>
   </g>
   <g id="patch_8">
    <path clip-path="url(#p9f7313e709)" d="M 231.74 303.371 
C 232.384444 303.371 233.002579 303.150521 233.458269 302.758121 
C 233.91396 302.365721 234.17 301.833437 234.17 301.2785 
C 234.17 300.723563 233.91396 300.191279 233.458269 299.798879 
C 233.002579 299.406479 232.384444 299.186 231.74 299.186 
C 231.095556 299.186 230.477421 299.406479 230.021731 299.798879 
C 229.56604 300.191279 229.31 300.723563 229.31 301.2785 
C 229.31 301.833437 229.56604 302.365721 230.021731 302.758121 
C 230.477421 303.150521 231.095556 303.371 231.74 303.371 
z
" style="stroke:#000000;stroke-linejoin:miter;stroke-width:1.5;"/>
   </g>
   <g id="patch_9">
    <path clip-path="url(#p9f7313e709)" d="M 328.94 152.897 
C 329.584444 152.897 330.202579 152.676521 330.658269 152.284121 
C 331.11396 151.891721 331.37 151.359437 331.37 150.8045 
C 331.37 150.249563 331.11396 149.717279 330.658269 149.324879 
C 330.202579 148.932479 329.584444 148.712 328.94 148.712 
C 328.295556 148.712 327.677421 148.932479 327.221731 149.324879 
C 326.76604 149.717279 326.51 150.249563 326.51 150.8045 
C 326.51 151.359437 326.76604 151.891721 327.221731 152.284121 
C 327.677421 152.676521 328.295556 152.897 328.94 152.897 
z
" style="stroke:#000000;stroke-linejoin:miter;stroke-width:1.5;"/>
   </g>
   <g id="patch_10">
    <path clip-path="url(#p9f7313e709)" d="M 361.34 152.897 
C 361.984444 152.897 362.602579 152.676521 363.058269 152.284121 
C 363.51396 151.891721 363.77 151.359437 363.77 150.8045 
C 363.77 150.249563 363.51396 149.717279 363.058269 149.324879 
C 362.602579 148.932479 361.984444 148.712 361.34 148.712 
C 360.695556 148.712 360.077421 148.932479 359.621731 149.324879 
C 359.16604 149.717279 358.91 150.249563 358.91 150.8045 
C 358.91 151.359437 359.16604 151.891721 359.621731 152.284121 
C 360.077421 152.676521 360.695556 152.897 361.34 152.897 
z
" style="fill:#ffffff;stroke:#000000;stroke-linejoin:miter;stroke-width:1.5;"/>
   </g>
   <g id="patch_11">
    <path clip-path="url(#p9f7313e709)" d="M 328.94 191.771 
C 329.584444 191.771 330.202579 191.550521 330.658269 191.158121 
C 331.11396 190.765721 331.37 190.233437 331.37 189.6785 
C 331.37 189.123563 331.11396 188.591279 330.658269 188.198879 
C 330.202579 187.806479 329.584444 187.586 328.94 187.586 
C 328.295556 187.586 327.677421 187.806479 327.221731 188.198879 
C 326.76604 188.591279 326.51 189.123563 326.51 189.6785 
C 326.51 190.233437 326.76604 190.765721 327.221731 191.158121 
C 327.677421 191.550521 328.295556 191.771 328.94 191.771 
z
" style="stroke:#000000;stroke-linejoin:miter;stroke-width:1.5;"/>
   </g>
   <g id="patch_12">
    <path clip-path="url(#p9f7313e709)" d="M 361.34 191.771 
C 361.984444 191.771 362.602579 191.550521 363.058269 191.158121 
C 363.51396 190.765721 363.77 190.233437 363.77 189.6785 
C 363.77 189.123563 363.51396 188.591279 363.058269 188.198879 
C 362.602579 187.806479 361.984444 187.586 361.34 187.586 
C 360.695556 187.586 360.077421 187.806479 359.621731 188.198879 
C 359.16604 188.591279 358.91 189.123563 358.91 189.6785 
C 358.91 190.233437 359.16604 190.765721 359.621731 191.158121 
C 360.077421 191.550521 360.695556 191.771 361.34 191.771 
z
" style="fill:#ffffff;stroke:#000000;stroke-linejoin:miter;stroke-width:1.5;"/>
   </g>
   <g id="text_1">
    <!-- $R_C = 0.983 k\Omega$ -->
    <defs>
     <path d="M 44.390625 34.1875 
Q 47.5625 33.109375 50.5625 29.59375 
Q 53.5625 26.078125 56.59375 19.921875 
L 66.609375 0 
L 56 0 
L 46.6875 18.703125 
Q 43.0625 26.03125 39.671875 28.421875 
Q 36.28125 30.8125 30.421875 30.8125 
L 19.671875 30.8125 
L 19.671875 0 
L 9.8125 0 
L 9.8125 72.90625 
L 32.078125 72.90625 
Q 44.578125 72.90625 50.734375 67.671875 
Q 56.890625 62.453125 56.890625 51.90625 
Q 56.890625 45.015625 53.6875 40.46875 
Q 50.484375 35.9375 44.390625 34.1875 
z
M 19.671875 64.796875 
L 19.671875 38.921875 
L 32.078125 38.921875 
Q 39.203125 38.921875 42.84375 42.21875 
Q 46.484375 45.515625 46.484375 51.90625 
Q 46.484375 58.296875 42.84375 61.546875 
Q 39.203125 64.796875 32.078125 64.796875 
z
" id="DejaVuSans-52"/>
     <path d="M 64.40625 67.28125 
L 64.40625 56.890625 
Q 59.421875 61.53125 53.78125 63.8125 
Q 48.140625 66.109375 41.796875 66.109375 
Q 29.296875 66.109375 22.65625 58.46875 
Q 16.015625 50.828125 16.015625 36.375 
Q 16.015625 21.96875 22.65625 14.328125 
Q 29.296875 6.6875 41.796875 6.6875 
Q 48.140625 6.6875 53.78125 8.984375 
Q 59.421875 11.28125 64.40625 15.921875 
L 64.40625 5.609375 
Q 59.234375 2.09375 53.4375 0.328125 
Q 47.65625 -1.421875 41.21875 -1.421875 
Q 24.65625 -1.421875 15.125 8.703125 
Q 5.609375 18.84375 5.609375 36.375 
Q 5.609375 53.953125 15.125 64.078125 
Q 24.65625 74.21875 41.21875 74.21875 
Q 47.75 74.21875 53.53125 72.484375 
Q 59.328125 70.75 64.40625 67.28125 
z
" id="DejaVuSans-43"/>
     <path d="M 10.59375 45.40625 
L 73.1875 45.40625 
L 73.1875 37.203125 
L 10.59375 37.203125 
z
M 10.59375 25.484375 
L 73.1875 25.484375 
L 73.1875 17.1875 
L 10.59375 17.1875 
z
" id="DejaVuSans-3d"/>
     <path d="M 31.78125 66.40625 
Q 24.171875 66.40625 20.328125 58.90625 
Q 16.5 51.421875 16.5 36.375 
Q 16.5 21.390625 20.328125 13.890625 
Q 24.171875 6.390625 31.78125 6.390625 
Q 39.453125 6.390625 43.28125 13.890625 
Q 47.125 21.390625 47.125 36.375 
Q 47.125 51.421875 43.28125 58.90625 
Q 39.453125 66.40625 31.78125 66.40625 
z
M 31.78125 74.21875 
Q 44.046875 74.21875 50.515625 64.515625 
Q 56.984375 54.828125 56.984375 36.375 
Q 56.984375 17.96875 50.515625 8.265625 
Q 44.046875 -1.421875 31.78125 -1.421875 
Q 19.53125 -1.421875 13.0625 8.265625 
Q 6.59375 17.96875 6.59375 36.375 
Q 6.59375 54.828125 13.0625 64.515625 
Q 19.53125 74.21875 31.78125 74.21875 
z
" id="DejaVuSans-30"/>
     <path d="M 10.6875 12.40625 
L 21 12.40625 
L 21 0 
L 10.6875 0 
z
" id="DejaVuSans-2e"/>
     <path d="M 10.984375 1.515625 
L 10.984375 10.5 
Q 14.703125 8.734375 18.5 7.8125 
Q 22.3125 6.890625 25.984375 6.890625 
Q 35.75 6.890625 40.890625 13.453125 
Q 46.046875 20.015625 46.78125 33.40625 
Q 43.953125 29.203125 39.59375 26.953125 
Q 35.25 24.703125 29.984375 24.703125 
Q 19.046875 24.703125 12.671875 31.3125 
Q 6.296875 37.9375 6.296875 49.421875 
Q 6.296875 60.640625 12.9375 67.421875 
Q 19.578125 74.21875 30.609375 74.21875 
Q 43.265625 74.21875 49.921875 64.515625 
Q 56.59375 54.828125 56.59375 36.375 
Q 56.59375 19.140625 48.40625 8.859375 
Q 40.234375 -1.421875 26.421875 -1.421875 
Q 22.703125 -1.421875 18.890625 -0.6875 
Q 15.09375 0.046875 10.984375 1.515625 
z
M 30.609375 32.421875 
Q 37.25 32.421875 41.125 36.953125 
Q 45.015625 41.5 45.015625 49.421875 
Q 45.015625 57.28125 41.125 61.84375 
Q 37.25 66.40625 30.609375 66.40625 
Q 23.96875 66.40625 20.09375 61.84375 
Q 16.21875 57.28125 16.21875 49.421875 
Q 16.21875 41.5 20.09375 36.953125 
Q 23.96875 32.421875 30.609375 32.421875 
z
" id="DejaVuSans-39"/>
     <path d="M 31.78125 34.625 
Q 24.75 34.625 20.71875 30.859375 
Q 16.703125 27.09375 16.703125 20.515625 
Q 16.703125 13.921875 20.71875 10.15625 
Q 24.75 6.390625 31.78125 6.390625 
Q 38.8125 6.390625 42.859375 10.171875 
Q 46.921875 13.96875 46.921875 20.515625 
Q 46.921875 27.09375 42.890625 30.859375 
Q 38.875 34.625 31.78125 34.625 
z
M 21.921875 38.8125 
Q 15.578125 40.375 12.03125 44.71875 
Q 8.5 49.078125 8.5 55.328125 
Q 8.5 64.0625 14.71875 69.140625 
Q 20.953125 74.21875 31.78125 74.21875 
Q 42.671875 74.21875 48.875 69.140625 
Q 55.078125 64.0625 55.078125 55.328125 
Q 55.078125 49.078125 51.53125 44.71875 
Q 48 40.375 41.703125 38.8125 
Q 48.828125 37.15625 52.796875 32.3125 
Q 56.78125 27.484375 56.78125 20.515625 
Q 56.78125 9.90625 50.3125 4.234375 
Q 43.84375 -1.421875 31.78125 -1.421875 
Q 19.734375 -1.421875 13.25 4.234375 
Q 6.78125 9.90625 6.78125 20.515625 
Q 6.78125 27.484375 10.78125 32.3125 
Q 14.796875 37.15625 21.921875 38.8125 
z
M 18.3125 54.390625 
Q 18.3125 48.734375 21.84375 45.5625 
Q 25.390625 42.390625 31.78125 42.390625 
Q 38.140625 42.390625 41.71875 45.5625 
Q 45.3125 48.734375 45.3125 54.390625 
Q 45.3125 60.0625 41.71875 63.234375 
Q 38.140625 66.40625 31.78125 66.40625 
Q 25.390625 66.40625 21.84375 63.234375 
Q 18.3125 60.0625 18.3125 54.390625 
z
" id="DejaVuSans-38"/>
     <path d="M 40.578125 39.3125 
Q 47.65625 37.796875 51.625 33 
Q 55.609375 28.21875 55.609375 21.1875 
Q 55.609375 10.40625 48.1875 4.484375 
Q 40.765625 -1.421875 27.09375 -1.421875 
Q 22.515625 -1.421875 17.65625 -0.515625 
Q 12.796875 0.390625 7.625 2.203125 
L 7.625 11.71875 
Q 11.71875 9.328125 16.59375 8.109375 
Q 21.484375 6.890625 26.8125 6.890625 
Q 36.078125 6.890625 40.9375 10.546875 
Q 45.796875 14.203125 45.796875 21.1875 
Q 45.796875 27.640625 41.28125 31.265625 
Q 36.765625 34.90625 28.71875 34.90625 
L 20.21875 34.90625 
L 20.21875 43.015625 
L 29.109375 43.015625 
Q 36.375 43.015625 40.234375 45.921875 
Q 44.09375 48.828125 44.09375 54.296875 
Q 44.09375 59.90625 40.109375 62.90625 
Q 36.140625 65.921875 28.71875 65.921875 
Q 24.65625 65.921875 20.015625 65.03125 
Q 15.375 64.15625 9.8125 62.3125 
L 9.8125 71.09375 
Q 15.4375 72.65625 20.34375 73.4375 
Q 25.25 74.21875 29.59375 74.21875 
Q 40.828125 74.21875 47.359375 69.109375 
Q 53.90625 64.015625 53.90625 55.328125 
Q 53.90625 49.265625 50.4375 45.09375 
Q 46.96875 40.921875 40.578125 39.3125 
z
" id="DejaVuSans-33"/>
     <path d="M 9.078125 75.984375 
L 18.109375 75.984375 
L 18.109375 31.109375 
L 44.921875 54.6875 
L 56.390625 54.6875 
L 27.390625 29.109375 
L 57.625 0 
L 45.90625 0 
L 18.109375 26.703125 
L 18.109375 0 
L 9.078125 0 
z
" id="DejaVuSans-6b"/>
     <path d="M 72.609375 8.6875 
L 72.609375 0 
L 43.3125 0 
L 43.3125 8.6875 
Q 51.953125 13.421875 56.78125 21.53125 
Q 61.625 29.640625 61.625 39.5 
Q 61.625 51.21875 55.171875 58.296875 
Q 48.734375 65.375 38.1875 65.375 
Q 27.640625 65.375 21.171875 58.265625 
Q 14.703125 51.171875 14.703125 39.5 
Q 14.703125 29.640625 19.53125 21.53125 
Q 24.421875 13.421875 33.109375 8.6875 
L 33.109375 0 
L 3.8125 0 
L 3.8125 8.6875 
L 19.390625 8.6875 
Q 11.671875 15.484375 8.109375 22.75 
Q 4.59375 30.03125 4.59375 39.015625 
Q 4.59375 54.546875 13.96875 64.15625 
Q 23.296875 73.78125 38.1875 73.78125 
Q 52.984375 73.78125 62.40625 64.15625 
Q 71.78125 54.59375 71.78125 39.5 
Q 71.78125 30.03125 68.3125 22.796875 
Q 64.84375 15.578125 56.984375 8.6875 
z
" id="DejaVuSans-3a9"/>
    </defs>
    <g transform="translate(340.28 99.4195)scale(0.16 -0.16)">
     <use transform="translate(0 0.015625)" xlink:href="#DejaVuSans-52"/>
     <use transform="translate(70.439453 -16.390625)scale(0.7)" xlink:href="#DejaVuSans-43"/>
     <use transform="translate(141.533203 0.015625)" xlink:href="#DejaVuSans-3d"/>
     <use transform="translate(244.804688 0.015625)" xlink:href="#DejaVuSans-30"/>
     <use transform="translate(308.427734 0.015625)" xlink:href="#DejaVuSans-2e"/>
     <use transform="translate(340.214844 0.015625)" xlink:href="#DejaVuSans-39"/>
     <use transform="translate(403.837891 0.015625)" xlink:href="#DejaVuSans-38"/>
     <use transform="translate(467.460938 0.015625)" xlink:href="#DejaVuSans-33"/>
     <use transform="translate(531.083984 0.015625)" xlink:href="#DejaVuSans-6b"/>
     <use transform="translate(588.994141 0.015625)" xlink:href="#DejaVuSans-3a9"/>
    </g>
   </g>
   <g id="text_2">
    <!-- $I_C = 5.39 mA$ -->
    <defs>
     <path d="M 9.8125 72.90625 
L 19.671875 72.90625 
L 19.671875 0 
L 9.8125 0 
z
" id="DejaVuSans-49"/>
     <path d="M 10.796875 72.90625 
L 49.515625 72.90625 
L 49.515625 64.59375 
L 19.828125 64.59375 
L 19.828125 46.734375 
Q 21.96875 47.46875 24.109375 47.828125 
Q 26.265625 48.1875 28.421875 48.1875 
Q 40.625 48.1875 47.75 41.5 
Q 54.890625 34.8125 54.890625 23.390625 
Q 54.890625 11.625 47.5625 5.09375 
Q 40.234375 -1.421875 26.90625 -1.421875 
Q 22.3125 -1.421875 17.546875 -0.640625 
Q 12.796875 0.140625 7.71875 1.703125 
L 7.71875 11.625 
Q 12.109375 9.234375 16.796875 8.0625 
Q 21.484375 6.890625 26.703125 6.890625 
Q 35.15625 6.890625 40.078125 11.328125 
Q 45.015625 15.765625 45.015625 23.390625 
Q 45.015625 31 40.078125 35.4375 
Q 35.15625 39.890625 26.703125 39.890625 
Q 22.75 39.890625 18.8125 39.015625 
Q 14.890625 38.140625 10.796875 36.28125 
z
" id="DejaVuSans-35"/>
     <path d="M 52 44.1875 
Q 55.375 50.25 60.0625 53.125 
Q 64.75 56 71.09375 56 
Q 79.640625 56 84.28125 50.015625 
Q 88.921875 44.046875 88.921875 33.015625 
L 88.921875 0 
L 79.890625 0 
L 79.890625 32.71875 
Q 79.890625 40.578125 77.09375 44.375 
Q 74.3125 48.1875 68.609375 48.1875 
Q 61.625 48.1875 57.5625 43.546875 
Q 53.515625 38.921875 53.515625 30.90625 
L 53.515625 0 
L 44.484375 0 
L 44.484375 32.71875 
Q 44.484375 40.625 41.703125 44.40625 
Q 38.921875 48.1875 33.109375 48.1875 
Q 26.21875 48.1875 22.15625 43.53125 
Q 18.109375 38.875 18.109375 30.90625 
L 18.109375 0 
L 9.078125 0 
L 9.078125 54.6875 
L 18.109375 54.6875 
L 18.109375 46.1875 
Q 21.1875 51.21875 25.484375 53.609375 
Q 29.78125 56 35.6875 56 
Q 41.65625 56 45.828125 52.96875 
Q 50 49.953125 52 44.1875 
z
" id="DejaVuSans-6d"/>
     <path d="M 34.1875 63.1875 
L 20.796875 26.90625 
L 47.609375 26.90625 
z
M 28.609375 72.90625 
L 39.796875 72.90625 
L 67.578125 0 
L 57.328125 0 
L 50.6875 18.703125 
L 17.828125 18.703125 
L 11.1875 0 
L 0.78125 0 
z
" id="DejaVuSans-41"/>
    </defs>
    <g transform="translate(214.46 99.4195)scale(0.16 -0.16)">
     <use transform="translate(0 0.78125)" xlink:href="#DejaVuSans-49"/>
     <use transform="translate(30.449219 -15.625)scale(0.7)" xlink:href="#DejaVuSans-43"/>
     <use transform="translate(101.542969 0.78125)" xlink:href="#DejaVuSans-3d"/>
     <use transform="translate(204.814453 0.78125)" xlink:href="#DejaVuSans-35"/>
     <use transform="translate(268.4375 0.78125)" xlink:href="#DejaVuSans-2e"/>
     <use transform="translate(300.224609 0.78125)" xlink:href="#DejaVuSans-33"/>
     <use transform="translate(363.847656 0.78125)" xlink:href="#DejaVuSans-39"/>
     <use transform="translate(427.345703 0.78125)" xlink:href="#DejaVuSans-6d"/>
     <use transform="translate(524.757812 0.78125)" xlink:href="#DejaVuSans-41"/>
    </g>
   </g>
   <g id="text_3">
    <!-- 10.059V -->
    <defs>
     <path d="M 12.40625 8.296875 
L 28.515625 8.296875 
L 28.515625 63.921875 
L 10.984375 60.40625 
L 10.984375 69.390625 
L 28.421875 72.90625 
L 38.28125 72.90625 
L 38.28125 8.296875 
L 54.390625 8.296875 
L 54.390625 0 
L 12.40625 0 
z
" id="DejaVuSans-31"/>
     <path d="M 28.609375 0 
L 0.78125 72.90625 
L 11.078125 72.90625 
L 34.1875 11.53125 
L 57.328125 72.90625 
L 67.578125 72.90625 
L 39.796875 0 
z
" id="DejaVuSans-56"/>
    </defs>
    <g transform="translate(198.275 21.927)scale(0.16 -0.16)">
     <use xlink:href="#DejaVuSans-31"/>
     <use x="63.623047" xlink:href="#DejaVuSans-30"/>
     <use x="127.246094" xlink:href="#DejaVuSans-2e"/>
     <use x="159.033203" xlink:href="#DejaVuSans-30"/>
     <use x="222.65625" xlink:href="#DejaVuSans-35"/>
     <use x="286.279297" xlink:href="#DejaVuSans-39"/>
     <use x="349.902344" xlink:href="#DejaVuSans-56"/>
    </g>
   </g>
   <g id="text_4">
    <!-- $R_1 = 118.75 k\Omega$ -->
    <defs>
     <path d="M 8.203125 72.90625 
L 55.078125 72.90625 
L 55.078125 68.703125 
L 28.609375 0 
L 18.3125 0 
L 43.21875 64.59375 
L 8.203125 64.59375 
z
" id="DejaVuSans-37"/>
    </defs>
    <g transform="translate(7.2 109.138)scale(0.16 -0.16)">
     <use transform="translate(0 0.015625)" xlink:href="#DejaVuSans-52"/>
     <use transform="translate(70.439453 -16.390625)scale(0.7)" xlink:href="#DejaVuSans-31"/>
     <use transform="translate(137.192383 0.015625)" xlink:href="#DejaVuSans-3d"/>
     <use transform="translate(240.463867 0.015625)" xlink:href="#DejaVuSans-31"/>
     <use transform="translate(304.086914 0.015625)" xlink:href="#DejaVuSans-31"/>
     <use transform="translate(367.709961 0.015625)" xlink:href="#DejaVuSans-38"/>
     <use transform="translate(431.333008 0.015625)" xlink:href="#DejaVuSans-2e"/>
     <use transform="translate(463.010742 0.015625)" xlink:href="#DejaVuSans-37"/>
     <use transform="translate(526.633789 0.015625)" xlink:href="#DejaVuSans-35"/>
     <use transform="translate(590.256836 0.015625)" xlink:href="#DejaVuSans-6b"/>
     <use transform="translate(648.166992 0.015625)" xlink:href="#DejaVuSans-3a9"/>
    </g>
   </g>
   <g id="text_5">
    <!-- $I_B = 0.031 mA$ -->
    <defs>
     <path d="M 19.671875 34.8125 
L 19.671875 8.109375 
L 35.5 8.109375 
Q 43.453125 8.109375 47.28125 11.40625 
Q 51.125 14.703125 51.125 21.484375 
Q 51.125 28.328125 47.28125 31.5625 
Q 43.453125 34.8125 35.5 34.8125 
z
M 19.671875 64.796875 
L 19.671875 42.828125 
L 34.28125 42.828125 
Q 41.5 42.828125 45.03125 45.53125 
Q 48.578125 48.25 48.578125 53.8125 
Q 48.578125 59.328125 45.03125 62.0625 
Q 41.5 64.796875 34.28125 64.796875 
z
M 9.8125 72.90625 
L 35.015625 72.90625 
Q 46.296875 72.90625 52.390625 68.21875 
Q 58.5 63.53125 58.5 54.890625 
Q 58.5 48.1875 55.375 44.234375 
Q 52.25 40.28125 46.1875 39.3125 
Q 53.46875 37.75 57.5 32.78125 
Q 61.53125 27.828125 61.53125 20.40625 
Q 61.53125 10.640625 54.890625 5.3125 
Q 48.25 0 35.984375 0 
L 9.8125 0 
z
" id="DejaVuSans-42"/>
    </defs>
    <g transform="translate(167.003 150.174)scale(0.16 -0.16)">
     <use transform="translate(0 0.78125)" xlink:href="#DejaVuSans-49"/>
     <use transform="translate(30.449219 -15.625)scale(0.7)" xlink:href="#DejaVuSans-42"/>
     <use transform="translate(100.688477 0.78125)" xlink:href="#DejaVuSans-3d"/>
     <use transform="translate(203.959961 0.78125)" xlink:href="#DejaVuSans-30"/>
     <use transform="translate(267.583008 0.78125)" xlink:href="#DejaVuSans-2e"/>
     <use transform="translate(299.370117 0.78125)" xlink:href="#DejaVuSans-30"/>
     <use transform="translate(362.993164 0.78125)" xlink:href="#DejaVuSans-33"/>
     <use transform="translate(426.616211 0.78125)" xlink:href="#DejaVuSans-31"/>
     <use transform="translate(490.239258 0.78125)" xlink:href="#DejaVuSans-6d"/>
     <use transform="translate(587.651367 0.78125)" xlink:href="#DejaVuSans-41"/>
    </g>
   </g>
   <g id="text_6">
    <!-- $R_E = 0.4629 k\Omega$ -->
    <defs>
     <path d="M 9.8125 72.90625 
L 55.90625 72.90625 
L 55.90625 64.59375 
L 19.671875 64.59375 
L 19.671875 43.015625 
L 54.390625 43.015625 
L 54.390625 34.71875 
L 19.671875 34.71875 
L 19.671875 8.296875 
L 56.78125 8.296875 
L 56.78125 0 
L 9.8125 0 
z
" id="DejaVuSans-45"/>
     <path d="M 37.796875 64.3125 
L 12.890625 25.390625 
L 37.796875 25.390625 
z
M 35.203125 72.90625 
L 47.609375 72.90625 
L 47.609375 25.390625 
L 58.015625 25.390625 
L 58.015625 17.1875 
L 47.609375 17.1875 
L 47.609375 0 
L 37.796875 0 
L 37.796875 17.1875 
L 4.890625 17.1875 
L 4.890625 26.703125 
z
" id="DejaVuSans-34"/>
     <path d="M 33.015625 40.375 
Q 26.375 40.375 22.484375 35.828125 
Q 18.609375 31.296875 18.609375 23.390625 
Q 18.609375 15.53125 22.484375 10.953125 
Q 26.375 6.390625 33.015625 6.390625 
Q 39.65625 6.390625 43.53125 10.953125 
Q 47.40625 15.53125 47.40625 23.390625 
Q 47.40625 31.296875 43.53125 35.828125 
Q 39.65625 40.375 33.015625 40.375 
z
M 52.59375 71.296875 
L 52.59375 62.3125 
Q 48.875 64.0625 45.09375 64.984375 
Q 41.3125 65.921875 37.59375 65.921875 
Q 27.828125 65.921875 22.671875 59.328125 
Q 17.53125 52.734375 16.796875 39.40625 
Q 19.671875 43.65625 24.015625 45.921875 
Q 28.375 48.1875 33.59375 48.1875 
Q 44.578125 48.1875 50.953125 41.515625 
Q 57.328125 34.859375 57.328125 23.390625 
Q 57.328125 12.15625 50.6875 5.359375 
Q 44.046875 -1.421875 33.015625 -1.421875 
Q 20.359375 -1.421875 13.671875 8.265625 
Q 6.984375 17.96875 6.984375 36.375 
Q 6.984375 53.65625 15.1875 63.9375 
Q 23.390625 74.21875 37.203125 74.21875 
Q 40.921875 74.21875 44.703125 73.484375 
Q 48.484375 72.75 52.59375 71.296875 
z
" id="DejaVuSans-36"/>
     <path d="M 19.1875 8.296875 
L 53.609375 8.296875 
L 53.609375 0 
L 7.328125 0 
L 7.328125 8.296875 
Q 12.9375 14.109375 22.625 23.890625 
Q 32.328125 33.6875 34.8125 36.53125 
Q 39.546875 41.84375 41.421875 45.53125 
Q 43.3125 49.21875 43.3125 52.78125 
Q 43.3125 58.59375 39.234375 62.25 
Q 35.15625 65.921875 28.609375 65.921875 
Q 23.96875 65.921875 18.8125 64.3125 
Q 13.671875 62.703125 7.8125 59.421875 
L 7.8125 69.390625 
Q 13.765625 71.78125 18.9375 73 
Q 24.125 74.21875 28.421875 74.21875 
Q 39.75 74.21875 46.484375 68.546875 
Q 53.21875 62.890625 53.21875 53.421875 
Q 53.21875 48.921875 51.53125 44.890625 
Q 49.859375 40.875 45.40625 35.40625 
Q 44.1875 33.984375 37.640625 27.21875 
Q 31.109375 20.453125 19.1875 8.296875 
z
" id="DejaVuSans-32"/>
    </defs>
    <g transform="translate(340.28 249.8935)scale(0.16 -0.16)">
     <use transform="translate(0 0.015625)" xlink:href="#DejaVuSans-52"/>
     <use transform="translate(70.439453 -16.390625)scale(0.7)" xlink:href="#DejaVuSans-45"/>
     <use transform="translate(136.884766 0.015625)" xlink:href="#DejaVuSans-3d"/>
     <use transform="translate(240.15625 0.015625)" xlink:href="#DejaVuSans-30"/>
     <use transform="translate(303.779297 0.015625)" xlink:href="#DejaVuSans-2e"/>
     <use transform="translate(335.566406 0.015625)" xlink:href="#DejaVuSans-34"/>
     <use transform="translate(399.189453 0.015625)" xlink:href="#DejaVuSans-36"/>
     <use transform="translate(462.8125 0.015625)" xlink:href="#DejaVuSans-32"/>
     <use transform="translate(526.419922 0.015625)" xlink:href="#DejaVuSans-39"/>
     <use transform="translate(590.042969 0.015625)" xlink:href="#DejaVuSans-6b"/>
     <use transform="translate(647.953125 0.015625)" xlink:href="#DejaVuSans-3a9"/>
    </g>
   </g>
   <g id="text_7">
    <!-- $I_E = 5.42 mA$ -->
    <g transform="translate(215.26 249.8935)scale(0.16 -0.16)">
     <use transform="translate(0 0.78125)" xlink:href="#DejaVuSans-49"/>
     <use transform="translate(30.449219 -15.625)scale(0.7)" xlink:href="#DejaVuSans-45"/>
     <use transform="translate(96.894531 0.78125)" xlink:href="#DejaVuSans-3d"/>
     <use transform="translate(200.166016 0.78125)" xlink:href="#DejaVuSans-35"/>
     <use transform="translate(263.789062 0.78125)" xlink:href="#DejaVuSans-2e"/>
     <use transform="translate(295.576172 0.78125)" xlink:href="#DejaVuSans-34"/>
     <use transform="translate(359.199219 0.78125)" xlink:href="#DejaVuSans-32"/>
     <use transform="translate(422.806641 0.78125)" xlink:href="#DejaVuSans-6d"/>
     <use transform="translate(520.21875 0.78125)" xlink:href="#DejaVuSans-41"/>
    </g>
   </g>
   <g id="text_8">
    <!-- $R_2 = 119.75 k\Omega$ -->
    <g transform="translate(7.2 240.175)scale(0.16 -0.16)">
     <use transform="translate(0 0.015625)" xlink:href="#DejaVuSans-52"/>
     <use transform="translate(70.439453 -16.390625)scale(0.7)" xlink:href="#DejaVuSans-32"/>
     <use transform="translate(137.192383 0.015625)" xlink:href="#DejaVuSans-3d"/>
     <use transform="translate(240.463867 0.015625)" xlink:href="#DejaVuSans-31"/>
     <use transform="translate(304.086914 0.015625)" xlink:href="#DejaVuSans-31"/>
     <use transform="translate(367.709961 0.015625)" xlink:href="#DejaVuSans-39"/>
     <use transform="translate(431.333008 0.015625)" xlink:href="#DejaVuSans-2e"/>
     <use transform="translate(463.010742 0.015625)" xlink:href="#DejaVuSans-37"/>
     <use transform="translate(526.633789 0.015625)" xlink:href="#DejaVuSans-35"/>
     <use transform="translate(590.256836 0.015625)" xlink:href="#DejaVuSans-6b"/>
     <use transform="translate(648.166992 0.015625)" xlink:href="#DejaVuSans-3a9"/>
    </g>
   </g>
   <g id="text_9">
    <!-- $V_C = 4.763V$ -->
    <g transform="translate(367.01 155.2195)scale(0.16 -0.16)">
     <use transform="translate(0 0.78125)" xlink:href="#DejaVuSans-56"/>
     <use transform="translate(69.365234 -15.625)scale(0.7)" xlink:href="#DejaVuSans-43"/>
     <use transform="translate(140.458984 0.78125)" xlink:href="#DejaVuSans-3d"/>
     <use transform="translate(243.730469 0.78125)" xlink:href="#DejaVuSans-34"/>
     <use transform="translate(307.353516 0.78125)" xlink:href="#DejaVuSans-2e"/>
     <use transform="translate(339.03125 0.78125)" xlink:href="#DejaVuSans-37"/>
     <use transform="translate(402.654297 0.78125)" xlink:href="#DejaVuSans-36"/>
     <use transform="translate(466.277344 0.78125)" xlink:href="#DejaVuSans-33"/>
     <use transform="translate(529.884766 0.78125)" xlink:href="#DejaVuSans-56"/>
    </g>
   </g>
   <g id="text_10">
    <!-- $V_E = 2.510V$ -->
    <g transform="translate(367.01 194.0935)scale(0.16 -0.16)">
     <use transform="translate(0 0.78125)" xlink:href="#DejaVuSans-56"/>
     <use transform="translate(69.365234 -15.625)scale(0.7)" xlink:href="#DejaVuSans-45"/>
     <use transform="translate(135.810547 0.78125)" xlink:href="#DejaVuSans-3d"/>
     <use transform="translate(239.082031 0.78125)" xlink:href="#DejaVuSans-32"/>
     <use transform="translate(302.705078 0.78125)" xlink:href="#DejaVuSans-2e"/>
     <use transform="translate(334.492188 0.78125)" xlink:href="#DejaVuSans-35"/>
     <use transform="translate(398.115234 0.78125)" xlink:href="#DejaVuSans-31"/>
     <use transform="translate(461.738281 0.78125)" xlink:href="#DejaVuSans-30"/>
     <use transform="translate(525.361328 0.78125)" xlink:href="#DejaVuSans-56"/>
    </g>
   </g>
  </g>
 </g>
 <defs>
  <clipPath id="p9f7313e709">
   <rect height="325.779" width="267.543" x="111.3335" y="10.7"/>
  </clipPath>
 </defs>
</svg>
