<?xml version="1.0" encoding="utf-8" standalone="no"?>
<!DOCTYPE svg PUBLIC "-//W3C//DTD SVG 1.1//EN"
  "http://www.w3.org/Graphics/SVG/1.1/DTD/svg11.dtd">
<!-- Created with matplotlib (http://matplotlib.org/) -->
<svg height="227.4295pt" version="1.1" viewBox="0 0 197.57 227.4295" width="197.57pt" xmlns="http://www.w3.org/2000/svg" xmlns:xlink="http://www.w3.org/1999/xlink">
 <defs>
  <style type="text/css">
*{stroke-linecap:butt;stroke-linejoin:round;}
  </style>
 </defs>
 <g id="figure_1">
  <g id="patch_1">
   <path d="M 0 227.4295 
L 197.57 227.4295 
L 197.57 0 
L 0 0 
z
" style="fill:none;"/>
  </g>
  <g id="axes_1">
   <g id="patch_2">
    <path clip-path="url(#pd8764e0f4a)" d="M 132.94 126.194 
L 125.911453 124.68091 
L 128.009474 122.573176 
L 120.455457 116.997592 
L 120.476543 116.976408 
L 128.03056 122.551993 
L 130.128581 120.444258 
z
" style="stroke:#000000;stroke-linejoin:miter;stroke-width:1.5;"/>
   </g>
   <g id="line2d_1">
    <path clip-path="url(#pd8764e0f4a)" d="M 120.466 116.987 
L 132.94 126.194 
L 132.94 131.309 
" style="fill:none;stroke:#000000;stroke-linecap:round;stroke-width:1.5;"/>
   </g>
   <g id="line2d_2">
    <path clip-path="url(#pd8764e0f4a)" d="M 108.586 111.872 
L 120.466 111.872 
" style="fill:none;stroke:#000000;stroke-linecap:round;stroke-width:1.5;"/>
   </g>
   <g id="line2d_3">
    <path clip-path="url(#pd8764e0f4a)" d="M 120.466 101.642 
L 120.466 122.102 
" style="fill:none;stroke:#000000;stroke-linecap:round;stroke-width:1.5;"/>
   </g>
   <g id="line2d_4">
    <path clip-path="url(#pd8764e0f4a)" d="M 120.466 106.757 
L 132.94 97.55 
L 132.94 92.435 
" style="fill:none;stroke:#000000;stroke-linecap:round;stroke-width:1.5;"/>
   </g>
   <g id="line2d_5">
    <path clip-path="url(#pd8764e0f4a)" d="M 132.94 92.435 
L 132.94 78.485 
L 124.84 76.16 
L 141.04 71.51 
L 124.84 66.86 
L 141.04 62.21 
L 124.84 57.56 
L 141.04 52.91 
L 132.94 50.585 
L 132.94 36.635 
" style="fill:none;stroke:#000000;stroke-linecap:round;stroke-width:1.5;"/>
   </g>
   <g id="line2d_6">
    <path clip-path="url(#pd8764e0f4a)" d="M 132.94 36.635 
L 116.74 36.635 
L 100.54 36.635 
" style="fill:none;stroke:#000000;stroke-linecap:round;stroke-width:1.5;"/>
   </g>
   <g id="line2d_7">
    <path clip-path="url(#pd8764e0f4a)" d="M 100.54 36.635 
" style="fill:none;stroke:#000000;stroke-linecap:round;stroke-width:1.5;"/>
   </g>
   <g id="line2d_8">
    <path clip-path="url(#pd8764e0f4a)" d="M 100.54 25.475 
L 106.615 25.475 
" style="fill:none;stroke:#000000;stroke-linecap:round;stroke-width:1.5;"/>
   </g>
   <g id="line2d_9">
    <path clip-path="url(#pd8764e0f4a)" d="M 100.54 36.635 
L 100.54 25.475 
" style="fill:none;stroke:#000000;stroke-linecap:round;stroke-width:1.5;"/>
   </g>
   <g id="line2d_10">
    <path clip-path="url(#pd8764e0f4a)" d="M 100.54 25.475 
L 94.465 25.475 
" style="fill:none;stroke:#000000;stroke-linecap:round;stroke-width:1.5;"/>
   </g>
   <g id="line2d_11">
    <path clip-path="url(#pd8764e0f4a)" d="M 100.54 36.635 
L 84.34 36.635 
L 68.14 36.635 
" style="fill:none;stroke:#000000;stroke-linecap:round;stroke-width:1.5;"/>
   </g>
   <g id="line2d_12">
    <path clip-path="url(#pd8764e0f4a)" d="M 68.14 36.635 
L 68.14 60.3035 
L 76.24 62.6285 
L 60.04 67.2785 
L 76.24 71.9285 
L 60.04 76.5785 
L 76.24 81.2285 
L 60.04 85.8785 
L 68.14 88.2035 
L 68.14 111.872 
" style="fill:none;stroke:#000000;stroke-linecap:round;stroke-width:1.5;"/>
   </g>
   <g id="line2d_13">
    <path clip-path="url(#pd8764e0f4a)" d="M 68.14 111.872 
" style="fill:none;stroke:#000000;stroke-linecap:round;stroke-width:1.5;"/>
   </g>
   <g id="line2d_14">
    <path clip-path="url(#pd8764e0f4a)" d="M 68.14 111.872 
L 88.363 111.872 
L 108.586 111.872 
" style="fill:none;stroke:#000000;stroke-linecap:round;stroke-width:1.5;"/>
   </g>
   <g id="line2d_15">
    <path clip-path="url(#pd8764e0f4a)" d="M 132.94 131.309 
L 132.94 145.259 
L 141.04 147.584 
L 124.84 152.234 
L 141.04 156.884 
L 124.84 161.534 
L 141.04 166.184 
L 124.84 170.834 
L 132.94 173.159 
L 132.94 187.109 
" style="fill:none;stroke:#000000;stroke-linecap:round;stroke-width:1.5;"/>
   </g>
   <g id="line2d_16">
    <path clip-path="url(#pd8764e0f4a)" d="M 132.94 187.109 
L 116.74 187.109 
L 100.54 187.109 
" style="fill:none;stroke:#000000;stroke-linecap:round;stroke-width:1.5;"/>
   </g>
   <g id="line2d_17">
    <path clip-path="url(#pd8764e0f4a)" d="M 100.54 187.109 
" style="fill:none;stroke:#000000;stroke-linecap:round;stroke-width:1.5;"/>
   </g>
   <g id="line2d_18">
    <path clip-path="url(#pd8764e0f4a)" d="M 100.54 187.109 
L 100.54 198.269 
L 92.44 198.269 
L 108.64 198.269 
M 94.87 201.617 
L 106.21 201.617 
M 98.92 204.965 
L 102.16 204.965 
" style="fill:none;stroke:#000000;stroke-linecap:round;stroke-width:1.5;"/>
   </g>
   <g id="line2d_19">
    <path clip-path="url(#pd8764e0f4a)" d="M 100.54 187.109 
L 84.34 187.109 
L 68.14 187.109 
" style="fill:none;stroke:#000000;stroke-linecap:round;stroke-width:1.5;"/>
   </g>
   <g id="line2d_20">
    <path clip-path="url(#pd8764e0f4a)" d="M 68.14 187.109 
L 68.14 163.4405 
L 60.04 161.1155 
L 76.24 156.4655 
L 60.04 151.8155 
L 76.24 147.1655 
L 60.04 142.5155 
L 76.24 137.8655 
L 68.14 135.5405 
L 68.14 111.872 
" style="fill:none;stroke:#000000;stroke-linecap:round;stroke-width:1.5;"/>
   </g>
   <g id="line2d_21">
    <path clip-path="url(#pd8764e0f4a)" d="M 132.94 92.435 
" style="fill:none;stroke:#000000;stroke-linecap:round;stroke-width:1.5;"/>
   </g>
   <g id="line2d_22">
    <path clip-path="url(#pd8764e0f4a)" d="M 132.94 92.435 
L 149.14 92.435 
L 165.34 92.435 
" style="fill:none;stroke:#000000;stroke-linecap:round;stroke-width:1.5;"/>
   </g>
   <g id="line2d_23">
    <path clip-path="url(#pd8764e0f4a)" d="M 165.34 92.435 
" style="fill:none;stroke:#000000;stroke-linecap:round;stroke-width:1.5;"/>
   </g>
   <g id="patch_3">
    <path clip-path="url(#pd8764e0f4a)" d="M 100.54 38.7275 
C 101.184444 38.7275 101.802579 38.507021 102.258269 38.114621 
C 102.71396 37.722221 102.97 37.189937 102.97 36.635 
C 102.97 36.080063 102.71396 35.547779 102.258269 35.155379 
C 101.802579 34.762979 101.184444 34.5425 100.54 34.5425 
C 99.895556 34.5425 99.277421 34.762979 98.821731 35.155379 
C 98.36604 35.547779 98.11 36.080063 98.11 36.635 
C 98.11 37.189937 98.36604 37.722221 98.821731 38.114621 
C 99.277421 38.507021 99.895556 38.7275 100.54 38.7275 
z
" style="stroke:#000000;stroke-linejoin:miter;stroke-width:1.5;"/>
   </g>
   <g id="patch_4">
    <path clip-path="url(#pd8764e0f4a)" d="M 68.14 113.9645 
C 68.784444 113.9645 69.402579 113.744021 69.858269 113.351621 
C 70.31396 112.959221 70.57 112.426937 70.57 111.872 
C 70.57 111.317063 70.31396 110.784779 69.858269 110.392379 
C 69.402579 109.999979 68.784444 109.7795 68.14 109.7795 
C 67.495556 109.7795 66.877421 109.999979 66.421731 110.392379 
C 65.96604 110.784779 65.71 111.317063 65.71 111.872 
C 65.71 112.426937 65.96604 112.959221 66.421731 113.351621 
C 66.877421 113.744021 67.495556 113.9645 68.14 113.9645 
z
" style="stroke:#000000;stroke-linejoin:miter;stroke-width:1.5;"/>
   </g>
   <g id="patch_5">
    <path clip-path="url(#pd8764e0f4a)" d="M 100.54 189.2015 
C 101.184444 189.2015 101.802579 188.981021 102.258269 188.588621 
C 102.71396 188.196221 102.97 187.663937 102.97 187.109 
C 102.97 186.554063 102.71396 186.021779 102.258269 185.629379 
C 101.802579 185.236979 101.184444 185.0165 100.54 185.0165 
C 99.895556 185.0165 99.277421 185.236979 98.821731 185.629379 
C 98.36604 186.021779 98.11 186.554063 98.11 187.109 
C 98.11 187.663937 98.36604 188.196221 98.821731 188.588621 
C 99.277421 188.981021 99.895556 189.2015 100.54 189.2015 
z
" style="stroke:#000000;stroke-linejoin:miter;stroke-width:1.5;"/>
   </g>
   <g id="patch_6">
    <path clip-path="url(#pd8764e0f4a)" d="M 132.94 94.5275 
C 133.584444 94.5275 134.202579 94.307021 134.658269 93.914621 
C 135.11396 93.522221 135.37 92.989937 135.37 92.435 
C 135.37 91.880063 135.11396 91.347779 134.658269 90.955379 
C 134.202579 90.562979 133.584444 90.3425 132.94 90.3425 
C 132.295556 90.3425 131.677421 90.562979 131.221731 90.955379 
C 130.76604 91.347779 130.51 91.880063 130.51 92.435 
C 130.51 92.989937 130.76604 93.522221 131.221731 93.914621 
C 131.677421 94.307021 132.295556 94.5275 132.94 94.5275 
z
" style="stroke:#000000;stroke-linejoin:miter;stroke-width:1.5;"/>
   </g>
   <g id="patch_7">
    <path clip-path="url(#pd8764e0f4a)" d="M 165.34 94.5275 
C 165.984444 94.5275 166.602579 94.307021 167.058269 93.914621 
C 167.51396 93.522221 167.77 92.989937 167.77 92.435 
C 167.77 91.880063 167.51396 91.347779 167.058269 90.955379 
C 166.602579 90.562979 165.984444 90.3425 165.34 90.3425 
C 164.695556 90.3425 164.077421 90.562979 163.621731 90.955379 
C 163.16604 91.347779 162.91 91.880063 162.91 92.435 
C 162.91 92.989937 163.16604 93.522221 163.621731 93.914621 
C 164.077421 94.307021 164.695556 94.5275 165.34 94.5275 
z
" style="fill:#ffffff;stroke:#000000;stroke-linejoin:miter;stroke-width:1.5;"/>
   </g>
   <g id="text_1">
    <!-- $R_C$ -->
    <defs>
     <path d="M 44.390625 34.1875 
Q 47.5625 33.109375 50.5625 29.59375 
Q 53.5625 26.078125 56.59375 19.921875 
L 66.609375 0 
L 56 0 
L 46.6875 18.703125 
Q 43.0625 26.03125 39.671875 28.421875 
Q 36.28125 30.8125 30.421875 30.8125 
L 19.671875 30.8125 
L 19.671875 0 
L 9.8125 0 
L 9.8125 72.90625 
L 32.078125 72.90625 
Q 44.578125 72.90625 50.734375 67.671875 
Q 56.890625 62.453125 56.890625 51.90625 
Q 56.890625 45.015625 53.6875 40.46875 
Q 50.484375 35.9375 44.390625 34.1875 
z
M 19.671875 64.796875 
L 19.671875 38.921875 
L 32.078125 38.921875 
Q 39.203125 38.921875 42.84375 42.21875 
Q 46.484375 45.515625 46.484375 51.90625 
Q 46.484375 58.296875 42.84375 61.546875 
Q 39.203125 64.796875 32.078125 64.796875 
z
" id="DejaVuSans-52"/>
     <path d="M 64.40625 67.28125 
L 64.40625 56.890625 
Q 59.421875 61.53125 53.78125 63.8125 
Q 48.140625 66.109375 41.796875 66.109375 
Q 29.296875 66.109375 22.65625 58.46875 
Q 16.015625 50.828125 16.015625 36.375 
Q 16.015625 21.96875 22.65625 14.328125 
Q 29.296875 6.6875 41.796875 6.6875 
Q 48.140625 6.6875 53.78125 8.984375 
Q 59.421875 11.28125 64.40625 15.921875 
L 64.40625 5.609375 
Q 59.234375 2.09375 53.4375 0.328125 
Q 47.65625 -1.421875 41.21875 -1.421875 
Q 24.65625 -1.421875 15.125 8.703125 
Q 5.609375 18.84375 5.609375 36.375 
Q 5.609375 53.953125 15.125 64.078125 
Q 24.65625 74.21875 41.21875 74.21875 
Q 47.75 74.21875 53.53125 72.484375 
Q 59.328125 70.75 64.40625 67.28125 
z
" id="DejaVuSans-43"/>
    </defs>
    <g transform="translate(101.92 68.95)scale(0.16 -0.16)">
     <use transform="translate(0 0.09375)" xlink:href="#DejaVuSans-52"/>
     <use transform="translate(70.439453 -16.3125)scale(0.7)" xlink:href="#DejaVuSans-43"/>
    </g>
   </g>
   <g id="text_2">
    <!-- 10V -->
    <defs>
     <path d="M 12.40625 8.296875 
L 28.515625 8.296875 
L 28.515625 63.921875 
L 10.984375 60.40625 
L 10.984375 69.390625 
L 28.421875 72.90625 
L 38.28125 72.90625 
L 38.28125 8.296875 
L 54.390625 8.296875 
L 54.390625 0 
L 12.40625 0 
z
" id="DejaVuSans-31"/>
     <path d="M 31.78125 66.40625 
Q 24.171875 66.40625 20.328125 58.90625 
Q 16.5 51.421875 16.5 36.375 
Q 16.5 21.390625 20.328125 13.890625 
Q 24.171875 6.390625 31.78125 6.390625 
Q 39.453125 6.390625 43.28125 13.890625 
Q 47.125 21.390625 47.125 36.375 
Q 47.125 51.421875 43.28125 58.90625 
Q 39.453125 66.40625 31.78125 66.40625 
z
M 31.78125 74.21875 
Q 44.046875 74.21875 50.515625 64.515625 
Q 56.984375 54.828125 56.984375 36.375 
Q 56.984375 17.96875 50.515625 8.265625 
Q 44.046875 -1.421875 31.78125 -1.421875 
Q 19.53125 -1.421875 13.0625 8.265625 
Q 6.59375 17.96875 6.59375 36.375 
Q 6.59375 54.828125 13.0625 64.515625 
Q 19.53125 74.21875 31.78125 74.21875 
z
" id="DejaVuSans-30"/>
     <path d="M 28.609375 0 
L 0.78125 72.90625 
L 11.078125 72.90625 
L 34.1875 11.53125 
L 57.328125 72.90625 
L 67.578125 72.90625 
L 39.796875 0 
z
" id="DejaVuSans-56"/>
    </defs>
    <g transform="translate(84.8875 19.3575)scale(0.16 -0.16)">
     <use xlink:href="#DejaVuSans-31"/>
     <use x="63.623047" xlink:href="#DejaVuSans-30"/>
     <use x="127.246094" xlink:href="#DejaVuSans-56"/>
    </g>
   </g>
   <g id="text_3">
    <!-- $R_1 = R$ -->
    <defs>
     <path d="M 10.59375 45.40625 
L 73.1875 45.40625 
L 73.1875 37.203125 
L 10.59375 37.203125 
z
M 10.59375 25.484375 
L 73.1875 25.484375 
L 73.1875 17.1875 
L 10.59375 17.1875 
z
" id="DejaVuSans-3d"/>
    </defs>
    <g transform="translate(7.2 78.6685)scale(0.16 -0.16)">
     <use transform="translate(0 0.09375)" xlink:href="#DejaVuSans-52"/>
     <use transform="translate(70.439453 -16.3125)scale(0.7)" xlink:href="#DejaVuSans-31"/>
     <use transform="translate(137.192383 0.09375)" xlink:href="#DejaVuSans-3d"/>
     <use transform="translate(240.463867 0.09375)" xlink:href="#DejaVuSans-52"/>
    </g>
   </g>
   <g id="text_4">
    <!-- $R_E$ -->
    <defs>
     <path d="M 9.8125 72.90625 
L 55.90625 72.90625 
L 55.90625 64.59375 
L 19.671875 64.59375 
L 19.671875 43.015625 
L 54.390625 43.015625 
L 54.390625 34.71875 
L 19.671875 34.71875 
L 19.671875 8.296875 
L 56.78125 8.296875 
L 56.78125 0 
L 9.8125 0 
z
" id="DejaVuSans-45"/>
    </defs>
    <g transform="translate(102.72 163.624)scale(0.16 -0.16)">
     <use transform="translate(0 0.09375)" xlink:href="#DejaVuSans-52"/>
     <use transform="translate(70.439453 -16.3125)scale(0.7)" xlink:href="#DejaVuSans-45"/>
    </g>
   </g>
   <g id="text_5">
    <!-- $R_2 = R$ -->
    <defs>
     <path d="M 19.1875 8.296875 
L 53.609375 8.296875 
L 53.609375 0 
L 7.328125 0 
L 7.328125 8.296875 
Q 12.9375 14.109375 22.625 23.890625 
Q 32.328125 33.6875 34.8125 36.53125 
Q 39.546875 41.84375 41.421875 45.53125 
Q 43.3125 49.21875 43.3125 52.78125 
Q 43.3125 58.59375 39.234375 62.25 
Q 35.15625 65.921875 28.609375 65.921875 
Q 23.96875 65.921875 18.8125 64.3125 
Q 13.671875 62.703125 7.8125 59.421875 
L 7.8125 69.390625 
Q 13.765625 71.78125 18.9375 73 
Q 24.125 74.21875 28.421875 74.21875 
Q 39.75 74.21875 46.484375 68.546875 
Q 53.21875 62.890625 53.21875 53.421875 
Q 53.21875 48.921875 51.53125 44.890625 
Q 49.859375 40.875 45.40625 35.40625 
Q 44.1875 33.984375 37.640625 27.21875 
Q 31.109375 20.453125 19.1875 8.296875 
z
" id="DejaVuSans-32"/>
    </defs>
    <g transform="translate(7.2 153.9055)scale(0.16 -0.16)">
     <use transform="translate(0 0.09375)" xlink:href="#DejaVuSans-52"/>
     <use transform="translate(70.439453 -16.3125)scale(0.7)" xlink:href="#DejaVuSans-32"/>
     <use transform="translate(137.192383 0.09375)" xlink:href="#DejaVuSans-3d"/>
     <use transform="translate(240.463867 0.09375)" xlink:href="#DejaVuSans-52"/>
    </g>
   </g>
   <g id="text_6">
    <!-- $V_C$ -->
    <g transform="translate(171.01 96.85)scale(0.16 -0.16)">
     <use transform="translate(0 0.09375)" xlink:href="#DejaVuSans-56"/>
     <use transform="translate(69.365234 -16.3125)scale(0.7)" xlink:href="#DejaVuSans-43"/>
    </g>
   </g>
  </g>
 </g>
 <defs>
  <clipPath id="pd8764e0f4a">
   <rect height="203.019" width="124.983" x="51.4135" y="13.7105"/>
  </clipPath>
 </defs>
</svg>
